<svg xmlns="http://www.w3.org/2000/svg" viewBox="0 0 114.17 33"><defs><style>.cls-1,.cls-2,.cls-3{fill:#45bdfe;}.cls-2,.cls-3{font-size:15.01px;}.cls-2{font-family:ArialMT, Arial;}.cls-3{font-family:Arial-BoldMT, Arial;font-weight:700;}</style></defs><title>Website Workflow</title><g id="Layer_4" data-name="Layer 4"><path class="cls-1" d="M21.66,22.23a7.17,7.17,0,0,1-3.14-.89L17.87,24a8.25,8.25,0,0,0,3.79.82c3.35,0,5.08-1.61,5.08-3.79,0-1.72-1-2.85-3.19-3.62-1.43-.51-1.88-.8-1.88-1.35s.5-1,1.39-1a5.78,5.78,0,0,1,2.54.67l.69-2.47A7.85,7.85,0,0,0,23,12.54c-2.9,0-4.77,1.66-4.77,3.84,0,1.39.91,2.71,3.34,3.53,1.36.46,1.72.75,1.72,1.34s-.46,1-1.56,1Z"/><path class="cls-1" d="M9.71,18.75a9.32,9.32,0,0,0,1.24.06,7.48,7.48,0,0,0,5.25-1.7,5.14,5.14,0,0,0,1.49-3.84A4.69,4.69,0,0,0,16,9.53,7.69,7.69,0,0,0,11,8.23a30.14,30.14,0,0,0-4.93.34v16H9.71Zm0-7.6a6,6,0,0,1,1.5-.15c1.83,0,2.85.88,2.86,2.37S12.87,16,10.93,16a5.89,5.89,0,0,1-1.22-.09Z"/><path class="cls-1" d="M.29.37V32.65H32.56V.37ZM30.56,30.65H2.29V2.36H30.56Z"/><text class="cls-2" transform="translate(36.98 15.98)">Adobe</text><text class="cls-3" transform="translate(35.83 28.05)">Photoshop</text></g></svg>