<svg xmlns="http://www.w3.org/2000/svg" viewBox="0 0 117.92 32.67"><defs><style>.cls-1,.cls-2{font-size:15.01px;}.cls-1,.cls-2,.cls-3{fill:#45bdfe;}.cls-1{font-family:ArialMT, Arial;}.cls-2{font-family:Arial-BoldMT, Arial;font-weight:700;}</style></defs><title>Website Workflow</title><g id="Layer_4" data-name="Layer 4"><text class="cls-1" transform="translate(36.82 15.81)">Adobe</text><text class="cls-2" transform="translate(36.8 28.38)">After Effect</text><path class="cls-3" d="M32.39,32.48H.24V.33H32.39ZM2.13,30.59H30.5V2.21H2.13Z"/><path class="cls-3" d="M10.13,10.72h2.18l4.82,12.7H14.6l-1.18-3.17H9L7.82,23.42H5.28ZM13,18.52l-1.75-5-1.82,5Z"/><path class="cls-3" d="M22.4,23.6A4.86,4.86,0,1,1,22,13.89h.44a4.68,4.68,0,0,1,4.88,4.47q0,.17,0,.34a7.81,7.81,0,0,1,0,.8H20a2.54,2.54,0,0,0,2.48,2.33,2.43,2.43,0,0,0,2.22-1.27l2.06.57A4.58,4.58,0,0,1,22.4,23.6ZM24.83,18A2.44,2.44,0,0,0,20,18Z"/></g></svg>