<svg xmlns="http://www.w3.org/2000/svg" viewBox="0 0 107.13 33"><defs><style>.cls-1,.cls-2{font-size:15.01px;}.cls-1,.cls-2,.cls-3{fill:#45bdfe;}.cls-1{font-family:ArialMT, Arial;}.cls-2{font-family:Arial-BoldMT, Arial;font-weight:700;}</style></defs><title>Website Workflow</title><g id="Layer_4" data-name="Layer 4"><text class="cls-1" transform="translate(37.44 16.08)">Adobe</text><text class="cls-2" transform="translate(37.42 28.65)">illustrator</text><path class="cls-3" d="M12,20.89h4.53L17.75,25H21.6L16.75,9.1h-4.7L7.18,25H10.9Zm2.18-9.11h0c.23.95,1.79,6.42,1.79,6.42H12.54S14,12.73,14.21,11.78Z"/><rect class="cls-3" x="23.04" y="13.46" width="3.58" height="11.49"/><path class="cls-3" d="M24.81,12a1.8,1.8,0,1,0,0-3.6h0a1.8,1.8,0,0,0,0,3.6Z"/><path class="cls-3" d="M.83.57V32.82H33.08V.57ZM31.09,30.83H2.83V2.57H31.09Z"/></g></svg>