<svg xmlns="http://www.w3.org/2000/svg" viewBox="0 0 120.79 36.19"><defs><style>.cls-1{font-size:16.64px;}.cls-1,.cls-2,.cls-3,.cls-4{fill:#828282;}.cls-1,.cls-3{font-family:Arial-BoldMT, Arial;font-weight:700;}.cls-2,.cls-3{font-size:15.01px;}.cls-2{font-family:ArialMT, Arial;}</style></defs><title>after_effect_logo</title><g id="Layer_2" data-name="Layer 2"><text class="cls-1" transform="translate(-65.32 16.7)">Android </text><text class="cls-2" transform="translate(37.69 17.98)">Adobe</text><text class="cls-3" transform="translate(37.67 30.55)">After Effect</text><path class="cls-4" d="M33.26,34.65H1.11V2.5H33.26ZM3,32.76H31.37V4.38H3Z"/><path class="cls-4" d="M11,12.89h2.18L18,25.59H15.47l-1.18-3.17H9.85L8.69,25.59H6.15Zm2.84,7.8-1.75-5-1.82,5Z"/><path class="cls-4" d="M23.27,25.77a4.86,4.86,0,1,1,0-9.71,4.68,4.68,0,0,1,4.88,4.81,7.81,7.81,0,0,1-.05.8H20.87A2.54,2.54,0,0,0,23.35,24a2.43,2.43,0,0,0,2.22-1.27l2.06.57A4.58,4.58,0,0,1,23.27,25.77Zm2.43-5.65a2.44,2.44,0,0,0-4.87,0Z"/></g></svg>