<svg xmlns="http://www.w3.org/2000/svg" viewBox="0 0 94.33 33.08"><defs><style>.cls-1,.cls-2,.cls-3{fill:#828282;}.cls-2{font-size:16.64px;font-family:Arial-BoldMT, Arial;font-weight:700;}.cls-3{font-size:15.66px;font-family:ArialMT, Arial;letter-spacing:0.12em;}</style></defs><title>android_studio_logo</title><g id="Layer_2" data-name="Layer 2"><path class="cls-1" d="M17.66,3.3,19,1.08a.53.53,0,1,0-.91-.55L16.67,2.87a7.85,7.85,0,0,0-5.34,0L9.92.53A.53.53,0,1,0,9,1.08L10.34,3.3A8,8,0,0,0,6,10.41a.53.53,0,0,0,.53.53H21.47a.53.53,0,0,0,.53-.53A8,8,0,0,0,17.66,3.3ZM11.33,7.39a.35.35,0,0,1-.35.35h-.7a.35.35,0,0,1-.35-.35v-.7a.35.35,0,0,1,.35-.35H11a.35.35,0,0,1,.35.35Zm6.75,0a.35.35,0,0,1-.35.35H17a.35.35,0,0,1-.35-.35v-.7A.35.35,0,0,1,17,6.33h.7a.35.35,0,0,1,.35.35Z"/><path class="cls-1" d="M21.47,13.46H6.53A.53.53,0,0,0,6,14V24.75a2.58,2.58,0,0,0,2.58,2.58H9.2v3.21a2.14,2.14,0,0,0,4.27,0V27.33h1.07v3.21a2.14,2.14,0,0,0,4.27,0V27.33h.62A2.58,2.58,0,0,0,22,24.75V14a.53.53,0,0,0-.53-.53ZM10.27,30.54m10.67-5.78"/><path class="cls-1" d="M25.73,13.46a1.87,1.87,0,0,0-1.87,1.87v7.47a1.87,1.87,0,1,0,3.74,0V15.33a1.87,1.87,0,0,0-1.87-1.87Zm.8,9.34"/><path class="cls-1" d="M2.28,13.46A1.87,1.87,0,0,0,.41,15.33v7.47a1.87,1.87,0,1,0,3.74,0V15.33a1.87,1.87,0,0,0-1.87-1.87Zm.8,9.34"/><text class="cls-2" transform="translate(30.43 16.86)">Android </text><text class="cls-3" transform="translate(30.2 29.48)">Studio</text></g></svg>