<svg xmlns="http://www.w3.org/2000/svg" viewBox="0 0 94.94 33.63"><defs><style>.cls-1,.cls-2,.cls-3{fill:#45bdfe;}.cls-2,.cls-3{isolation:isolate;}.cls-2{font-size:16.64px;font-family:Arial-BoldMT, Arial;font-weight:700;}.cls-3{font-size:15.66px;font-family:ArialMT, Arial;letter-spacing:0.12em;}</style></defs><title>Website Workflow</title><g id="Layer_4" data-name="Layer 4"><g id="Layer_2-2" data-name="Layer 2"><path class="cls-1" d="M17.72,3.67l1.34-2.22a.53.53,0,0,0-.91-.55h0L16.73,3.24a7.85,7.85,0,0,0-5.34,0L10,.9a.54.54,0,0,0-.92.55L10.4,3.67a8,8,0,0,0-4.34,7.11.53.53,0,0,0,.53.53H21.53a.53.53,0,0,0,.53-.53h0A8,8,0,0,0,17.72,3.67ZM11.39,7.76a.35.35,0,0,1-.35.35h-.7A.35.35,0,0,1,10,7.77h0v-.7a.35.35,0,0,1,.35-.35h.72a.35.35,0,0,1,.35.35h0Zm6.75,0a.35.35,0,0,1-.35.35h-.73a.35.35,0,0,1-.35-.35h0v-.7a.35.35,0,0,1,.34-.36h.71a.35.35,0,0,1,.35.35h0Z"/><path class="cls-1" d="M21.53,13.84H6.59a.53.53,0,0,0-.53.53h0V25.13A2.58,2.58,0,0,0,8.64,27.7h.62v3.21a2.14,2.14,0,0,0,4.27,0V27.7H14.6v3.21a2.14,2.14,0,0,0,4.27,0V27.7h.62a2.58,2.58,0,0,0,2.57-2.58V14.38a.53.53,0,0,0-.53-.53h0Z"/><path class="cls-1" d="M25.79,13.84a1.87,1.87,0,0,0-1.87,1.87h0v7.47a1.87,1.87,0,0,0,3.74,0h0V15.7a1.87,1.87,0,0,0-1.87-1.87Z"/><path class="cls-1" d="M2.34,13.84A1.87,1.87,0,0,0,.47,15.7v7.47a1.87,1.87,0,1,0,3.74,0h0V15.7A1.87,1.87,0,0,0,2.34,13.84Z"/><text class="cls-2" transform="translate(30.49 17.23)">Android</text><text class="cls-3" transform="translate(30.26 29.86)">Studio</text></g></g></svg>