<svg xmlns="http://www.w3.org/2000/svg" xmlns:xlink="http://www.w3.org/1999/xlink" viewBox="0 0 464 430"><defs><style>.cls-1{fill:#afbec5;}.cls-2{fill:#43bfff;}.cls-3{fill:#0694c6;}.cls-4{fill:#44beff;}.cls-5{fill:#374751;}.cls-32,.cls-38,.cls-40,.cls-6{fill:none;}.cls-32,.cls-40,.cls-6{stroke:#3b474c;}.cls-32,.cls-38,.cls-6{stroke-miterlimit:10;}.cls-6{stroke-width:4px;}.cls-7{fill:url(#linear-gradient);}.cls-8{fill:#45beff;}.cls-9{fill:#002854;}.cls-10{fill:#191919;}.cls-11{fill:#0a0a0a;}.cls-12{fill:#0f0f0f;}.cls-13{fill:#141414;}.cls-14{fill:#0c0c0c;}.cls-15{fill:url(#linear-gradient-2);}.cls-16{fill:#151616;}.cls-17{fill:url(#linear-gradient-3);}.cls-18{fill:url(#linear-gradient-4);}.cls-19{fill:url(#linear-gradient-5);}.cls-20{fill:url(#linear-gradient-6);}.cls-21{fill:url(#linear-gradient-7);}.cls-22{fill:#869aa5;}.cls-23{fill:#eee9d4;}.cls-24{fill:#d4d4c8;}.cls-25{fill:#edebd4;}.cls-26{fill:#edebe8;}.cls-27{fill:#546d7b;}.cls-28{fill:#002855;}.cls-29{fill:#012955;}.cls-30{fill:#37454e;}.cls-31{fill:#eeebea;}.cls-32,.cls-40{stroke-width:3px;}.cls-33{fill:#efebe9;}.cls-34{fill:#e6ecf2;}.cls-35{fill:#fff;}.cls-36{fill:url(#linear-gradient-8);}.cls-37{fill:#d3c4c1;}.cls-38{stroke:#546d7b;stroke-width:5px;}.cls-39{fill:url(#linear-gradient-9);}.cls-40{stroke-linecap:round;stroke-linejoin:round;}.cls-41{fill:#afbec7;}.cls-42{fill:#526d7a;}.cls-43{fill:#231f20;}.cls-44{fill:#d6d6d6;}.cls-45{fill:url(#linear-gradient-10);}</style><linearGradient id="linear-gradient" x1="180.95" y1="362.06" x2="260.24" y2="222.16" gradientUnits="userSpaceOnUse"><stop offset="0.17" stop-color="#d71b60"/><stop offset="0.25" stop-color="#b51d5f"/><stop offset="0.38" stop-color="#86205d"/><stop offset="0.51" stop-color="#5f225b"/><stop offset="0.64" stop-color="#41245a"/><stop offset="0.76" stop-color="#2b2559"/><stop offset="0.88" stop-color="#1e2658"/><stop offset="0.99" stop-color="#1a2658"/></linearGradient><linearGradient id="linear-gradient-2" x1="204.88" y1="135.63" x2="242.33" y2="135.63" gradientUnits="userSpaceOnUse"><stop offset="0" stop-color="#fec2b9"/><stop offset="0.05" stop-color="#fec3bb"/><stop offset="0.54" stop-color="#ffcdc8"/><stop offset="0.99" stop-color="#ffd0cc"/></linearGradient><linearGradient id="linear-gradient-3" x1="246.14" y1="151.42" x2="261.61" y2="112.37" gradientUnits="userSpaceOnUse"><stop offset="0" stop-color="#00c2ff"/><stop offset="0.08" stop-color="#00a4ef"/><stop offset="0.2" stop-color="#007dda"/><stop offset="0.32" stop-color="#005fca"/><stop offset="0.44" stop-color="#0049be"/><stop offset="0.55" stop-color="#003cb7"/><stop offset="0.66" stop-color="#0038b5"/></linearGradient><linearGradient id="linear-gradient-4" x1="278.59" y1="221.97" x2="293.61" y2="145.29" gradientUnits="userSpaceOnUse"><stop offset="0" stop-color="#01a3ff"/><stop offset="1" stop-color="#0139a2"/></linearGradient><linearGradient id="linear-gradient-5" x1="233.41" y1="104.67" x2="276.18" y2="131.85" xlink:href="#linear-gradient-2"/><linearGradient id="linear-gradient-6" x1="262.96" y1="161.08" x2="331.94" y2="80.79" xlink:href="#linear-gradient-3"/><linearGradient id="linear-gradient-7" x1="190.69" y1="132.64" x2="207.77" y2="132.64" xlink:href="#linear-gradient-2"/><linearGradient id="linear-gradient-8" x1="259.65" y1="51.13" x2="305.84" y2="51.13" xlink:href="#linear-gradient-2"/><linearGradient id="linear-gradient-9" x1="243.59" y1="207.09" x2="267.85" y2="361" xlink:href="#linear-gradient"/><linearGradient id="linear-gradient-10" x1="226.03" y1="90.48" x2="232.96" y2="103.8" xlink:href="#linear-gradient-2"/></defs><title>character_02</title><g id="_2nd_character" data-name="2nd character"><path class="cls-1" d="M307.1,405.5s-81-.7-94.8-1.2c0,0-87.7-1.2-99.4-1h-.3c-4.7,0-8.4,2.4-8.4,5.4s3.2,5,7.4,5.4h.1s6.4,2.5,55.6.8a258.6,258.6,0,0,1,35.1-.8s111,3,119.2-3.5C321.5,410.7,330.9,405.9,307.1,405.5Z"/><path class="cls-2" d="M420,242.9s-64.5,70.2-24.5,136.5C395.5,379.4,446.3,332.1,420,242.9Z"/><path class="cls-3" d="M420,242.9s-15.7,85.7-24.5,136.5C395.5,379.4,446.3,332.1,420,242.9Z"/><path d="M415.8,264.5,396.9,370C399.9,360.2,410.4,302.2,415.8,264.5Z"/><path class="cls-4" d="M344,267.1s-8.2,87,46.8,114C390.8,381.1,406.3,315.9,344,267.1Z"/><path class="cls-3" d="M344,267.1s32.8,77.5,46.8,114C390.8,381.1,406.3,315.9,344,267.1Z"/><path d="M349.3,279.7,388.4,375C388.9,374.9,363.4,311.1,349.3,279.7Z"/><polygon points="352.9 317.1 367.3 323.6 368 325.3 352.9 317.1"/><polygon points="369.7 298.8 363.5 313.2 364.1 314.8 369.7 298.8"/><polygon points="378.6 320.6 372.4 335 373 336.6 378.6 320.6"/><polygon points="387.7 343.4 381.6 357.8 382.2 359.4 387.7 343.4"/><polygon points="362.5 339.9 376.8 346.4 377.4 348 362.5 339.9"/><line x1="352.9" y1="317.1" x2="367.1" y2="323.6"/><polygon points="399.6 294.8 407.8 310.7 408.1 308.8 399.6 294.8"/><polygon points="424.4 283.9 410.9 295.6 411.3 293.7 424.4 283.9"/><polygon points="418.9 316 405.4 327.7 405.8 325.8 418.9 316"/><polygon points="414.1 340.8 400.6 352.5 401 350.6 414.1 340.8"/><polygon points="394.3 325.3 402.5 341.1 402.8 339.3 394.3 325.3"/><path class="cls-3" d="M457.3,267.1s8.3,87-46.7,114C410.5,381.1,395,315.9,457.3,267.1Z"/><path class="cls-4" d="M457.3,267.1s-32.7,77.5-46.7,114C410.5,381.1,395,315.9,457.3,267.1Z"/><path d="M452,279.7,412.9,375C412.4,374.9,437.8,311.1,452,279.7Z"/><polygon points="448.4 317.1 434 323.6 433.3 325.3 448.4 317.1"/><polygon points="431.6 298.8 437.8 313.2 437.2 314.8 431.6 298.8"/><polygon points="422.7 320.6 428.8 335 428.3 336.6 422.7 320.6"/><polygon points="413.6 343.4 419.7 357.8 419.1 359.4 413.6 343.4"/><polygon points="438.8 339.9 424.5 346.4 423.9 348 438.8 339.9"/><path class="cls-5" d="M322.1,406.6c0,4.3-14.9,7.9-33.2,7.9s-33.2-3.5-33.2-7.9v-3.7h66.5Z"/><line class="cls-6" x1="226.1" y1="169.7" x2="236.3" y2="391.7"/><path id="Right_leg" data-name="Right leg" class="cls-7" d="M280.1,223.5,223.6,293a32.8,32.8,0,0,0-8.4,23s.3,5.3.9,10.4c0,0,.8,4.6-3,13.9l-21.5,49.2s-1.6,3.2-9.9,3.6l.9-4.9L196.9,305a60,60,0,0,1,4.8-12.3l17-38.3,8-19.2Z"/><rect class="cls-8" x="5.4" y="13.8" width="146.7" height="105.25" rx="14.6" ry="14.6"/><path id="hair" class="cls-9" d="M265.4,2.9c-1.1,1-.7,3,.5,3.9a6.8,6.8,0,0,0,4.3,1c4.3-.1,8.6-.9,13-1.2S292,6.5,296,8.2a11.3,11.3,0,0,1,5.2,4.2,6.7,6.7,0,0,1,.5,6.5c-.9,1.8-2.8,2.9-3.7,4.7s-.8,3.9-.6,5.9l2,26.3c-9.9-7.4-18-17.5-29.5-22.2-3.1-1.3-6.3-2.1-9.4-3.2a22.6,22.6,0,0,1-8.5-5,12.5,12.5,0,0,1-2.7-4,10.4,10.4,0,0,1-.7-2.3,9.2,9.2,0,0,1-.1-1.2c0-.4,0-.8,0-1.2a3.2,3.2,0,0,1,0-.9l.3-1.1a16.4,16.4,0,0,1,.8-2.2,16.6,16.6,0,0,1,2.5-3.9,16,16,0,0,1,2.2-2.1A16.5,16.5,0,0,1,265.4,2.9Z"/><rect class="cls-10" x="48.6" y="39.5" width="11.3" height="13.75"/><rect class="cls-11" x="84.6" y="26.5" width="11.3" height="13.75"/><rect class="cls-12" x="119.8" y="31.8" width="11.3" height="13.75"/><rect class="cls-13" x="98.6" y="46.4" width="11.3" height="13.75"/><rect class="cls-13" x="113" y="61.9" width="11.3" height="13.75"/><rect class="cls-14" x="128.6" y="57.7" width="11.3" height="13.75"/><path class="cls-15" d="M236.2,146l-30-16.5-1.3-3.7s3.4-1.2,9.4,0l23.9,3.2s7.3,4.9,2.4,13.8c0,0-1.7,3.6-4.4,3.2"/><polygon class="cls-16" points="69.7 76.8 63.6 103.7 106.2 115.7 113.1 88.2 69.7 76.8"/><path id="right_hand" data-name="right hand" class="cls-17" d="M238,128.8s1.8,10.3-1.8,17.2c0,0,16.8,4,26.5,3,0,0,9.5-15.5,15.5-39.7L265.4,83.7s-6.7,13.8-16,45.7Z"/><path id="chest" class="cls-18" d="M287.4,65.4s-16.5,8.5-22,18.3c0,0-1.3,2.9,1,22.8,0,0,6.3,61.9-8.9,95.4,0,0,3.9-5.9,29.9.6,0,0,28.4,8.9,30.5,1,0,0,14.8-35.2,20.3-87.1,0,0,5.3-31.1-2-39.7C336.1,76.8,313.6,52.9,287.4,65.4Z"/><path id="left_albow" data-name="left albow" class="cls-19" d="M270.2,137.9l-42.7-34.7,7.5-4.4,41.6,23.6S282.9,131.1,270.2,137.9Z"/><path id="left_hand" data-name="left hand" class="cls-20" d="M275.2,121.5s1.1,5.8-6.5,15.2L288,151.9s2.6,1.8,4.3,0l33.5-38.7S344.4,93.8,337.4,85c0,0-10.5-12.9-21.1-1.9,0,0-3.9,3.3-30.9,44.5Z"/><path id="right_palm" data-name="right palm" class="cls-21" d="M207.8,130.4l-1.3-.7a1.5,1.5,0,0,0-1.5.7s-1.4,5.1-7.4,3.9c0,0-1.5-.4-3.5,5.4l-3.3-3.9s2.1-7.5,14.2-9.9C204.9,125.8,207.8,125.2,207.8,130.4Z"/><path id="Mobile" class="cls-22" d="M220.9,89.5l-6.4-15.2s-1-2.1,0-3.2l4.9-2.4,1.6-.6a1.9,1.9,0,0,1,2.5,1.2l9.3,22.5h-11Z"/><path class="cls-23" d="M127.6,154.5h71.5c.4,0,.8-.5.7-1.3l-10.5-47.9a1.9,1.9,0,0,0-1.8-1.4H115.9a1.1,1.1,0,0,0-1.2,1.4l11,47.8A1.9,1.9,0,0,0,127.6,154.5Z"/><path class="cls-24" d="M127.1,155.4h68.6a1.1,1.1,0,0,0,1.1-1.4l-10.6-48.7a1.9,1.9,0,0,0-1.8-1.4H115.9a1.1,1.1,0,0,0-1.1,1.4l10.6,48.7A1.9,1.9,0,0,0,127.1,155.4Z"/><rect class="cls-24" x="127.3" y="154.5" width="72.5" height="3" rx="1.5" ry="1.5"/><rect class="cls-25" x="196.9" y="154.5" width="34.9" height="3" rx="1" ry="1"/><rect class="cls-26" x="115.4" y="158.2" width="134.9" height="5.83" rx="0.5" ry="0.5"/><rect class="cls-27" x="125.6" y="164" width="112.3" height="5.67"/><line class="cls-6" x1="139.7" y1="169.7" x2="128.4" y2="391.7"/><path id="left_shoes" data-name="left shoes" class="cls-28" d="M254.4,352.1l-23.5,26s-2.3,2.4-2.2,0c0,0-.6-4.7,8.6-23.3l1-2.6,5.4-4.9a3.1,3.1,0,0,1,3.9-.6A33.2,33.2,0,0,1,254.4,352.1Z"/><path id="right_shoes" data-name="right shoes" class="cls-29" d="M191.8,390.3s-1.4,3.1-10.2,3.5l-19.4,16.5s-3.1,2.8-.5,3.2l34.6-11.7a1.3,1.3,0,0,0,.8-1.8Z"/><path class="cls-30" d="M322.9,243.5c0,4.1-15.5,7.4-34.7,7.4s-34.7-3.3-34.7-7.4v-9.7h69.3Z"/><ellipse class="cls-31" cx="288.2" cy="233.8" rx="34.7" ry="7.4"/><ellipse class="cls-32" cx="289" cy="345.1" rx="27.4" ry="5.5"/><ellipse class="cls-33" cx="288.8" cy="403.1" rx="33.3" ry="7.9"/><ellipse class="cls-34" cx="402.2" cy="417.6" rx="45.5" ry="5.5"/><path class="cls-33" d="M362.4,359.3v33.3c0,17.2,17.7,25.4,39.4,25.4s39.3-8.2,39.3-25.4V359.3Z"/><polygon class="cls-35" points="69.6 76.5 63.6 103.7 106.1 115.4 113.1 88.2 69.6 76.5"/><polygon class="cls-10" points="21.5 65.9 24.6 93 69.6 87.3 64.8 59.2 21.5 65.9"/><polygon class="cls-35" points="20.6 65.9 24.6 93 69.1 87 64.8 59.2 20.6 65.9"/><polygon class="cls-35" points="59.9 39.5 59.7 53.1 48.6 53.3 48.6 39.5 59.9 39.5"/><polygon class="cls-35" points="95.9 26.5 95.6 40 84.6 40.3 84.6 26.5 95.9 26.5"/><polygon class="cls-35" points="131 31.8 130.8 45.4 119.8 45.6 119.8 31.8 131 31.8"/><polygon class="cls-35" points="109.9 46.4 109.6 59.8 98.6 60.1 98.6 46.4 109.9 46.4"/><polygon class="cls-35" points="124.2 61.9 124 75.4 113 75.6 113 61.9 124.2 61.9"/><polygon class="cls-35" points="139.9 57.7 139.7 71.2 128.6 71.5 128.6 57.7 139.9 57.7"/><circle class="cls-14" cx="63.1" cy="61.2" r="0.4"/><circle class="cls-14" cx="22.1" cy="67.2" r="0.4"/><circle class="cls-14" cx="71.1" cy="79.2" r="0.4"/><circle class="cls-14" cx="110" cy="89.4" r="0.4"/><circle class="cls-14" cx="54.3" cy="40.5" r="0.2"/><circle class="cls-14" cx="90.3" cy="27.5" r="0.2"/><circle class="cls-14" cx="125.5" cy="33.1" r="0.2"/><circle class="cls-14" cx="104" cy="47.5" r="0.2"/><circle class="cls-14" cx="118.4" cy="63" r="0.2" transform="translate(-13.7 86) rotate(-37.9)"/><circle class="cls-14" cx="134.4" cy="58.9" r="0.2" transform="translate(-7.8 95) rotate(-37.9)"/><path class="cls-36" d="M288.4,40.2s-2.4-2-6.6-10.9c0,0-2.1-5.3-11.7-5.6,0,0-9.3.2-8.2,5.6,0,0,1.6,6.7,1.8,8.8,0,0,1,5-2.4,6.8,0,0-2.3,1.6-1.6,3.1a2.8,2.8,0,0,0,2.6,1.8s2.7-.1,3.1,5.3l.2,3.8s0,6.6,5.2,4.6l6.3-2.4s7-3.2,11.2,4.3l6.8,11.8s2.1,3,5.3.4c0,0,5.4-3.9,5.4-13.1,0,0,.4-1.4-2.4-3.9L291.8,46.1a1,1,0,0,1,.6-1.4s3.9-1.4,3.4-4.3c0,0-.4-3.7-3.7-4.3,0,0-3.2-.4-3.2,2.1C288.9,38.1,289.2,40.4,288.4,40.2Z"/><path class="cls-37" d="M116,104l.2-.2h-.3a1.1,1.1,0,0,0-1.1,1.4L125.3,154a1.9,1.9,0,0,0,1.8,1.4h41.6C168.5,155.2,119,107.1,116,104Z"/><line class="cls-38" x1="128.2" y1="169.2" x2="116.2" y2="407"/><path id="left_leg" data-name="left leg" class="cls-39" d="M200.9,255l11.5,11s14.4,9.3,16,16.5c0,0,.4,2.9.6,6.4a316.2,316.2,0,0,0,11.9,41.6s3.2,15.3,3.1,15.4l-4.4,4.3-1.8,1.4L175.1,246s-1.3-1.7.8-2.9l70.5-32.8a26.7,26.7,0,0,0,13.9-15.8s32,10.9,50.8,11.8c0,0,5.4.8,6.7-2.7,0,0,5.5,27.7-26.5,35.2,0,0-59.2,15.3-90,16.3"/><line class="cls-38" x1="235.4" y1="168.8" x2="247.1" y2="407.3"/><path class="cls-1" d="M255.6,403.1c0,4.3,14.9,7.9,33.3,7.9h4.1c-4-4.4-6.9-10.3-10-15.5C267.3,396.1,255.6,399.3,255.6,403.1Z"/><line class="cls-40" x1="288.2" y1="250.9" x2="288.2" y2="401"/><path class="cls-41" d="M380.2,414.7a64.4,64.4,0,0,0,21.5,3.3c21.7,0,39.3-8.2,39.3-25.4V368.1C421.1,384,400.5,399.1,380.2,414.7Z"/><path class="cls-42" d="M221.7,68.9a2,2,0,0,0-2.2-.3L214.6,71c-1,.7,0,3.3,0,3.3l6.4,15.3,1,2.3,8.9-1.1S222.8,69.9,221.7,68.9Z"/><rect class="cls-1" x="217.3" y="71.9" width="2.8" height="1.15" rx="0.1" ry="0.1" transform="translate(-9.7 102.7) rotate(-25.9)"/><rect class="cls-43" x="217.4" y="72.1" width="1.6" height="1.15" rx="0.1" ry="0.1" transform="translate(-9.9 102.5) rotate(-25.9)"/><rect class="cls-44" x="217.7" y="72.5" width="0.1" height="0.84" transform="translate(-10 102.3) rotate(-25.9)"/><path class="cls-45" d="M232.8,83.8s-.4,1.3.9,3.4c0,0,3.7,4.3,1.4,11.2,0,0-2.4,7.4-7.7,4.8,0,0-7.6-3.2-8.9-8,0,0-1.4-.6-1.7-1.4s-.4-1.6,2.1-1.1c0,0,1.3-.3.1-.9s-2.5-.2-2.5-1.7,0-1.6,3.8-.5c0,0,3.3,1.1,1.9-.4a6.1,6.1,0,0,0-4.4-1.7s-1.7,0-1.1-1.8c0,0,.1-.8,3.2-.3,0,0,2.8.3,4.1.6s3.5-.4-7.8-3.6c0,0-2-.2-2-1.3s-.5-1.3,2.8-1.1a27.5,27.5,0,0,1,7.4,2,12.1,12.1,0,0,1,4,3.1s2.6,3.3,2.5.6c0,0-.2-2,.2-2.6a1.1,1.1,0,0,1,1.5-.5S233.3,82.7,232.8,83.8Z"/></g></svg>