<svg id="Layer_1" data-name="Layer 1" xmlns="http://www.w3.org/2000/svg" xmlns:xlink="http://www.w3.org/1999/xlink" viewBox="0 0 633 662"><defs><style>.cls-1,.cls-35,.cls-41,.cls-43,.cls-9{fill:none;}.cls-2{clip-path:url(#clip-path);}.cls-3{fill:url(#linear-gradient);}.cls-4{fill:#afbec5;}.cls-5{fill:#43bfff;}.cls-6{fill:#0694c6;}.cls-7{fill:#44beff;}.cls-8{fill:#374751;}.cls-35,.cls-43,.cls-9{stroke:#3b474c;}.cls-35,.cls-41,.cls-9{stroke-miterlimit:10;}.cls-9{stroke-width:4.78px;}.cls-10{fill:url(#linear-gradient-2);}.cls-11{fill:#45beff;}.cls-12{fill:#002854;}.cls-13{fill:#191919;}.cls-14{fill:#0a0a0a;}.cls-15{fill:#0f0f0f;}.cls-16{fill:#141414;}.cls-17{fill:#0c0c0c;}.cls-18{fill:url(#linear-gradient-3);}.cls-19{fill:#151616;}.cls-20{fill:url(#linear-gradient-4);}.cls-21{fill:url(#linear-gradient-5);}.cls-22{fill:url(#linear-gradient-6);}.cls-23{fill:url(#linear-gradient-7);}.cls-24{fill:url(#linear-gradient-8);}.cls-25{fill:#869aa5;}.cls-26{fill:#eee9d4;}.cls-27{fill:#d4d4c8;}.cls-28{fill:#edebd4;}.cls-29{fill:#edebe8;}.cls-30{fill:#546d7b;}.cls-31{fill:#002855;}.cls-32{fill:#012955;}.cls-33{fill:#37454e;}.cls-34{fill:#eeebea;}.cls-35,.cls-43{stroke-width:3.59px;}.cls-36{fill:#efebe9;}.cls-37{fill:#e6ecf2;}.cls-38{fill:#fff;}.cls-39{fill:url(#linear-gradient-9);}.cls-40{fill:#d3c4c1;}.cls-41{stroke:#546d7b;stroke-width:5.98px;}.cls-42{fill:url(#linear-gradient-10);}.cls-43{stroke-linecap:round;stroke-linejoin:round;}.cls-44{fill:#afbec7;}.cls-45{fill:#526d7a;}.cls-46{fill:#231f20;}.cls-47{fill:#d6d6d6;}.cls-48{fill:url(#linear-gradient-11);}</style><clipPath id="clip-path"><rect class="cls-1" x="55.01" y="93.5" width="578" height="573"/></clipPath><linearGradient id="linear-gradient" x1="1264.91" y1="28.2" x2="1264.91" y2="463.79" gradientTransform="matrix(1.13, -0.32, 0.3, 1.07, -1120.65, 562.58)" gradientUnits="userSpaceOnUse"><stop offset="0" stop-color="#3f96ff"/><stop offset="1" stop-color="#0052aa"/></linearGradient><linearGradient id="linear-gradient-2" x1="224.88" y1="462.86" x2="319.67" y2="630.1" gradientTransform="matrix(1, 0, 0, -1, 0, 896)" gradientUnits="userSpaceOnUse"><stop offset="0.17" stop-color="#d71b60"/><stop offset="0.25" stop-color="#b51d5f"/><stop offset="0.38" stop-color="#86205d"/><stop offset="0.51" stop-color="#5f225b"/><stop offset="0.64" stop-color="#41245a"/><stop offset="0.76" stop-color="#2b2559"/><stop offset="0.88" stop-color="#1e2658"/><stop offset="0.99" stop-color="#1a2658"/></linearGradient><linearGradient id="linear-gradient-3" x1="253.49" y1="733.53" x2="298.26" y2="733.53" gradientTransform="matrix(1, 0, 0, -1, 0, 896)" gradientUnits="userSpaceOnUse"><stop offset="0" stop-color="#fec2b9"/><stop offset="0.05" stop-color="#fec3bb"/><stop offset="0.54" stop-color="#ffcdc8"/><stop offset="0.99" stop-color="#ffd0cc"/></linearGradient><linearGradient id="linear-gradient-4" x1="302.75" y1="714.69" x2="321.24" y2="761.37" gradientTransform="matrix(1, 0, 0, -1, 0, 896)" gradientUnits="userSpaceOnUse"><stop offset="0" stop-color="#00c2ff"/><stop offset="0.08" stop-color="#00a4ef"/><stop offset="0.2" stop-color="#007dda"/><stop offset="0.32" stop-color="#005fca"/><stop offset="0.44" stop-color="#0049be"/><stop offset="0.55" stop-color="#003cb7"/><stop offset="0.66" stop-color="#0038b5"/></linearGradient><linearGradient id="linear-gradient-5" x1="341.64" y1="630.32" x2="359.59" y2="721.99" gradientTransform="matrix(1, 0, 0, -1, 0, 896)" gradientUnits="userSpaceOnUse"><stop offset="0" stop-color="#01a3ff"/><stop offset="1" stop-color="#0139a2"/></linearGradient><linearGradient id="linear-gradient-6" x1="287.53" y1="770.5" x2="338.66" y2="738.01" xlink:href="#linear-gradient-3"/><linearGradient id="linear-gradient-7" x1="322.9" y1="703.12" x2="405.36" y2="799.1" xlink:href="#linear-gradient-4"/><linearGradient id="linear-gradient-8" x1="236.5" y1="736.97" x2="256.92" y2="736.97" xlink:href="#linear-gradient-3"/><linearGradient id="linear-gradient-9" x1="318.94" y1="834.5" x2="374.15" y2="834.5" xlink:href="#linear-gradient-3"/><linearGradient id="linear-gradient-10" x1="299.69" y1="648.12" x2="328.69" y2="464.13" xlink:href="#linear-gradient-2"/><linearGradient id="linear-gradient-11" x1="278.7" y1="787.5" x2="286.98" y2="771.57" xlink:href="#linear-gradient-3"/></defs><title>character_02-02</title><g class="cls-2"><g id="Layer_4" data-name="Layer 4"><path class="cls-3" d="M686.67,377.31s80.71,114.47-36,200c0,0-293.55,198.73-542.75-19.54,0,0-99.61-90.94-8.29-173,0,0,41.17-44.82,185.29-84.38,0,0,91.94-17.39,151.9-98C468.72,159.47,586.33,36,649,239.66,659.49,273.82,654,334.22,686.67,377.31Z"/></g></g><g id="_2nd_character" data-name=" 2nd character"><path class="cls-4" d="M375.66,485.06s-96.83-.84-113.33-1.43c0,0-104.84-1.43-118.83-1.2h-.36c-5.62,0-10,2.87-10,6.46s3.83,6,8.85,6.46h.12s7.65,3,66.47,1a309.14,309.14,0,0,1,42-1s132.69,3.59,142.49-4.18C392.87,491.28,404.11,485.54,375.66,485.06Z"/><path class="cls-5" d="M510.62,290.68s-77.1,83.92-29.29,163.18C481.34,453.86,542.06,397.32,510.62,290.68Z"/><path class="cls-6" d="M510.62,290.68s-18.77,102.45-29.29,163.18C481.34,453.86,542.06,397.32,510.62,290.68Z"/><path d="M505.6,316.51,483,442.62C486.6,430.91,499.15,361.57,505.6,316.51Z"/><path class="cls-7" d="M419.77,319.61s-9.8,104,55.95,136.28C475.72,455.89,494.25,378,419.77,319.61Z"/><path class="cls-6" d="M419.77,319.61S459,412.26,475.72,455.89C475.72,455.89,494.25,378,419.77,319.61Z"/><path d="M426.11,334.68,472.85,448.6C473.45,448.48,443,372.21,426.11,334.68Z"/><polygon points="430.41 379.38 447.63 387.15 448.46 389.19 430.41 379.38"/><polygon points="450.49 357.51 443.08 374.72 443.8 376.63 450.49 357.51"/><polygon points="461.13 383.57 453.72 400.78 454.44 402.7 461.13 383.57"/><polygon points="472.01 410.82 464.72 428.04 465.44 429.95 472.01 410.82"/><polygon points="441.89 406.64 458.98 414.41 459.7 416.32 441.89 406.64"/><line class="cls-1" x1="430.41" y1="379.38" x2="447.39" y2="387.16"/><polygon points="486.24 352.73 496.04 371.73 496.4 369.46 486.24 352.73"/><polygon points="515.88 339.7 499.75 353.68 500.22 351.41 515.88 339.7"/><polygon points="509.31 378.07 493.17 392.06 493.65 389.79 509.31 378.07"/><polygon points="503.57 407.72 487.43 421.7 487.91 419.43 503.57 407.72"/><polygon points="479.9 389.19 489.7 408.07 490.06 405.92 479.9 389.19"/><path class="cls-6" d="M555.21,319.61s9.92,104-55.83,136.28C499.27,455.89,480.74,378,555.21,319.61Z"/><path class="cls-7" d="M555.21,319.61s-39.09,92.65-55.83,136.28C499.27,455.89,480.74,378,555.21,319.61Z"/><path d="M548.88,334.68,502.14,448.6C501.54,448.48,531.9,372.21,548.88,334.68Z"/><polygon points="544.57 379.38 527.36 387.15 526.52 389.19 544.57 379.38"/><polygon points="524.49 357.51 531.9 374.72 531.18 376.63 524.49 357.51"/><polygon points="513.85 383.57 521.14 400.78 520.54 402.7 513.85 383.57"/><polygon points="502.97 410.82 510.26 428.04 509.55 429.95 502.97 410.82"/><polygon points="533.1 406.64 516 414.41 515.29 416.32 533.1 406.64"/><path class="cls-8" d="M393.59,486.38c0,5.14-17.81,9.44-39.69,9.44s-39.69-4.18-39.69-9.44V482h79.5Z"/><line class="cls-9" x1="278.83" y1="203.18" x2="291.02" y2="468.56"/><path id="Right_leg" data-name="Right leg" class="cls-10" d="M343.38,267.49l-67.54,83.08a39.21,39.21,0,0,0-10,27.49s.36,6.34,1.08,12.43c0,0,1,5.5-3.59,16.62l-25.7,58.81s-1.91,3.83-11.83,4.3l1.08-5.86,17.09-99.46a71.72,71.72,0,0,1,5.74-14.7L270,304.43l9.56-23Z"/><rect class="cls-11" x="15" y="16.81" width="175.37" height="125.82" rx="17.45" ry="17.45"/><path id="hair" class="cls-12" d="M325.81,3.78c-1.31,1.2-.84,3.59.6,4.66a8.13,8.13,0,0,0,5.14,1.2c5.14-.12,10.28-1.08,15.54-1.43s10.52-.12,15.3,1.91a13.51,13.51,0,0,1,6.22,5,8,8,0,0,1,.6,7.77c-1.08,2.15-3.35,3.47-4.42,5.62s-1,4.66-.72,7.05L366.46,67c-11.83-8.85-21.52-20.92-35.27-26.54-3.71-1.55-7.53-2.51-11.24-3.83a27,27,0,0,1-10.16-6,14.94,14.94,0,0,1-3.23-4.78,12.43,12.43,0,0,1-.84-2.75,11,11,0,0,1-.12-1.43V20.28a3.82,3.82,0,0,1,0-1.08l.36-1.31a19.61,19.61,0,0,1,1-2.63,19.84,19.84,0,0,1,3-4.66,19.13,19.13,0,0,1,2.63-2.51A19.72,19.72,0,0,1,325.81,3.78Z"/><rect class="cls-13" x="66.64" y="47.53" width="13.51" height="16.44"/><rect class="cls-14" x="109.68" y="31.99" width="13.51" height="16.44"/><rect class="cls-15" x="151.76" y="38.33" width="13.51" height="16.44"/><rect class="cls-16" x="126.41" y="55.78" width="13.51" height="16.44"/><rect class="cls-16" x="143.63" y="74.31" width="13.51" height="16.44"/><rect class="cls-17" x="162.28" y="69.29" width="13.51" height="16.44"/><path class="cls-18" d="M290.9,174.85,255,155.12l-1.55-4.42s4.06-1.43,11.24,0l28.57,3.83s8.73,5.86,2.87,16.5c0,0-2,4.3-5.26,3.83"/><polygon class="cls-19" points="91.87 92.12 84.57 124.28 135.5 138.63 143.75 105.75 91.87 92.12"/><path id="right_hand" data-name="right hand" class="cls-20" d="M293.06,154.29s2.15,12.31-2.15,20.56c0,0,20.08,4.78,31.68,3.59,0,0,11.36-18.53,18.53-47.46l-15.3-30.6s-8,16.5-19.13,54.63Z"/><path id="chest" class="cls-21" d="M352.11,78.5s-19.72,10.16-26.3,21.88c0,0-1.55,3.47,1.2,27.26,0,0,7.53,74-10.64,114,0,0,4.66-7.05,35.74.72,0,0,34,10.64,36.46,1.2,0,0,17.69-42.08,24.27-104.12,0,0,6.34-37.18-2.39-47.46C410.33,92.12,383.43,63.55,352.11,78.5Z"/><path id="left_albow" data-name="left albow" class="cls-22" d="M331.55,165.16l-51-41.48,9-5.26,49.73,28.21S346.73,157,331.55,165.16Z"/><path id="left_hand" data-name="left hand" class="cls-23" d="M337.53,145.56s1.31,6.93-7.77,18.17l23.07,18.17s3.11,2.15,5.14,0l40-46.26s22.23-23.19,13.87-33.71c0,0-12.55-15.42-25.22-2.27,0,0-4.66,3.94-36.94,53.2Z"/><path id="right_palm" data-name="right palm" class="cls-24" d="M257,156.2l-1.55-.84a1.79,1.79,0,0,0-1.79.84s-1.67,6.1-8.85,4.66c0,0-1.79-.48-4.18,6.46l-3.94-4.66s2.51-9,17-11.83C253.49,150.7,257,150,257,156.2Z"/><path id="Mobile" class="cls-25" d="M272.61,107.31,265,89.14s-1.2-2.51,0-3.83l5.86-2.87,1.91-.72A2.27,2.27,0,0,1,275.67,83l0,.14,11.12,26.9H273.69Z"/><path class="cls-26" d="M161.08,185h85.47c.48,0,1-.6.84-1.55l-12.55-57.26a2.27,2.27,0,0,0-2.15-1.67H147.09a1.31,1.31,0,0,0-1.43,1.67l13.15,57.14A2.27,2.27,0,0,0,161.08,185Z"/><path class="cls-27" d="M160.48,186.08h82a1.31,1.31,0,0,0,1.31-1.67l-12.67-58.22a2.27,2.27,0,0,0-2.15-1.67H147.09a1.31,1.31,0,0,0-1.31,1.67l12.67,58.22A2.27,2.27,0,0,0,160.48,186.08Z"/><path class="cls-27" d="M162.52,185H245.6a1.79,1.79,0,0,1,1.79,1.79h0a1.79,1.79,0,0,1-1.79,1.79H162.52a1.79,1.79,0,0,1-1.79-1.79h0A1.79,1.79,0,0,1,162.52,185Z"/><rect class="cls-28" x="243.92" y="185.01" width="41.72" height="3.59" rx="1.2" ry="1.2"/><rect class="cls-29" x="146.5" y="189.43" width="161.26" height="6.97" rx="0.6" ry="0.6"/><rect class="cls-30" x="158.69" y="196.37" width="134.25" height="6.78"/><line class="cls-9" x1="175.55" y1="203.18" x2="162.04" y2="468.56"/><path id="left_shoes" data-name="left shoes" class="cls-31" d="M312.66,421.22l-28.09,31.08s-2.75,2.87-2.63,0c0,0-.72-5.62,10.28-27.85l1.2-3.11,6.46-5.86a3.71,3.71,0,0,1,4.66-.72A39.69,39.69,0,0,1,312.66,421.22Z"/><path id="right_shoes" data-name="right shoes" class="cls-32" d="M237.83,466.89s-1.67,3.71-12.19,4.18L202.44,490.8s-3.71,3.35-.6,3.83l41.36-14a1.55,1.55,0,0,0,1-2.15Z"/><path class="cls-33" d="M394.55,291.4c0,4.9-18.53,8.85-41.48,8.85s-41.48-3.94-41.48-8.85v-11.6h82.84Z"/><ellipse class="cls-34" cx="353.07" cy="279.81" rx="41.48" ry="8.85"/><ellipse class="cls-35" cx="354.02" cy="412.86" rx="32.75" ry="6.57"/><ellipse class="cls-36" cx="353.78" cy="482.19" rx="39.81" ry="9.44"/><ellipse class="cls-37" cx="489.34" cy="499.53" rx="54.39" ry="6.57"/><path class="cls-36" d="M441.77,429.83v39.81c0,20.56,21.16,30.36,47.1,30.36s47-9.8,47-30.36V429.83Z"/><polygon class="cls-38" points="91.75 91.77 84.57 124.28 135.38 138.27 143.75 105.75 91.75 91.77"/><polygon class="cls-13" points="34.25 79.09 37.95 111.49 91.75 104.68 86.01 71.08 34.25 79.09"/><polygon class="cls-38" points="33.17 79.09 37.95 111.49 91.15 104.32 86.01 71.08 33.17 79.09"/><polygon class="cls-38" points="80.15 47.53 79.91 63.79 66.64 64.03 66.64 47.53 80.15 47.53"/><polygon class="cls-38" points="123.19 31.99 122.83 48.13 109.68 48.49 109.68 31.99 123.19 31.99"/><polygon class="cls-38" points="165.15 38.33 164.91 54.59 151.76 54.83 151.76 38.33 165.15 38.33"/><polygon class="cls-38" points="139.92 55.78 139.56 71.8 126.41 72.16 126.41 55.78 139.92 55.78"/><polygon class="cls-38" points="157.02 74.31 156.78 90.45 143.63 90.69 143.63 74.31 157.02 74.31"/><polygon class="cls-38" points="175.78 69.29 175.55 85.43 162.28 85.79 162.28 69.29 175.78 69.29"/><circle class="cls-17" cx="83.98" cy="73.48" r="0.48"/><circle class="cls-17" cx="34.96" cy="80.65" r="0.48"/><circle class="cls-17" cx="93.54" cy="94.99" r="0.48"/><circle class="cls-17" cx="140.04" cy="107.19" r="0.48"/><circle class="cls-17" cx="73.46" cy="48.73" r="0.24"/><circle class="cls-17" cx="116.49" cy="33.19" r="0.24"/><circle class="cls-17" cx="158.57" cy="39.88" r="0.24"/><circle class="cls-17" cx="132.87" cy="57.1" r="0.24"/><circle class="cls-17" cx="150.12" cy="75.6" r="0.24" transform="matrix(0.79, -0.61, 0.61, 0.79, -14.78, 108.16)"/><circle class="cls-17" cx="169.25" cy="70.75" r="0.24" transform="translate(-7.76 118.89) rotate(-37.9)"/><path class="cls-39" d="M353.31,48.37s-2.87-2.39-7.89-13c0,0-2.51-6.34-14-6.69,0,0-11.12.24-9.8,6.69,0,0,1.91,8,2.15,10.52,0,0,1.2,6-2.87,8.13,0,0-2.75,1.91-1.91,3.71a3.35,3.35,0,0,0,3.11,2.15s3.23-.12,3.71,6.34l.24,4.54s0,7.89,6.22,5.5l7.53-2.87s8.37-3.83,13.39,5.14l8.13,14.11s2.51,3.59,6.34.48c0,0,6.46-4.66,6.46-15.66,0,0,.48-1.67-2.87-4.66L357.37,55.42a1.2,1.2,0,0,1,.54-1.6l.18-.07s4.66-1.67,4.06-5.14c0,0-.48-4.42-4.42-5.14,0,0-3.83-.48-3.83,2.51C353.9,45.86,354.26,48.61,353.31,48.37Z"/><path class="cls-40" d="M147.21,124.64l.24-.24h-.36a1.31,1.31,0,0,0-1.31,1.67l12.55,58.34a2.27,2.27,0,0,0,2.15,1.67h49.73C210,185.85,150.8,128.35,147.21,124.64Z"/><line class="cls-41" x1="161.8" y1="202.58" x2="147.45" y2="486.85"/><path id="left_leg" data-name="left leg" class="cls-42" d="M248.71,305.15l13.75,13.15s17.21,11.12,19.13,19.72c0,0,.48,3.47.72,7.65a378,378,0,0,0,14.23,49.73s3.83,18.29,3.71,18.41L295,419l-2.15,1.67-75-126.24a2.25,2.25,0,0,1,1-3.47l84.28-39.21a31.92,31.92,0,0,0,16.62-18.89s38.25,13,60.73,14.11c0,0,6.46,1,8-3.23,0,0,6.57,33.11-31.68,42.08,0,0-70.77,18.29-107.59,19.49"/><line class="cls-41" x1="289.95" y1="202.1" x2="303.93" y2="487.21"/><path class="cls-4" d="M314.1,482.19c0,5.14,17.81,9.44,39.81,9.44h4.9c-4.78-5.26-8.25-12.31-12-18.53C328.08,473.82,314.1,477.65,314.1,482.19Z"/><line class="cls-43" x1="353.07" y1="300.25" x2="353.07" y2="479.68"/><path class="cls-44" d="M463,496.06a77,77,0,0,0,25.7,3.94c25.94,0,47-9.8,47-30.36V440.35C511.94,459.36,487.31,477.41,463,496.06Z"/><path class="cls-45" d="M273.57,82.68a2.39,2.39,0,0,0-2.63-.36l-5.86,2.87c-1.2.84,0,3.94,0,3.94l7.65,18.29,1.2,2.75,10.64-1.31S274.89,83.88,273.57,82.68Z"/><rect class="cls-4" x="268.3" y="86.14" width="3.35" height="1.37" rx="0.12" ry="0.12" transform="translate(-10.81 126.65) rotate(-25.9)"/><rect class="cls-46" x="268.34" y="86.37" width="1.91" height="1.37" rx="0.12" ry="0.12" transform="translate(-10.98 126.38) rotate(-25.9)"/><rect class="cls-47" x="268.77" y="86.82" width="0.12" height="1" transform="translate(-11.14 126.19) rotate(-25.9)"/><path class="cls-48" d="M286.84,100.49s-.48,1.55,1.08,4.06c0,0,4.42,5.14,1.67,13.39,0,0-2.87,8.85-9.2,5.74,0,0-9.09-3.83-10.64-9.56,0,0-1.67-.72-2-1.67s-.48-1.91,2.51-1.31c0,0,1.55-.36.12-1.08s-3-.24-3-2,0-1.91,4.54-.6c0,0,3.94,1.31,2.27-.48a7.29,7.29,0,0,0-5.26-2s-2,0-1.31-2.15c0,0,.12-1,3.83-.36,0,0,3.35.36,4.9.72s4.18-.48-9.32-4.3c0,0-2.39-.24-2.39-1.55s-.6-1.55,3.35-1.31a32.87,32.87,0,0,1,8.85,2.39,14.46,14.46,0,0,1,4.78,3.71s3.11,3.94,3,.72c0,0-.24-2.39.24-3.11a1.31,1.31,0,0,1,1.75-.62l0,0S287.44,99.18,286.84,100.49Z"/></g></svg>