<svg xmlns="http://www.w3.org/2000/svg" xmlns:xlink="http://www.w3.org/1999/xlink" viewBox="0 0 451 433"><defs><style>.cls-1{fill:#dcebf2;}.cls-2{fill:#daebf0;}.cls-17,.cls-28,.cls-29,.cls-3,.cls-30,.cls-31,.cls-38,.cls-5,.cls-6{fill:none;}.cls-3{stroke:#1cd3ff;stroke-width:5px;}.cls-28,.cls-29,.cls-3,.cls-30,.cls-31,.cls-6{stroke-linecap:round;stroke-linejoin:round;}.cls-4{fill:#01c1fe;}.cls-17,.cls-5,.cls-6{stroke:#020000;}.cls-17,.cls-38,.cls-5{stroke-miterlimit:10;}.cls-28,.cls-5{stroke-width:3px;}.cls-17,.cls-6{stroke-width:4px;}.cls-7{fill:#020000;}.cls-8{fill:#9f9e99;}.cls-9{fill:#cccbc5;}.cls-10{fill:url(#linear-gradient);}.cls-11{fill:#9e9d98;}.cls-12{fill:#d3d6cd;}.cls-13{fill:#00c6fe;}.cls-14{fill:#0078ed;}.cls-15{fill:#37dafd;}.cls-16{fill:#002751;}.cls-18{fill:#9f9e98;}.cls-19{fill:url(#linear-gradient-2);}.cls-20{fill:#002958;}.cls-21{fill:#002854;}.cls-22{fill:url(#linear-gradient-3);}.cls-23{fill:url(#linear-gradient-4);}.cls-24{fill:url(#linear-gradient-5);}.cls-25{fill:#ffcdcc;}.cls-26{fill:url(#linear-gradient-6);}.cls-27{fill:url(#linear-gradient-7);}.cls-28{stroke:url(#linear-gradient-8);}.cls-29{stroke-width:2.5px;stroke:url(#linear-gradient-9);}.cls-30{stroke-width:2.2px;stroke:url(#linear-gradient-10);}.cls-31{stroke-width:2px;stroke:url(#linear-gradient-11);}.cls-32{fill:#eeead2;}.cls-33{fill:#d4d4c8;}.cls-34{fill:#fefffe;}.cls-35{fill:#025176;}.cls-36{fill:#d1cfc7;}.cls-37{fill:#002756;}.cls-38{stroke:#cdcac5;stroke-width:16px;}.cls-39{fill:url(#linear-gradient-12);}.cls-40{fill:#cdcac5;}.cls-41{fill:#c0aeac;}.cls-42{fill:#eeebd4;}</style><linearGradient id="linear-gradient" x1="309.32" y1="375.35" x2="259.09" y2="228.64" gradientUnits="userSpaceOnUse"><stop offset="0" stop-color="#01c1fe"/><stop offset="1" stop-color="#0138cb"/></linearGradient><linearGradient id="linear-gradient-2" x1="192.86" y1="271.66" x2="329.31" y2="271.66" gradientUnits="userSpaceOnUse"><stop offset="0" stop-color="#01c1fe"/><stop offset="1" stop-color="#0186f5"/></linearGradient><linearGradient id="linear-gradient-3" x1="339.89" y1="49.24" x2="298.44" y2="136" gradientUnits="userSpaceOnUse"><stop offset="0.23" stop-color="#fed1b9"/><stop offset="0.25" stop-color="#fed1bb"/><stop offset="0.48" stop-color="#ffd0c8"/><stop offset="0.68" stop-color="#ffd0cc"/></linearGradient><linearGradient id="linear-gradient-4" x1="176.3" y1="175.85" x2="273.52" y2="129.92" gradientUnits="userSpaceOnUse"><stop offset="0.17" stop-color="#fe7458"/><stop offset="0.26" stop-color="#f6625a"/><stop offset="0.46" stop-color="#ea445d"/><stop offset="0.64" stop-color="#e02e5f"/><stop offset="0.83" stop-color="#db2161"/><stop offset="0.99" stop-color="#d91d61"/></linearGradient><linearGradient id="linear-gradient-5" x1="274.85" y1="53.67" x2="236.78" y2="68.45" gradientUnits="userSpaceOnUse"><stop offset="0" stop-color="#fec2b9"/><stop offset="0.05" stop-color="#fec3bb"/><stop offset="0.54" stop-color="#ffcdc8"/><stop offset="0.99" stop-color="#ffd0cc"/></linearGradient><linearGradient id="linear-gradient-6" x1="277.37" y1="168.78" x2="277.22" y2="118.32" xlink:href="#linear-gradient-5"/><linearGradient id="linear-gradient-7" x1="319.23" y1="178.27" x2="333.53" y2="178.27" xlink:href="#linear-gradient-5"/><linearGradient id="linear-gradient-8" x1="328.52" y1="182.06" x2="343.11" y2="182.06" gradientTransform="translate(72.6 -93.9) rotate(17.8)" gradientUnits="userSpaceOnUse"><stop offset="0" stop-color="#ffd0cc"/><stop offset="1" stop-color="#fec2b9"/></linearGradient><linearGradient id="linear-gradient-9" x1="327.06" y1="185.89" x2="341.56" y2="185.89" gradientTransform="translate(72.6 -93.9) rotate(17.8)" gradientUnits="userSpaceOnUse"><stop offset="0" stop-color="#ffd0cc"/><stop offset="0.97" stop-color="#fec2b9"/></linearGradient><linearGradient id="linear-gradient-10" x1="327.67" y1="188.86" x2="339.14" y2="188.86" xlink:href="#linear-gradient-8"/><linearGradient id="linear-gradient-11" x1="325.21" y1="190.84" x2="332.52" y2="190.84" gradientTransform="translate(72.6 -93.9) rotate(17.8)" gradientUnits="userSpaceOnUse"><stop offset="0" stop-color="#ffd0cc"/><stop offset="0.42" stop-color="#ffd0cc"/><stop offset="1" stop-color="#fec2b9"/></linearGradient><linearGradient id="linear-gradient-12" x1="235.04" y1="89.18" x2="250.74" y2="81.76" xlink:href="#linear-gradient-4"/></defs><title>character_01</title><g id="Layer_2" data-name="Layer 2"><path class="cls-1" d="M262.8,416.6s6.7-.4,5.7,1.4c0,0-5.7,5.5,5.1,5.8,0,0,75.4.8,162.2-4.9,0,0,12.4-.5,5.2-6.1a106.2,106.2,0,0,0-22.2-12.5s-4.9-1.3-15.4-.7c0,0-33.1,0-46.7-3,0,0-59.6-3.1-84.8,0,0,0-38.2-.1-69.7,11.6,0,0-9.3,4-2.2,6.8C199.8,414.8,207.3,417,262.8,416.6Z"/><path class="cls-2" d="M36,417.8s-29.6,2.1-29-2.5c0,0,.1-.8,5.2-1.2,0,0,38.1-7.5,98.1-3,0,0,9.6,1,13.3,6.5,0,0,1,1.8-5.7,1.8,0,0-80.8,2.9-75.7.6C42.3,419.8,47.2,416.9,36,417.8Z"/><path class="cls-3" d="M418.8,158.5v14.3s-.6,4.4,6.5,3.9"/><path class="cls-3" d="M431.8,158.9v8s0,5.2-6.5,4.3"/><line class="cls-3" x1="425.3" y1="150.3" x2="425.3" y2="191.8"/><path class="cls-4" d="M425.2,147.8a2.5,2.5,0,0,0-2.3,2.5v41.5a2.5,2.5,0,0,0,2.5,2.5C425.8,194.3,425.2,147.8,425.2,147.8Z"/><ellipse class="cls-5" cx="235.3" cy="343.8" rx="31.9" ry="10"/><line class="cls-6" x1="235.3" y1="249.3" x2="235.3" y2="400"/><path class="cls-7" d="M272.5,404.1c0,5.1-16.7,9.2-37.2,9.2s-37.2-4.1-37.2-9.2v-3.2h74.5Z"/><ellipse class="cls-8" cx="235.3" cy="400.9" rx="37.3" ry="9.2"/><path class="cls-9" d="M247.5,392.2c-3.8-.3-7.9-.5-12.2-.5-20.6,0-37.2,4.1-37.2,9.2s13.6,8.4,31.4,9.1Z"/><path class="cls-10" d="M233.5,229.3l54.8,63.3s4.4,6.2,4.6,22.2c0,0,1.2,12.2,4.7,20.3l17.7,46.7,9,2.8-16.7-86.3a11.7,11.7,0,0,0-4-10.2l-18.2-41.7Z"/><path id="Chair" class="cls-11" d="M271.9,240c0,5.2-16.4,9.3-36.6,9.3s-36.6-4.2-36.6-9.3V228.2h73.2Z"/><ellipse id="Chair-2" data-name="Chair" class="cls-12" cx="235.3" cy="228.2" rx="36.6" ry="9.3"/><path class="cls-13" d="M110,231.7S90,260.8,80.1,316H71.7S72.1,262.8,110,231.7Z"/><path class="cls-14" d="M75.3,316h4.7c8.7-48.5,25.2-76.8,29.1-83C97.9,245.7,81.1,275.1,75.3,316Z"/><path class="cls-15" d="M90.5,274.7c-2.6-2.1-5.1-4.4-7.5-6.7-1.7,3.8-3.2,7.6-4.4,11.3a102,102,0,0,0,8.6,6C88.3,281.5,89.4,278,90.5,274.7Z"/><path class="cls-13" d="M51.9,241.3s16,39.4,11,78.5l9.4-7.9S74.4,269.1,51.9,241.3Z"/><path class="cls-14" d="M69.4,314.3c-1.5-25.8-5.9-49.2-16.9-71.5,2.8,7.5,14.9,42.4,10.4,77Z"/><path class="cls-15" d="M63.3,291.4c.2,2.4.3,4.8.4,7.3a50.1,50.1,0,0,0,7.9-3.1c-.3-3-.7-6.2-1.3-9.6A15.6,15.6,0,0,1,63.3,291.4Z"/><path class="cls-13" d="M127.9,287s-40,15.7-47.3,30.5L76.9,307S100.4,287,127.9,287Z"/><path class="cls-14" d="M80.6,317.5c6.5-13.3,40.7-27.8,47.3-30.5-18.1,2.8-37.8,13.8-50,22.8Z"/><path class="cls-13" d="M137.8,251.7S83.8,294.3,83,314l-11-4S88.7,267.2,137.8,251.7Z"/><path class="cls-14" d="M76.9,311.8,83,314c.7-17,43.9-53.4,54.8-62.3C113.3,265,90.8,284.5,76.9,311.8Z"/><path class="cls-13" d="M89.9,210.8S78,239.5,80.1,316l-8.9,11.5S57.9,247.3,89.9,210.8Z"/><path class="cls-14" d="M74.6,322l5.4-6c-1.7-63.3,6.2-93.9,8.9-102.6C72.2,246.1,76.8,286.1,74.6,322Z"/><path class="cls-13" d="M28.4,254.6s36.4,39.5,36.8,64.8L70.8,306S59.3,270.9,28.4,254.6Z"/><path class="cls-14" d="M28.4,254.6s36.4,39.5,36.8,64.8l2.6-6.3C64.4,288.7,29.1,255,28.4,254.6Z"/><path class="cls-13" d="M45.1,292.3a43,43,0,0,0-12.8-4,122.9,122.9,0,0,1,12.3,8.3A5.9,5.9,0,0,0,45.1,292.3Z"/><path class="cls-13" d="M51.5,302.4a9.5,9.5,0,0,0,2.4-4.7,57.4,57.4,0,0,0-8.8-5.3,5.9,5.9,0,0,1-.5,4.3C46.8,298.3,49.2,300.3,51.5,302.4Z"/><path class="cls-13" d="M57.8,300.7l-3.9-3.1a9.5,9.5,0,0,1-2.4,4.7l3,2.9A9.2,9.2,0,0,0,57.8,300.7Z"/><path class="cls-13" d="M60.8,303.4l-3-2.7a9.2,9.2,0,0,1-3.3,4.6l2.2,2.4A13.2,13.2,0,0,0,60.8,303.4Z"/><path class="cls-13" d="M65.9,309a57,57,0,0,0-5.2-5.6,13.2,13.2,0,0,1-4,4.3,34,34,0,0,1,6.6,10.4Z"/><path class="cls-14" d="M45,295.8a96.9,96.9,0,0,0-12.6-7.4c2,1.2,7.8,5,12.2,8.3Z"/><path class="cls-14" d="M52.2,301.4a83.1,83.1,0,0,0-7.3-5.7l-.4.9c2.3,1.7,4.7,3.6,7,5.6Z"/><path class="cls-14" d="M55.5,304.4l-3.3-3-.7.9c1.1.9,2,2,3,2.9Z"/><path class="cls-14" d="M55.5,304.4l-.8.7,2.4,2.4.9-.7Z"/><path class="cls-14" d="M66.4,315c-2.8-2.6-5.6-5.4-8.5-8.2l-1.2,1c3.6,3.8,7,7.6,8.4,11.7Z"/><path class="cls-16" d="M314.6,383.8l-4.8,7s-1.4,2.1,1.6,3.2L344,405s2-1.1-3.9-5.6l-15.6-12.6Z"/><polyline class="cls-17" points="311.1 203 301.3 203 285 413.3"/><polyline class="cls-17" points="437.3 413.3 421.7 203 411.8 203"/><line class="cls-17" x1="411.8" y1="203" x2="424.9" y2="398.7"/><line class="cls-17" x1="311.1" y1="203" x2="297.5" y2="398.7"/><line class="cls-17" x1="411.8" y1="203" x2="311.1" y2="203"/><rect class="cls-18" x="285" y="196.6" width="155" height="4.44" rx="2" ry="2"/><path class="cls-19" d="M193.2,198.8l63.3,5.2v1.3L327.8,238s2.5,1.1,1,3.8L268.5,344.5s-8-5.6-7.9-5.8l18.9-50.1s3.2-16,12.5-23.2c0,0,10.2-11,12.3-13.7,0,0-36-5-74-13.8C230.3,238,188.9,230.3,193.2,198.8Z"/><path class="cls-20" d="M259.6,339.4l-6.7,3.4s-2.2,1,.4,3.7l23.1,24.8s2.4-1.8,0-7.2l-8.7-18.3Z"/><path id="Hair" class="cls-21" d="M231.3,106.6s-8.7,5.7-14,2.6a3.4,3.4,0,0,1,.3-5.1s5.8-3.7.1-6.2a43,43,0,0,1-6.2-2.9s-4.7-2.2.5-6.8l6.3-5.3s3.3-2.5-.8-6.1c0,0-5.9-5.4-3.2-8.2a48.4,48.4,0,0,1,8.1-4.7s4.6-1.2,2.2-9.6c0,0-9.7-26,11.3-42.8,0,0,8.8-6.6,22.9-6.9,0,0,24.9-2.1,31.9,16.3,0,0,2.3,7-1.4,9.4,0,0,10,9.1,9.9,31.1,0,0,.4,25.5-22.7,24.4,0,0,8.6,14.1-5.1,16.1Z"/><path id="left_hand" data-name="left hand" class="cls-22" d="M266.8,104.8,285,159.3h55.8a3.8,3.8,0,0,1,3.4,2.5s1.9,3.6-3.2,4.6l-17,3.2-59.2-1.3-13.2-59Z"/><path id="Upper_cloth" data-name="Upper cloth" class="cls-23" d="M255,78s5.1,1,7.8,10c0,0,1.5,5.8,9.6,15.6,0,0,8,8.2,4.4,17.6,0,0-2.2,6.3-10.4,11.8,0,0-9.4,46.7-9.8,72.5L192.9,201s-.6-3,4.1-11.6l22.3-36.7s2.3-2.7,2.4-12.1c0,0-.4-37.1,4.3-45.2a71.5,71.5,0,0,1,7.9-12S242.5,72.5,255,78Z"/><path id="Face" class="cls-24" d="M254.7,87.3S257,76.5,261.3,73c0,0,1.2-1.2,3.4,0,0,0,7,6.7,10.2.6,0,0,.7-.9,1.3-6.1s2.4-6.3,5.3-7.9c0,0,3.1-1.2,1.2-3.7,0,0-5.4-4.5-3.3-10.7,0,0,4.6-9,.1-13,0,0-6.6-5.3-14.9,0,0,0-6,3.3-11.5,16.2,0,0-1.3-.3-2.1-3,0,0-.1-1.6-2.5-1.3,0,0-5,0-4.3,6.3,0,0,.3,3.4,4.7,4.1,0,0,1,.1.5,1.8,0,0-3.2,7.3-6.7,22.1Z"/><path class="cls-25" d="M351.9,177s-9.3-2.4-10.6-6.4c0,0-3.7-7,0-11.3,0,0,6.2-1.3,15.9,7.4Z"/><path id="right_hand" data-name="right hand" class="cls-26" d="M266.3,160.3l-14-57.2c-1.3-5.8-5.4-10.5-11.4-10.5s-11.9,5.1-11.4,11.4a31.8,31.8,0,0,0,1,4.7l19,65.3s.9,4,3.3,4l67-1.7,5.3-2.8-.3-3Z"/><path class="cls-27" d="M332.8,174.8s-6.8-7.4-11.2-3.3c0,0-3.9,2.5-1.5,8.8,0,0,3.1,6.1,7.6,6.1,0,0,0,.5,2.4-1.9a14.7,14.7,0,0,0,3.5-7.8A1.9,1.9,0,0,0,332.8,174.8Z"/><path class="cls-28" d="M340.8,187.7s-.2-6.6-8.7-10.8"/><path class="cls-29" d="M338.3,191.4s-2-8.3-8.8-11.8"/><path class="cls-30" d="M335.3,193.3a25.5,25.5,0,0,0-6.3-10.7"/><path class="cls-31" d="M328.6,192.9s-.5-5.5-2.7-8.9"/><path class="cls-32" d="M399.6,196.6l-55.4-.7a1.7,1.7,0,0,1-1.7-2.3L355,154a3.4,3.4,0,0,1,3.1-2.2l55.4.7a1.7,1.7,0,0,1,1.7,2.3l-12.5,39.6A3.4,3.4,0,0,1,399.6,196.6Z"/><path class="cls-33" d="M400.1,196.6l-53.8-.7a1.7,1.7,0,0,1-1.6-2.3l12.4-39.4a3.8,3.8,0,0,1,3.8-2.4l52.8.7a1.7,1.7,0,0,1,1.6,2.3l-12.1,39.6A3.3,3.3,0,0,1,400.1,196.6Z"/><circle class="cls-34" cx="383.8" cy="174.5" r="3.3"/><path class="cls-35" d="M436.3,185.6a11.1,11.1,0,0,1-22.2,0v-5.1h22.3Z"/><ellipse class="cls-36" cx="72.4" cy="320.9" rx="23.3" ry="17.7"/><path class="cls-37" d="M436.3,185.6a11.1,11.1,0,0,1-14.9,10.5l14.9-15.5Z"/><rect class="cls-38" x="37.3" y="346.7" width="69" height="60.47"/><path class="cls-11" d="M83.6,305.5c-.6,13-12.5,25.8-26.4,28.9a27.8,27.8,0,0,0,15.2,4.3c12.8,0,23.3-7.9,23.3-17.7C95.6,314.3,90.8,308.5,83.6,305.5Z"/><path class="cls-15" d="M44.6,296.6l.4-.9a6.3,6.3,0,0,0,.1-3.5l-3.5-1.5a3.6,3.6,0,0,1,.5,3.1,1.9,1.9,0,0,1-.4.7Z"/><path class="cls-15" d="M60.8,303.4l-3-2.7a9.2,9.2,0,0,1-3.3,4.6l2.2,2.4A13.2,13.2,0,0,0,60.8,303.4Z"/><path class="cls-15" d="M51.5,302.4a9.6,9.6,0,0,0,2.4-4.7l-3.7-2.5a5.4,5.4,0,0,1-1.6,4.7Z"/><path class="cls-15" d="M38.8,261.3a14.2,14.2,0,0,1-1.5,3.8l3.2,4.1a27.8,27.8,0,0,0,2.9-4.1C41.9,263.8,40.4,262.5,38.8,261.3Z"/><path class="cls-15" d="M49.7,271.3a21.8,21.8,0,0,1-2.9,6.5c1.5,2.2,3,4.4,4.5,6.7a28.5,28.5,0,0,0,3.4-7.3C53.1,275.2,51.5,273.2,49.7,271.3Z"/><path class="cls-15" d="M60.8,285.8a19.9,19.9,0,0,1-4,8c1.4,2.5,2.6,5.1,3.7,7.6a24,24,0,0,0,4.8-7.6C64.1,291.4,62.6,288.7,60.8,285.8Z"/><path class="cls-15" d="M55.7,246.4l-1.5,1.1c.5,1.6,1.2,3.5,1.8,5.7a13.4,13.4,0,0,0,2.1-3Z"/><path class="cls-15" d="M67,271.2c-.8-2.8-1.8-5.6-2.9-8.4a12.1,12.1,0,0,1-4.5,4.6c.6,2.5,1.1,5.2,1.6,8A22.6,22.6,0,0,0,67,271.2Z"/><path class="cls-15" d="M88.7,214.5l-1-.9-2,2.8,2.1,1.5Z"/><path class="cls-15" d="M84.8,231.1q-2.6-2.1-5.1-4.4a93,93,0,0,0-3.8,9.6l7.3,5C83.7,237.5,84.3,234.1,84.8,231.1Z"/><path class="cls-15" d="M81.1,261.6a113,113,0,0,1-9.9-6.8c-.9,5.1-1.5,10.3-2,15.4a45.3,45.3,0,0,0,11,6.9Q80.6,268.7,81.1,261.6Z"/><path class="cls-15" d="M79.9,290.1a81.6,81.6,0,0,1-11.4-4.4c-.1,4.4,0,8.5.1,12.5a115.4,115.4,0,0,0,11.2,2.9Q79.8,295.4,79.9,290.1Z"/><path class="cls-15" d="M104.4,241.3l2.1-4-1.2-1.6-3.4,3.4Z"/><path class="cls-15" d="M94.2,248.5c-2,2.7-3.7,5.4-5.4,8.1,1.7,2.5,3.6,4.9,5.5,7.2,1.2-3.1,2.4-6.1,3.5-8.8A60.8,60.8,0,0,1,94.2,248.5Z"/><path class="cls-15" d="M95.2,277.2a112,112,0,0,0-8.7,9.5,84,84,0,0,0,6.1,8.9c1.9-2.5,4.1-5,6.3-7.5C97.7,284.4,96.6,280.7,95.2,277.2Z"/><path class="cls-15" d="M115.3,271.5c-1.2-2.6-2.2-5.2-3.2-7.7-2.9,1.8-5.5,3.8-8.1,5.7a65.1,65.1,0,0,0,3.7,9.3Z"/><path class="cls-15" d="M129.6,258.5l-1.9-3.1-5.6,2.6c.8,1.6,1.6,3.3,2.4,5Z"/><path class="cls-15" d="M116.2,288.2c.1,1.2.3,2.4.5,3.7l5.3-2.4q0-1.1,0-2.2Z"/><path class="cls-15" d="M96,295.1c-2.5,1.2-4.7,2.4-6.8,3.6,0,3.1-.2,6.3-.1,9.4a83.3,83.3,0,0,1,6.8-4.9C95.8,300.4,95.9,297.6,96,295.1Z"/><path class="cls-15" d="M110.6,294.9a33.2,33.2,0,0,1-1.3-5c-2.5.7-4.9,1.6-7.2,2.5.1,2.2.2,4.5.5,6.8Z"/><path class="cls-39" d="M256.4,89.5S250,77.2,245.2,77c0,0-8-1.1-10.4,2.5,0,0-4.2,6.9,3.1,8.3,0,0,8.9,1,14,.4C251.9,88.2,253.8,87.8,256.4,89.5Z"/><path class="cls-40" d="M400.1,196.6a3.3,3.3,0,0,0,3-2.2l10.9-35.8-49,37.6Z"/><rect class="cls-41" x="343.1" y="193.4" width="59.9" height="3.19" rx="1.6" ry="1.6"/><rect class="cls-42" x="318" y="193.4" width="27.3" height="3.19" rx="1.4" ry="1.4"/></g></svg>