<svg id="Layer_1" data-name="Layer 1" xmlns="http://www.w3.org/2000/svg" xmlns:xlink="http://www.w3.org/1999/xlink" viewBox="0 0 733 771.5"><defs><style>.cls-1,.cls-19,.cls-30,.cls-31,.cls-32,.cls-33,.cls-40,.cls-6,.cls-8,.cls-9{fill:none;}.cls-2{clip-path:url(#clip-path);}.cls-3{fill:url(#linear-gradient);}.cls-4{fill:#dcebf2;}.cls-5{fill:#daebf0;}.cls-6{stroke:#1cd3ff;stroke-width:7.43px;}.cls-30,.cls-31,.cls-32,.cls-33,.cls-6,.cls-9{stroke-linecap:round;stroke-linejoin:round;}.cls-7{fill:#01c1fe;}.cls-19,.cls-8,.cls-9{stroke:#020000;}.cls-19,.cls-40,.cls-8{stroke-miterlimit:10;}.cls-30,.cls-8{stroke-width:4.46px;}.cls-19,.cls-9{stroke-width:5.95px;}.cls-10{fill:#020000;}.cls-11{fill:#9f9e99;}.cls-12{fill:#cccbc5;}.cls-13{fill:url(#linear-gradient-2);}.cls-14{fill:#9e9d98;}.cls-15{fill:#d3d6cd;}.cls-16{fill:#00c6fe;}.cls-17{fill:#37dafd;}.cls-18{fill:#002751;}.cls-20{fill:#9f9e98;}.cls-21{fill:url(#linear-gradient-3);}.cls-22{fill:#002958;}.cls-23{fill:#002854;}.cls-24{fill:url(#linear-gradient-4);}.cls-25{fill:url(#linear-gradient-5);}.cls-26{fill:url(#linear-gradient-6);}.cls-27{fill:#ffcdcc;}.cls-28{fill:url(#linear-gradient-7);}.cls-29{fill:url(#linear-gradient-8);}.cls-30{stroke:url(#linear-gradient-9);}.cls-31{stroke-width:3.72px;stroke:url(#linear-gradient-10);}.cls-32{stroke-width:3.27px;stroke:url(#linear-gradient-11);}.cls-33{stroke-width:2.97px;stroke:url(#linear-gradient-12);}.cls-34{fill:#eeead2;}.cls-35{fill:#d4d4c8;}.cls-36{fill:#fefffe;}.cls-37{fill:#025176;}.cls-38{fill:#d1cfc7;}.cls-39{fill:#002756;}.cls-40{stroke:#cdcac5;stroke-width:23.78px;}.cls-41{fill:url(#linear-gradient-13);}.cls-42{fill:#cdcac5;}.cls-43{fill:#c0aeac;}.cls-44{fill:#eeebd4;}</style><clipPath id="clip-path"><rect class="cls-1" x="0.15" y="137.99" width="629" height="642"/></clipPath><linearGradient id="linear-gradient" x1="-99.95" y1="458.63" x2="616.3" y2="458.63" gradientUnits="userSpaceOnUse"><stop offset="0" stop-color="#3f96ff"/><stop offset="1" stop-color="#0052aa"/></linearGradient><linearGradient id="linear-gradient-2" x1="530.12" y1="589.38" x2="455.46" y2="807.44" gradientTransform="matrix(1, 0, 0, -1, 0, 1142)" gradientUnits="userSpaceOnUse"><stop offset="0" stop-color="#01c1fe"/><stop offset="1" stop-color="#0138cb"/></linearGradient><linearGradient id="linear-gradient-3" x1="357.03" y1="743.5" x2="559.76" y2="743.5" gradientTransform="matrix(1, 0, 0, -1, 0, 1142)" gradientUnits="userSpaceOnUse"><stop offset="0" stop-color="#01c1fe"/><stop offset="1" stop-color="#0186f5"/></linearGradient><linearGradient id="linear-gradient-4" x1="575.43" y1="1074.12" x2="513.82" y2="945.17" gradientTransform="matrix(1, 0, 0, -1, 0, 1142)" gradientUnits="userSpaceOnUse"><stop offset="0.23" stop-color="#fed1b9"/><stop offset="0.25" stop-color="#fed1bb"/><stop offset="0.48" stop-color="#ffd0c8"/><stop offset="0.68" stop-color="#ffd0cc"/></linearGradient><linearGradient id="linear-gradient-5" x1="332.47" y1="885.7" x2="476.97" y2="953.97" gradientTransform="matrix(1, 0, 0, -1, 0, 1142)" gradientUnits="userSpaceOnUse"><stop offset="0.17" stop-color="#fe7458"/><stop offset="0.26" stop-color="#f6625a"/><stop offset="0.46" stop-color="#ea445d"/><stop offset="0.64" stop-color="#e02e5f"/><stop offset="0.83" stop-color="#db2161"/><stop offset="0.99" stop-color="#d91d61"/></linearGradient><linearGradient id="linear-gradient-6" x1="478.86" y1="1067.49" x2="422.28" y2="1045.52" gradientTransform="matrix(1, 0, 0, -1, 0, 1142)" gradientUnits="userSpaceOnUse"><stop offset="0" stop-color="#fec2b9"/><stop offset="0.05" stop-color="#fec3bb"/><stop offset="0.54" stop-color="#ffcdc8"/><stop offset="0.99" stop-color="#ffd0cc"/></linearGradient><linearGradient id="linear-gradient-7" x1="482.61" y1="896.4" x2="482.39" y2="971.4" xlink:href="#linear-gradient-6"/><linearGradient id="linear-gradient-8" x1="544.82" y1="882.17" x2="566.09" y2="882.17" xlink:href="#linear-gradient-6"/><linearGradient id="linear-gradient-9" x1="475.58" y1="945.89" x2="497.26" y2="945.89" gradientTransform="matrix(0.95, 0.31, 0.31, -0.95, -181.65, 1017.68)" gradientUnits="userSpaceOnUse"><stop offset="0" stop-color="#ffd0cc"/><stop offset="1" stop-color="#fec2b9"/></linearGradient><linearGradient id="linear-gradient-10" x1="473.41" y1="940.2" x2="494.94" y2="940.2" gradientTransform="matrix(0.95, 0.31, 0.31, -0.95, -181.65, 1017.68)" gradientUnits="userSpaceOnUse"><stop offset="0" stop-color="#ffd0cc"/><stop offset="0.97" stop-color="#fec2b9"/></linearGradient><linearGradient id="linear-gradient-11" x1="474.32" y1="935.94" x2="491.36" y2="935.94" xlink:href="#linear-gradient-9"/><linearGradient id="linear-gradient-12" x1="470.66" y1="933.01" x2="481.52" y2="933.01" gradientTransform="matrix(0.95, 0.31, 0.31, -0.95, -181.65, 1017.68)" gradientUnits="userSpaceOnUse"><stop offset="0" stop-color="#ffd0cc"/><stop offset="0.42" stop-color="#ffd0cc"/><stop offset="1" stop-color="#fec2b9"/></linearGradient><linearGradient id="linear-gradient-13" x1="419.67" y1="1014.76" x2="443" y2="1025.79" xlink:href="#linear-gradient-5"/></defs><title>character_01-01</title><g class="cls-2"><path class="cls-3" d="M-75.78,287.89c8.07-17.15,39.17-83.23,113.46-117.55,15.8-7.3,90.09-41.62,153-11,83.23,40.46,57.6,151.31,135.16,206.19,66.7,47.19,138.37-41.15,218.45,1.87,41.8,22.45,75.34,71.35,76.65,115.27,4.12,137.07-301.24,369.2-527.6,259.06C-71.44,661.51-140.79,426-75.78,287.89Z"/></g><path class="cls-4" d="M460.95,613.94s10-.59,8.47,2.08c0,0-8.47,8.17,7.58,8.62,0,0,112.07,1.19,241.08-7.28,0,0,18.43-.74,7.73-9.07a157.85,157.85,0,0,0-33-18.58s-7.28-1.93-22.89-1c0,0-49.2,0-69.41-4.46,0,0-88.58-4.61-126,0,0,0-56.78-.15-103.6,17.24,0,0-13.82,5.95-3.27,10.11C367.31,611.26,378.46,614.53,460.95,613.94Z"/><path class="cls-5" d="M123.85,615.72s-44,3.12-43.1-3.72c0,0,.15-1.19,7.73-1.78,0,0,56.63-11.15,145.81-4.46,0,0,14.27,1.49,19.77,9.66,0,0,1.49,2.68-8.47,2.68,0,0-120.09,4.31-112.51.89C133.22,618.69,140.5,614.38,123.85,615.72Z"/><path class="cls-6" d="M692.81,230.32v21.25s-.89,6.54,9.66,5.8"/><path class="cls-6" d="M712.13,230.91V242.8s0,7.73-9.66,6.39"/><line class="cls-6" x1="702.47" y1="218.13" x2="702.47" y2="279.81"/><path class="cls-7" d="M702.32,214.42a3.72,3.72,0,0,0-3.42,3.72v61.68a3.72,3.72,0,0,0,3.72,3.72C703.22,283.53,702.32,214.42,702.32,214.42Z"/><ellipse class="cls-8" cx="420.07" cy="505.73" rx="47.41" ry="14.86"/><line class="cls-9" x1="420.07" y1="365.28" x2="420.07" y2="589.26"/><path class="cls-10" d="M475.36,595.36c0,7.58-24.82,13.67-55.29,13.67s-55.29-6.09-55.29-13.67V590.6H475.51Z"/><ellipse class="cls-11" cx="420.07" cy="590.6" rx="55.44" ry="13.67"/><path class="cls-12" d="M438.21,577.67c-5.65-.45-11.74-.74-18.13-.74-30.62,0-55.29,6.09-55.29,13.67s20.21,12.49,46.67,13.53Z"/><path class="cls-13" d="M417.4,335.55l81.45,94.08s6.54,9.22,6.84,33c0,0,1.78,18.13,7,30.17L539,562.21l13.38,4.16L527.53,438.11a17.39,17.39,0,0,0-5.95-15.16l-27.05-62Z"/><path id="Chair" class="cls-14" d="M474.47,351.45c0,7.73-24.38,13.82-54.4,13.82s-54.4-6.24-54.4-13.82V333.91h108.8Z"/><ellipse id="Chair-2" class="cls-15" cx="420.07" cy="333.91" rx="54.4" ry="13.82"/><path class="cls-16" d="M233.84,339.12s-29.73,43.25-44.44,125.3H176.91S177.51,385.34,233.84,339.12Z"/><path class="cls-17" d="M204.86,403c-3.86-3.12-7.58-6.54-11.15-10a169.64,169.64,0,0,0-6.54,16.8A151.61,151.61,0,0,0,200,418.78C201.59,413.14,203.22,407.93,204.86,403Z"/><path class="cls-16" d="M147.48,353.39s23.78,58.56,16.35,116.68l14-11.74S180.93,394.71,147.48,353.39Z"/><path class="cls-17" d="M164.43,427.85c.3,3.57.45,7.13.59,10.85a74.46,74.46,0,0,0,11.74-4.61c-.45-4.46-1-9.22-1.93-14.27A23.19,23.19,0,0,1,164.43,427.85Z"/><path class="cls-16" d="M260.44,421.31s-59.45,23.34-70.3,45.33L184.64,451S219.57,421.31,260.44,421.31Z"/><path class="cls-16" d="M275.16,368.84s-80.26,63.32-81.45,92.6l-16.35-5.95S202.18,391.88,275.16,368.84Z"/><path class="cls-16" d="M204,308.05s-17.69,42.66-14.57,156.36l-13.23,17.09S156.4,362.3,204,308.05Z"/><path class="cls-16" d="M112.56,373.15s54.1,58.71,54.7,96.31l8.32-19.92S158.48,397.38,112.56,373.15Z"/><path class="cls-16" d="M137.38,429.19a63.91,63.91,0,0,0-19-5.95,182.66,182.66,0,0,1,18.28,12.34A8.77,8.77,0,0,0,137.38,429.19Z"/><path class="cls-16" d="M146.89,444.2a14.12,14.12,0,0,0,3.57-7,85.31,85.31,0,0,0-13.08-7.88,8.77,8.77,0,0,1-.74,6.39A123.28,123.28,0,0,1,146.89,444.2Z"/><path class="cls-16" d="M156.25,441.67l-5.8-4.61a14.12,14.12,0,0,1-3.57,7l4.46,4.31A13.67,13.67,0,0,0,156.25,441.67Z"/><path class="cls-16" d="M160.71,445.69l-4.46-4a13.67,13.67,0,0,1-4.9,6.84l3.27,3.57A19.62,19.62,0,0,0,160.71,445.69Z"/><path class="cls-16" d="M168.29,454a84.72,84.72,0,0,0-7.73-8.32,19.62,19.62,0,0,1-5.95,6.39,50.53,50.53,0,0,1,9.81,15.46Z"/><path class="cls-18" d="M537.94,565.19l-7.13,10.4s-2.08,3.12,2.38,4.76l48.45,16.35s3-1.63-5.8-8.32l-23.19-18.73Z"/><polyline class="cls-19" points="532.74 296.46 518.17 296.46 493.94 609.03"/><polyline class="cls-19" points="720.31 609.03 697.12 296.46 682.41 296.46"/><line class="cls-19" x1="682.41" y1="296.46" x2="701.88" y2="587.33"/><line class="cls-19" x1="532.74" y1="296.46" x2="512.52" y2="587.33"/><line class="cls-19" x1="682.41" y1="296.46" x2="532.74" y2="296.46"/><rect class="cls-20" x="493.94" y="286.95" width="230.38" height="6.6" rx="2.97" ry="2.97"/><path class="cls-21" d="M357.5,290.22l94.08,7.73v1.93l106,48.6s3.72,1.63,1.49,5.65L469.42,506.77s-11.89-8.32-11.74-8.62l28.09-74.46s4.76-23.78,18.58-34.48c0,0,15.16-16.35,18.28-20.36,0,0-53.51-7.43-110-20.51C412.64,348.48,351.11,337,357.5,290.22Z"/><path class="cls-22" d="M456.19,499.19l-10,5.05s-3.27,1.49.59,5.5l34.33,36.86s3.57-2.68,0-10.7l-12.93-27.2Z"/><path id="Hair" class="cls-23" d="M414.13,153.18s-12.93,8.47-20.81,3.86a5.05,5.05,0,0,1,.45-7.58s8.62-5.5.15-9.22a63.91,63.91,0,0,1-9.22-4.31s-7-3.27.74-10.11l9.36-7.88s4.9-3.72-1.19-9.07c0,0-8.77-8-4.76-12.19a71.94,71.94,0,0,1,12-7s6.84-1.78,3.27-14.27c0,0-14.42-38.64,16.8-63.61,0,0,13.08-9.81,34-10.26,0,0,37-3.12,47.41,24.23,0,0,3.42,10.4-2.08,14,0,0,14.86,13.53,14.71,46.22,0,0,.59,37.9-33.74,36.27,0,0,12.78,21-7.58,23.93Z"/><path id="left_hand" data-name="left hand" class="cls-24" d="M466.89,150.5l27.05,81h82.94a5.65,5.65,0,0,1,5.05,3.72s2.82,5.35-4.76,6.84l-25.27,4.76-88-1.93L444.3,157.19Z"/><path id="Upper_cloth" data-name="Upper cloth" class="cls-25" d="M449.35,110.67s7.58,1.49,11.59,14.86c0,0,2.23,8.62,14.27,23.19,0,0,11.89,12.19,6.54,26.16,0,0-3.27,9.36-15.46,17.54,0,0-14,69.41-14.57,107.76l-94.68-6.69s-.89-4.46,6.09-17.24l33.14-54.55s3.42-4,3.57-18c0,0-.59-55.14,6.39-67.18A106.27,106.27,0,0,1,418,118.7S430.78,102.5,449.35,110.67Z"/><path id="Face" class="cls-26" d="M448.91,124.49s3.42-16.05,9.81-21.25c0,0,1.78-1.78,5.05,0,0,0,10.4,10,15.16.89,0,0,1-1.34,1.93-9.07s3.57-9.36,7.88-11.74c0,0,4.61-1.78,1.78-5.5,0,0-8-6.69-4.9-15.9,0,0,6.84-13.38.15-19.32,0,0-9.81-7.88-22.15,0,0,0-8.92,4.9-17.09,24.08,0,0-1.93-.45-3.12-4.46,0,0-.15-2.38-3.72-1.93,0,0-7.43,0-6.39,9.36,0,0,.45,5.05,7,6.09,0,0,1.49.15.74,2.68,0,0-4.76,10.85-10,32.85Z"/><path class="cls-27" d="M593.38,257.82s-13.82-3.57-15.75-9.51c0,0-5.5-10.4,0-16.8,0,0,9.22-1.93,23.63,11Z"/><path id="right_hand" data-name="right hand" class="cls-28" d="M466.15,233l-20.81-85c-1.93-8.62-8-15.61-16.94-15.61s-17.69,7.58-16.94,16.94a47.27,47.27,0,0,0,1.49,7l28.24,97.06s1.34,5.95,4.9,5.95l99.58-2.53,7.88-4.16-.45-4.46Z"/><path class="cls-29" d="M565,254.55s-10.11-11-16.65-4.9c0,0-5.8,3.72-2.23,13.08,0,0,4.61,9.07,11.3,9.07,0,0,0,.74,3.57-2.82a21.85,21.85,0,0,0,5.2-11.59A2.82,2.82,0,0,0,565,254.55Z"/><path class="cls-30" d="M576.88,273.72s-.3-9.81-12.93-16.05"/><path class="cls-31" d="M573.16,279.22s-3-12.34-13.08-17.54"/><path class="cls-32" d="M568.71,282a37.9,37.9,0,0,0-9.36-15.9"/><path class="cls-33" d="M558.75,281.45s-.74-8.17-4-13.23"/><path class="cls-34" d="M664.28,286.95l-82.34-1a2.53,2.53,0,0,1-2.53-3.42L598,223.63a5.05,5.05,0,0,1,4.61-3.27l82.34,1a2.53,2.53,0,0,1,2.53,3.42l-18.58,58.86A5.05,5.05,0,0,1,664.28,286.95Z"/><path class="cls-35" d="M665,286.95l-80-1a2.53,2.53,0,0,1-2.38-3.42l18.43-58.56a5.65,5.65,0,0,1,5.65-3.57l78.48,1a2.53,2.53,0,0,1,2.38,3.42l-18,58.86A4.9,4.9,0,0,1,665,286.95Z"/><circle class="cls-36" cx="640.79" cy="254.1" r="4.9"/><path class="cls-37" d="M718.82,270.6a16.5,16.5,0,0,1-33,0V263H719Z"/><ellipse class="cls-38" cx="177.95" cy="471.7" rx="34.63" ry="26.31"/><path class="cls-39" d="M718.82,270.6a16.5,16.5,0,0,1-22.15,15.61l22.15-23Z"/><rect class="cls-40" x="125.78" y="510.04" width="102.56" height="89.88"/><path class="cls-14" d="M194.6,448.81c-.89,19.32-18.58,38.35-39.24,43A41.32,41.32,0,0,0,178,498.15c19,0,34.63-11.74,34.63-26.31C212.44,461.89,205.3,453.27,194.6,448.81Z"/><path class="cls-17" d="M136.63,435.58l.59-1.34a9.36,9.36,0,0,0,.15-5.2l-5.2-2.23a5.35,5.35,0,0,1,.74,4.61,2.82,2.82,0,0,1-.59,1Z"/><path class="cls-17" d="M160.71,445.69l-4.46-4a13.67,13.67,0,0,1-4.9,6.84l3.27,3.57A19.62,19.62,0,0,0,160.71,445.69Z"/><path class="cls-17" d="M146.89,444.2a14.27,14.27,0,0,0,3.57-7L145,433.5a8,8,0,0,1-2.38,7Z"/><path class="cls-17" d="M128,383.11a21.11,21.11,0,0,1-2.23,5.65l4.76,6.09a41.32,41.32,0,0,0,4.31-6.09C132.62,386.83,130.39,384.9,128,383.11Z"/><path class="cls-17" d="M144.21,398a32.4,32.4,0,0,1-4.31,9.66c2.23,3.27,4.46,6.54,6.69,10a42.36,42.36,0,0,0,5.05-10.85C149.27,403.77,146.89,400.8,144.21,398Z"/><path class="cls-17" d="M160.71,419.53a29.58,29.58,0,0,1-5.95,11.89c2.08,3.72,3.86,7.58,5.5,11.3a35.67,35.67,0,0,0,7.13-11.3C165.62,427.85,163.39,423.84,160.71,419.53Z"/><path class="cls-17" d="M153.13,361l-2.23,1.63c.74,2.38,1.78,5.2,2.68,8.47a19.92,19.92,0,0,0,3.12-4.46Z"/><path class="cls-17" d="M169.93,397.83c-1.19-4.16-2.68-8.32-4.31-12.49a18,18,0,0,1-6.69,6.84c.89,3.72,1.63,7.73,2.38,11.89A33.59,33.59,0,0,0,169.93,397.83Z"/><path class="cls-17" d="M202.18,313.55l-1.49-1.34-3,4.16,3.12,2.23Z"/><path class="cls-17" d="M196.38,338.23q-3.86-3.12-7.58-6.54A138.23,138.23,0,0,0,183.16,346L194,353.39C194.75,347.74,195.64,342.68,196.38,338.23Z"/><path class="cls-17" d="M190.88,383.56a168,168,0,0,1-14.71-10.11c-1.34,7.58-2.23,15.31-3,22.89a67.33,67.33,0,0,0,16.35,10.26Q190.14,394.11,190.88,383.56Z"/><path class="cls-17" d="M189.1,425.92a121.28,121.28,0,0,1-16.94-6.54c-.15,6.54,0,12.63.15,18.58A171.52,171.52,0,0,0,189,442.27Q189,433.8,189.1,425.92Z"/><path class="cls-17" d="M225.52,353.39l3.12-5.95-1.78-2.38-5.05,5.05Z"/><path class="cls-17" d="M210.36,364.09c-3,4-5.5,8-8,12,2.53,3.72,5.35,7.28,8.17,10.7,1.78-4.61,3.57-9.07,5.2-13.08A90.37,90.37,0,0,1,210.36,364.09Z"/><path class="cls-17" d="M211.84,406.74a166.47,166.47,0,0,0-12.93,14.12A124.85,124.85,0,0,0,208,434.09c2.82-3.72,6.09-7.43,9.36-11.15C215.56,417.45,213.92,411.95,211.84,406.74Z"/><path class="cls-17" d="M241.72,398.27c-1.78-3.86-3.27-7.73-4.76-11.44-4.31,2.68-8.17,5.65-12,8.47a96.76,96.76,0,0,0,5.5,13.82Z"/><path class="cls-17" d="M263,379l-2.82-4.61-8.32,3.86c1.19,2.38,2.38,4.9,3.57,7.43Z"/><path class="cls-17" d="M243.05,423.09c.15,1.78.45,3.57.74,5.5l7.88-3.57v-3.27Z"/><path class="cls-17" d="M213,433.35c-3.72,1.78-7,3.57-10.11,5.35,0,4.61-.3,9.36-.15,14a123.81,123.81,0,0,1,10.11-7.28C212.73,441.23,212.88,437.07,213,433.35Z"/><path class="cls-17" d="M234.73,433.05a49.35,49.35,0,0,1-1.93-7.43,113.13,113.13,0,0,0-10.7,3.72c.15,3.27.3,6.69.74,10.11Z"/><path class="cls-41" d="M451.44,127.76s-9.51-18.28-16.65-18.58c0,0-11.89-1.63-15.46,3.72,0,0-6.24,10.26,4.61,12.34,0,0,13.23,1.49,20.81.59C444.75,125.83,447.57,125.24,451.44,127.76Z"/><path class="cls-42" d="M665,286.95a4.9,4.9,0,0,0,4.46-3.27l16.2-53.21-72.83,55.89Z"/><path class="cls-43" d="M582.68,282.19H667a2.37,2.37,0,0,1,2.38,2.37h0a2.37,2.37,0,0,1-2.38,2.37H582.68a2.37,2.37,0,0,1-2.38-2.37h0A2.37,2.37,0,0,1,582.68,282.19Z"/><rect class="cls-44" x="542.99" y="282.19" width="40.58" height="4.74" rx="2.08" ry="2.08"/><rect class="cls-5" x="132.33" y="518.67" width="90.83" height="75.83"/></svg>