<svg xmlns="http://www.w3.org/2000/svg" viewBox="0 0 37 47"><title>client</title><g id="Layer_4" data-name="Layer 4"><path d="M1.85,38.14a.84.84,0,0,0,.84-.84V32.67a2.43,2.43,0,0,1,.88-1.88A52.8,52.8,0,0,1,13,24.72a1.12,1.12,0,0,0,.63-1V17.19a.82.82,0,0,0-.37-.69,2.22,2.22,0,0,1-1-1.84V7.92a5.25,5.25,0,0,1,5.25-5.25H19a5.25,5.25,0,0,1,5.25,5.25v6.75a2.19,2.19,0,0,1-1,1.84.83.83,0,0,0-.37.69v6.51a1.13,1.13,0,0,0,.63,1A51.89,51.89,0,0,1,33,30.79a2.43,2.43,0,0,1,.88,1.88v4.63a.84.84,0,1,0,1.67,0V32.68A4.08,4.08,0,0,0,34,29.51a54.21,54.21,0,0,0-9.47-6.12V17.62a3.88,3.88,0,0,0,1.36-2.95V7.92A6.93,6.93,0,0,0,19,1H17.53a6.93,6.93,0,0,0-6.92,6.92v6.75A3.9,3.9,0,0,0,12,17.62v5.77A54.21,54.21,0,0,0,2.5,29.51,4.11,4.11,0,0,0,1,32.68v4.63a.87.87,0,0,0,.85.83Zm0,0"/><path d="M20.5,24.75a.84.84,0,0,0-.84.84,1.39,1.39,0,0,1-.46,1,.7.7,0,0,0-.16.13,1.36,1.36,0,0,1-.79.24,1.41,1.41,0,0,1-1.41-1.41.84.84,0,0,0-1.67,0,3.09,3.09,0,0,0,.7,1.95L15.2,43.2a.84.84,0,0,0,.28.65l2.14,1.94a.81.81,0,0,0,.56.21.85.85,0,0,0,.56-.21l2.18-2a.84.84,0,0,0,.28-.65l-.7-15.48a3.07,3.07,0,0,0,.84-2.09.83.83,0,0,0-.83-.85ZM18.2,44l-1.3-1.17.62-14.32a2.86,2.86,0,0,0,.74.09,2.75,2.75,0,0,0,.62-.06l.64,14.25Zm0,0"/></g></svg>