<svg xmlns="http://www.w3.org/2000/svg" viewBox="0 0 124.83 36.19"><defs><style>.cls-1,.cls-2{fill:#828282;}.cls-2{font-size:17.78px;font-family:Calibri-BoldItalic, Calibri;font-weight:700;font-style:italic;}.cls-3{letter-spacing:-0.01em;}</style></defs><title>codeigniter_logo</title><g id="Layer_2" data-name="Layer 2"><path class="cls-1" d="M15.33.34A8.53,8.53,0,0,1,19,9.22c-.24.92-.54,1.82-.74,2.75a3.89,3.89,0,0,0,.63,3.34,2.47,2.47,0,0,0,2.46,1,2.36,2.36,0,0,0,2-1.51,1.33,1.33,0,0,0,0-1.07,15.88,15.88,0,0,1,4.78,3.53c4.33,4.79,4,11.09-.82,15.4A16,16,0,0,1,21.36,36a3.27,3.27,0,0,1-.42.11,1.54,1.54,0,0,1-.31,0,9.92,9.92,0,0,0,2.46-1.73,6.3,6.3,0,0,0,1.23-7.59A10.74,10.74,0,0,0,21.07,23c-1.29-1-2.7-1.74-4.05-2.62a19.18,19.18,0,0,1-1.85-1.3,3.65,3.65,0,0,1-1.7-3.29A4.31,4.31,0,0,0,12.19,21a9.56,9.56,0,0,0,1.68,2.3,3.2,3.2,0,0,1,.94,2.09,2.25,2.25,0,0,1-2.3,2.46,2.4,2.4,0,0,1-2.56-2.41c0-.36.07-.72.11-1.08C8.44,25,6.6,27.77,6.4,30.05c-.24,2.67,1.29,4.42,3.24,5.89a.18.18,0,0,1-.25.12C5.1,34.62,2,32,1.07,27.38A12.82,12.82,0,0,1,2.26,19.2,23.07,23.07,0,0,1,6.62,13.1c1.35-1.42,2.79-2.73,4.26-4a17.93,17.93,0,0,0,3.52-3.8C15.34,3.77,16,2.22,15.33.34Z"/><text class="cls-2" transform="translate(37.33 26.08)">CodeIgni<tspan class="cls-3" x="64.6" y="0">t</tspan><tspan x="70.61" y="0">er</tspan></text></g></svg>