<svg xmlns="http://www.w3.org/2000/svg" viewBox="0 0 133.98 39.83"><defs><style>.cls-1,.cls-3,.cls-4{fill:#45bdfe;}.cls-2,.cls-3,.cls-4{isolation:isolate;}.cls-3,.cls-4{font-size:19.31px;font-family:Calibri-BoldItalic, Calibri;font-weight:700;font-style:italic;}.cls-4{letter-spacing:-0.01em;}</style></defs><title>Website Workflow</title><g id="Layer_4" data-name="Layer 4"><g id="Layer_2-2" data-name="Layer 2"><path class="cls-1" d="M15.93.17a9.26,9.26,0,0,1,4,9.64c-.26,1-.59,2-.8,3a4.22,4.22,0,0,0,.68,3.63,2.68,2.68,0,0,0,2.67,1.09,2.56,2.56,0,0,0,2.17-1.64,1.44,1.44,0,0,0,0-1.16,17.25,17.25,0,0,1,5.19,3.83c4.7,5.2,4.34,12-.89,16.73a17.38,17.38,0,0,1-6.46,3.63A3.55,3.55,0,0,1,22,39a1.67,1.67,0,0,1-.34,0,10.77,10.77,0,0,0,2.67-1.88A6.84,6.84,0,0,0,25.7,28.9a11.66,11.66,0,0,0-3.53-4.12c-1.4-1.09-2.93-1.89-4.4-2.85a20.83,20.83,0,0,1-2-1.41A4,4,0,0,1,13.91,17a4.68,4.68,0,0,0-1.39,5.66,10.38,10.38,0,0,0,1.82,2.5,3.48,3.48,0,0,1,1,2.27A2.44,2.44,0,0,1,13.16,30h-.29a2.61,2.61,0,0,1-2.77-2.43q0-.1,0-.19a10.73,10.73,0,0,1,.12-1.17c-1.76.7-3.76,3.7-4,6.18-.26,2.9,1.4,4.8,3.52,6.4a.2.2,0,0,1-.24.14h0c-4.66-1.56-8-4.41-9-9.43a13.92,13.92,0,0,1,1.29-8.88A25.06,25.06,0,0,1,6.47,14c1.47-1.54,3-3,4.63-4.34a19.47,19.47,0,0,0,3.82-4.13C15.94,3.9,16.66,2.22,15.93.17Z"/><g class="cls-2"><text class="cls-3" transform="translate(39.82 28.13)">CodeIgni</text><text class="cls-4" transform="translate(109.99 28.13)">t</text><text class="cls-3" transform="translate(116.51 28.13)">er</text></g></g></g></svg>