<svg xmlns="http://www.w3.org/2000/svg" viewBox="0 0 94.33 33.08"><defs><style>.cls-1{fill:#828282;}</style></defs><title>coreldraw_logo</title><g id="Layer_2" data-name="Layer 2"><path class="cls-1" d="M16.91,10.63a34.76,34.76,0,0,1-.47,5.54,75.57,75.57,0,0,1-2.61,10.7,6.78,6.78,0,0,1-.32.85.26.26,0,0,1-.28.18H13c-.56,0-.56,0-.74-.53-.86-2.67-1.59-5.38-2.19-8.12-.33-1.53-.61-3.07-.8-4.63A31.11,31.11,0,0,1,9,10a15.31,15.31,0,0,1,1-5.58,5.34,5.34,0,0,1,1.43-2.13,2.1,2.1,0,0,1,3.23.28,7.31,7.31,0,0,1,1.59,3.11,15.42,15.42,0,0,1,.54,3.38C16.9,9.61,16.9,10.16,16.91,10.63Z"/><path class="cls-1" d="M11,1.52a9.05,9.05,0,0,0-2.25,1.3,7.64,7.64,0,0,0-2.61,4.1,13.13,13.13,0,0,0-.31,4.71,32.35,32.35,0,0,0,2.88,10,45.65,45.65,0,0,0,3.08,5.81l.09.15a5.22,5.22,0,0,1-.9-.71A24.49,24.49,0,0,1,6.8,21.43a27.13,27.13,0,0,1-3.14-7.65,15,15,0,0,1-.41-4.33A8.07,8.07,0,0,1,5.62,3.93a8.71,8.71,0,0,1,3-1.85,14.78,14.78,0,0,1,1.67-.51A1.91,1.91,0,0,1,11,1.52Z"/><path class="cls-1" d="M15.06,1.51a3.76,3.76,0,0,1,1.32.24,9.09,9.09,0,0,1,4.26,2.44,7.7,7.7,0,0,1,1.94,3.92A12.61,12.61,0,0,1,22.5,13a27.81,27.81,0,0,1-5.34,11.5,17.94,17.94,0,0,1-2.43,2.65,2.47,2.47,0,0,1-.56.38l.49-.81A45.76,45.76,0,0,0,19,17.16a26.32,26.32,0,0,0,1.11-4.9A14,14,0,0,0,19.89,7a7.72,7.72,0,0,0-4.61-5.38A.44.44,0,0,1,15.06,1.51Z"/><path class="cls-1" d="M10.59,27.22c-.23-.21-.47-.42-.7-.65A36.2,36.2,0,0,1,2.81,16.9a18.38,18.38,0,0,1-1.7-4.75,8.12,8.12,0,0,1,.26-4.63A8.34,8.34,0,0,1,5.7,3h.1l-.71.6A9.37,9.37,0,0,0,2.26,7.77a9.06,9.06,0,0,0-.37,3.48A16.92,16.92,0,0,0,4,17.74a44.53,44.53,0,0,0,4.28,6.48C9,25.23,9.82,26.21,10.59,27.22Z"/><path class="cls-1" d="M15.42,27.14l1.2-1.48a51.83,51.83,0,0,0,5.19-7.5A19.52,19.52,0,0,0,23.9,12.8,9.21,9.21,0,0,0,23,6a10.56,10.56,0,0,0-2.54-2.86L20.23,3c.06-.06.1,0,.13,0a8.26,8.26,0,0,1,4.44,5,7.65,7.65,0,0,1,.2,3.35A20.31,20.31,0,0,1,22.07,19a35.59,35.59,0,0,1-6.39,8A.47.47,0,0,1,15.42,27.14Z"/><path class="cls-1" d="M12.93,31.94H11.37c-.14,0-.21,0-.25-.18-.2-.78-.42-1.56-.64-2.33,0-.13,0-.18.13-.18l4.61,0c.15,0,.17,0,.14.18-.21.8-.41,1.59-.6,2.39,0,.15-.11.17-.23.17Z"/><path class="cls-1" d="M88.61,16.53,88,19.21c-.31,1.32-.62,2.63-.91,4-.05.25-.16.3-.38.29-.41,0-.82,0-1.23,0-.23,0-.31-.09-.35-.29q-.65-3.22-1.31-6.45-.24-1.16-.48-2.32c-.09-.44-.1-.44.34-.44s.67,0,1,0,.3.07.34.27q.36,2,.74,4c.13.69.26,1.38.42,2.08a6.81,6.81,0,0,0,.37-1.35q.55-2.33,1.08-4.66c0-.22.14-.3.36-.29q.7,0,1.41,0c.23,0,.3.08.35.3.42,2,.86,4,1.3,6a2.23,2.23,0,0,0,.09.24l.62-3.25c.19-1,.39-2,.58-3.07a.23.23,0,0,1,.26-.22c.38,0,.77,0,1.15,0s.29.11.24.33c-.2.94-.39,1.88-.59,2.81-.42,2-.86,4-1.27,6.05-.05.27-.16.33-.4.32s-.77,0-1.15,0c-.22,0-.31-.06-.36-.29-.5-2.22-1-4.44-1.53-6.65Z"/><path class="cls-1" d="M32.64,23.62a3.26,3.26,0,0,1-3.26-2.16,7,7,0,0,1-.14-5.2A3.61,3.61,0,0,1,33.91,14a3.32,3.32,0,0,1,2,2.39s0,.09,0,.1a2.4,2.4,0,0,1-.9.3c-.2.06-.19-.15-.23-.25a3.15,3.15,0,0,0-.59-1.06,2.38,2.38,0,0,0-3.6.45A4.35,4.35,0,0,0,30,18.1a6.23,6.23,0,0,0,.34,2.8,2.38,2.38,0,0,0,3.56,1.24,2.68,2.68,0,0,0,1-1.67c.06-.26.15-.34.43-.25.81.25.82.24.51,1a3.3,3.3,0,0,1-2.61,2.31C33,23.61,32.84,23.6,32.64,23.62Z"/><path class="cls-1" d="M53.9,18.74c0-1.45,0-2.91,0-4.36,0-.33.09-.44.42-.42.7,0,.59-.07.59.6,0,2.83,0,5.67,0,8.5,0,.34-.1.43-.42.41-.6,0-.6,0-.6-.62Q53.9,20.79,53.9,18.74Z"/><path class="cls-1" d="M44.66,17.49c.11-.18.22-.36.34-.53a1.25,1.25,0,0,1,1.78-.26.21.21,0,0,1,.11.27l-.07.2c-.07.2-.09.46-.23.59s-.35-.09-.55-.12a1,1,0,0,0-1,.52,3.08,3.08,0,0,0-.29,1.39c0,1.18,0,2.35,0,3.53,0,.27-.05.38-.35.37-.67,0-.67,0-.67-.66,0-1.94,0-3.89,0-5.83,0-.38.17-.39.45-.39s.52,0,.45.38a3.22,3.22,0,0,0,0,.5Z"/><path class="cls-1" d="M72.7,19.28A3,3,0,0,0,74,18.7a2.68,2.68,0,0,0,.84-2.21A2.33,2.33,0,0,0,72.4,14c-1.31-.07-2.62,0-3.93-.06-.34,0-.39.11-.39.41,0,1.91,0,3.82,0,5.73,0,1,0,2,0,3.06,0,.23.06.32.3.31a7.71,7.71,0,0,1,1,0c.29,0,.36-.08.36-.36,0-1.11,0-2.21,0-3.32,0-.14,0-.28.2-.3a1.63,1.63,0,0,1,1.68.79c.56,1,1.14,1.95,1.72,2.92.06.11.1.26.27.26h1.54C74.41,22.34,73.45,20.14,72.7,19.28ZM70,18c-.19,0-.21-.09-.21-.24,0-.64,0-1.27,0-1.91,0-.19.06-.25.25-.25h1.08c.35,0,.7,0,1,0a1,1,0,0,1,1,.93,1.92,1.92,0,0,1,0,.68,1,1,0,0,1-1.1.75C71.28,18,70.62,18,70,18Z"/><path class="cls-1" d="M66.13,15.91A2.87,2.87,0,0,0,63.32,14c-1.06,0-2.11,0-3.17,0-.28,0-.37.07-.37.36,0,1.47,0,2.93,0,4.4s0,2.93,0,4.4c0,.29.08.36.36.36,1,0,2.07,0,3.1,0a2.93,2.93,0,0,0,2.84-1.8A7.27,7.27,0,0,0,66.13,15.91ZM64.8,20.32a1.64,1.64,0,0,1-1.87,1.54c-.38,0-.77,0-1.15,0s-.33-.07-.33-.32c0-.95,0-1.9,0-2.85s0-1.87,0-2.81c0-.23.06-.32.3-.31.44,0,.89,0,1.33,0A1.67,1.67,0,0,1,64.77,17,7.72,7.72,0,0,1,64.8,20.32Z"/><path class="cls-1" d="M83.7,23.14c-.32-.85-.6-1.72-.9-2.58-.72-2.08-1.45-4.16-2.16-6.25-.09-.27-.22-.38-.51-.36a6.63,6.63,0,0,1-1,0,.41.41,0,0,0-.49.34c-.61,1.85-1.24,3.7-1.87,5.55l-1.21,3.62c.51,0,1,0,1.46,0,.24,0,.33-.08.39-.3.15-.53.34-1,.49-1.58.06-.2.13-.3.36-.29.92,0,1.85,0,2.77,0a.31.31,0,0,1,.35.26c.16.53.35,1,.5,1.57.07.24.18.36.45.34a8.8,8.8,0,0,1,1.12,0C83.73,23.48,83.8,23.43,83.7,23.14Zm-3.19-3.43H78.75c-.19,0-.23-.07-.18-.24l1-3.27,1.08,3.27C80.75,19.64,80.69,19.71,80.51,19.71Z"/><path class="cls-1" d="M51.68,21.26c-.16,0-.15.24-.22.38a1.49,1.49,0,0,1-1.82,1,2.18,2.18,0,0,1-1.38-2.15c0-.19.17-.14.27-.14h3.85c.22,0,.29-.06.29-.29a5,5,0,0,0-.24-1.7,2.52,2.52,0,0,0-2-1.84,2.48,2.48,0,0,0-2.61,1.14,4.06,4.06,0,0,0-.6,2,4.56,4.56,0,0,0,.52,2.68,2.64,2.64,0,0,0,2.71,1.25,2.53,2.53,0,0,0,2.13-1.93c0-.08.12-.23,0-.26A3.66,3.66,0,0,0,51.68,21.26ZM50.55,17.5a1.81,1.81,0,0,1,1.05,1.7c0,.19-.11.15-.21.15H48.58c-.14,0-.27,0-.25-.2A1.69,1.69,0,0,1,50.55,17.5Z"/><path class="cls-1" d="M42.35,18.5a2.69,2.69,0,0,0-2.3-2,2.54,2.54,0,0,0-2.79,1.69A5.08,5.08,0,0,0,37.33,22,2.42,2.42,0,0,0,39.6,23.6a2.57,2.57,0,0,0,2.52-1.47A4.31,4.31,0,0,0,42.51,20,4.74,4.74,0,0,0,42.35,18.5Zm-1.22,3.27a1.55,1.55,0,0,1-2.8,0,3.84,3.84,0,0,1-.34-2.2,2.54,2.54,0,0,1,.64-1.67,1.5,1.5,0,0,1,2.34.17,3.18,3.18,0,0,1,.51,2A3.53,3.53,0,0,1,41.13,21.77Z"/></g></svg>