<svg xmlns="http://www.w3.org/2000/svg" viewBox="0 0 107.7 35.67"><defs><style>.cls-1{fill:#45bdfe;}</style></defs><title>Website Workflow</title><g id="Layer_4" data-name="Layer 4"><g id="Layer_2-2" data-name="Layer 2"><path class="cls-1" d="M18.48,11a40,40,0,0,1-.54,6.37,86.9,86.9,0,0,1-3,12.3,7.8,7.8,0,0,1-.37,1,.3.3,0,0,1-.32.21H14c-.64,0-.64,0-.85-.61q-1.48-4.61-2.52-9.34c-.38-1.76-.7-3.53-.92-5.32a35.77,35.77,0,0,1-.31-5.31,17.61,17.61,0,0,1,1.15-6.42,6.14,6.14,0,0,1,1.64-2.45,2.41,2.41,0,0,1,3.71.32,8.41,8.41,0,0,1,1.83,3.58,17.73,17.73,0,0,1,.62,3.89A10.15,10.15,0,0,1,18.48,11Z"/><path class="cls-1" d="M11.68.52A10.41,10.41,0,0,0,9.09,2a8.79,8.79,0,0,0-3,4.71,15.1,15.1,0,0,0-.36,5.42A37.2,37.2,0,0,0,9,23.65a52.49,52.49,0,0,0,3.54,6.68l.1.17a6,6,0,0,1-1-.82,28.16,28.16,0,0,1-4.81-6.27,31.2,31.2,0,0,1-3.61-8.8,17.25,17.25,0,0,1-.47-5A9.28,9.28,0,0,1,5.49,3.29,10,10,0,0,1,8.94,1.17,17,17,0,0,1,10.86.58,2.2,2.2,0,0,1,11.68.52Z"/><path class="cls-1" d="M16.35.51a4.32,4.32,0,0,1,1.52.28,10.45,10.45,0,0,1,4.9,2.81A8.85,8.85,0,0,1,25,8.1a14.5,14.5,0,0,1-.09,5.62,32,32,0,0,1-6.14,13.22A20.63,20.63,0,0,1,16,30a2.84,2.84,0,0,1-.64.44l.56-.93a52.62,52.62,0,0,0,5-11,30.27,30.27,0,0,0,1.28-5.63,16.1,16.1,0,0,0-.25-6A8.88,8.88,0,0,0,16.6.64.51.51,0,0,1,16.35.51Z"/><path class="cls-1" d="M11.21,30.07c-.26-.24-.54-.48-.8-.75A41.63,41.63,0,0,1,2.26,18.21a21.14,21.14,0,0,1-2-5.46,9.34,9.34,0,0,1,.3-5.32,9.59,9.59,0,0,1,5-5.2H5.7l-.82.69a10.77,10.77,0,0,0-3.25,4.8,10.42,10.42,0,0,0-.43,4,19.46,19.46,0,0,0,2.43,7.46,51.21,51.21,0,0,0,4.92,7.45C9.38,27.79,10.32,28.91,11.21,30.07Z"/><path class="cls-1" d="M16.76,30l1.38-1.7a59.6,59.6,0,0,0,6-8.62,22.45,22.45,0,0,0,2.4-6.16,10.59,10.59,0,0,0-1-7.82,12.14,12.14,0,0,0-2.92-3.29l-.26-.16c.07-.07.11,0,.15,0A9.5,9.5,0,0,1,27.55,8a8.8,8.8,0,0,1,.23,3.85,23.35,23.35,0,0,1-3.37,8.8,40.93,40.93,0,0,1-7.35,9.2A.54.54,0,0,1,16.76,30Z"/><path class="cls-1" d="M13.9,35.5H12.11c-.16,0-.24,0-.29-.21-.23-.9-.48-1.79-.74-2.68,0-.15,0-.21.15-.21h5.3c.17,0,.2,0,.16.21-.24.92-.47,1.83-.69,2.75,0,.17-.13.2-.26.2Z"/><path class="cls-1" d="M100.92,17.78l-.7,3.08c-.36,1.52-.71,3-1,4.6-.06.29-.18.34-.44.33H97.33a.35.35,0,0,1-.4-.33q-.75-3.7-1.51-7.42l-.55-2.67c-.1-.51-.11-.51.39-.51h1.15c.38,0,.34.08.39.31q.41,2.3.85,4.6c.15.79.3,1.59.48,2.39a7.83,7.83,0,0,0,.43-1.55q.63-2.68,1.24-5.36c0-.25.16-.34.41-.33h1.62c.26,0,.34.09.4.34.48,2.3,1,4.6,1.49,6.9a2.56,2.56,0,0,0,.1.28l.71-3.74c.22-1.15.45-2.3.67-3.53a.26.26,0,0,1,.27-.26h1.35c.44,0,.33.13.28.38-.23,1.08-.45,2.16-.68,3.23-.48,2.3-1,4.6-1.46,7-.06.31-.18.38-.46.37s-.89,0-1.32,0c-.25,0-.36-.07-.41-.33-.57-2.55-1.15-5.11-1.76-7.65Z"/><path class="cls-1" d="M36.56,25.93a3.75,3.75,0,0,1-3.75-2.48,8,8,0,0,1-.16-6,4.15,4.15,0,0,1,5.24-2.64l.13,0a3.82,3.82,0,0,1,2.3,2.75v.11a2.76,2.76,0,0,1-1,.34c-.23.07-.22-.17-.26-.29a3.62,3.62,0,0,0-.68-1.22,2.74,2.74,0,0,0-4.14.52,5,5,0,0,0-.68,2.5,7.16,7.16,0,0,0,.39,3.22A2.74,2.74,0,0,0,38,24.23a3.08,3.08,0,0,0,1.15-1.92c.07-.3.17-.39.49-.29.93.29.94.28.59,1.15a3.79,3.79,0,0,1-3,2.66A2.5,2.5,0,0,1,36.56,25.93Z"/><path class="cls-1" d="M61,20.32v-5c0-.38.1-.51.48-.48.8,0,.68-.08.68.69v9.77c0,.39-.11.49-.48.47-.69,0-.69,0-.69-.71Q61,22.68,61,20.32Z"/><path class="cls-1" d="M50.39,18.89c.13-.21.25-.41.39-.61a1.44,1.44,0,0,1,2-.33l0,0a.24.24,0,0,1,.13.31l-.08.23c-.08.23-.1.53-.26.68s-.4-.1-.63-.14a1.15,1.15,0,0,0-1.15.6,3.54,3.54,0,0,0-.33,1.6v4.06c0,.31-.06.44-.4.43-.77,0-.77,0-.77-.76v-6.7c0-.44.2-.45.52-.45s.6,0,.52.44a3.7,3.7,0,0,0,0,.57Z"/><path class="cls-1" d="M82.63,20.94a3.45,3.45,0,0,0,1.49-.67,3.08,3.08,0,0,0,1-2.54,2.68,2.68,0,0,0-2.49-2.86h-.32c-1.51-.08-3,0-4.52-.07-.39,0-.45.13-.45.47V25.38c0,.26.07.37.34.36a8.87,8.87,0,0,1,1.15,0c.33,0,.41-.09.41-.41V21.51c0-.16,0-.32.23-.34a1.87,1.87,0,0,1,1.93.91c.64,1.15,1.31,2.24,2,3.36.07.13.11.3.31.3h1.77C84.6,24.46,83.49,21.93,82.63,20.94Zm-3.1-1.47c-.22,0-.24-.1-.24-.28V17c0-.22.07-.29.29-.29H82a1.15,1.15,0,0,1,1.15,1.07,2.21,2.21,0,0,1,0,.78,1.15,1.15,0,0,1-1.26.86C81,19.47,80.24,19.47,79.52,19.47Z"/><path class="cls-1" d="M75.07,17.07a3.3,3.3,0,0,0-3.23-2.2H68.2c-.32,0-.43.08-.43.41V25.41c0,.33.09.41.41.41h3.56A3.37,3.37,0,0,0,75,23.75,8.36,8.36,0,0,0,75.07,17.07Zm-1.53,5.07a1.89,1.89,0,0,1-2,1.79l-.17,0H70.07c-.44,0-.38-.08-.38-.37V17c0-.26.07-.37.34-.36h1.53a1.92,1.92,0,0,1,1.94,1.64A8.88,8.88,0,0,1,73.54,22.14Z"/><path class="cls-1" d="M95.28,25.38c-.37-1-.69-2-1-3-.83-2.39-1.67-4.78-2.48-7.19a.5.5,0,0,0-.59-.41,7.62,7.62,0,0,1-1.15,0,.47.47,0,0,0-.56.36v0c-.7,2.13-1.43,4.25-2.15,6.38l-1.39,4.16H87.6a.39.39,0,0,0,.45-.34c.17-.61.39-1.15.56-1.82.07-.23.15-.34.41-.33h3.19a.36.36,0,0,1,.4.3c.18.61.4,1.15.57,1.81.08.28.21.41.52.39a10.12,10.12,0,0,1,1.29,0C95.31,25.77,95.39,25.72,95.28,25.38Zm-3.67-3.94h-2c-.22,0-.26-.08-.21-.28l1.15-3.76,1.24,3.76C91.89,21.36,91.82,21.44,91.61,21.44Z"/><path class="cls-1" d="M58.46,23.22c-.18,0-.17.28-.25.44a1.71,1.71,0,0,1-2.09,1.15,2.51,2.51,0,0,1-1.59-2.47c0-.22.2-.16.31-.16h4.43c.25,0,.33-.07.33-.33a5.75,5.75,0,0,0-.28-2A2.9,2.9,0,0,0,57,17.77a2.85,2.85,0,0,0-3,1.31,4.67,4.67,0,0,0-.69,2.3,5.24,5.24,0,0,0,.6,3.08A3,3,0,0,0,57,25.9a2.91,2.91,0,0,0,2.45-2.22c0-.09.14-.26,0-.3A4.21,4.21,0,0,0,58.46,23.22Zm-1.3-4.32a2.08,2.08,0,0,1,1.21,2c0,.22-.13.17-.24.17H54.89c-.16,0-.31,0-.29-.23a1.94,1.94,0,0,1,2.55-1.9Z"/><path class="cls-1" d="M47.73,20a3.09,3.09,0,0,0-2.64-2.3,2.92,2.92,0,0,0-3.21,1.94A5.84,5.84,0,0,0,42,24.07a2.78,2.78,0,0,0,2.61,1.84,3,3,0,0,0,2.9-1.69,5,5,0,0,0,.45-2.45A5.45,5.45,0,0,0,47.73,20Zm-1.4,3.76a1.78,1.78,0,0,1-3.22,0,4.42,4.42,0,0,1-.39-2.53,2.92,2.92,0,0,1,.74-1.92,1.72,1.72,0,0,1,2.69.2,3.66,3.66,0,0,1,.59,2.3A4.06,4.06,0,0,1,46.33,23.81Z"/></g></g></svg>