<svg xmlns="http://www.w3.org/2000/svg" viewBox="0 0 107.17 112.67"><defs><style>.cls-1,.cls-6{fill:#2f94ec;}.cls-2,.cls-3{fill:none;}.cls-3{stroke:#f7d915;stroke-miterlimit:10;stroke-width:2.52px;}.cls-4{fill:#f7d915;}.cls-5{font-size:30.68px;fill:#4abbf8;}.cls-5,.cls-6{font-family:OdibeeSans-Regular, Odibee Sans;}.cls-6{font-size:28.23px;}</style></defs><title>creative_craft_03</title><g id="Layer_2" data-name="Layer 2"><path class="cls-1" d="M58.33,20.78a29.78,29.78,0,0,0-16,54.92l1.75,6,27.65,1.11,1.44-6.49A29.78,29.78,0,0,0,58.33,20.78Zm0,54.49A24.71,24.71,0,1,1,83,50.56,24.71,24.71,0,0,1,58.33,75.27Z"/><path class="cls-1" d="M74.72,25.06c-2.53.78-4.7-1.32-6.82-2.16C52.48,16.81,36,27,31.52,40.83,28.57,49.92,29.33,59,35.47,67c3.2,4.18,7.68,7.46,8.9,13,.23,1,1.11,2.49,2.68,2,1.13-.38,3.34-.15,6.37-.1,3.77.07,14.28,0,15.74.18.73.1,1.57-.1,1.67-.9.77-6.14,5.62-9.56,9.18-13.8C85.26,61.19,87.12,53.9,87.18,46c2-.72,2,2,2,3.54.11,9-2.83,16.64-9.2,22.85-1.91,1.87-3.83,3.64-4.9,6.17-.74,1.76-1.6,3.18,1.48,3.65,2,.3,1.94,2.55,1.9,4.15s.37,3.38-2,3.59c-3.83.33-34,1.42-35.76,1.07-4.66-1.07-3.09-6.11-1.93-7.19,5.56-5.2.68-8.28-2.09-11C25.43,62,25.19,45.31,33.86,32.48c8.39-12.42,23.72-15.9,37.23-9.57C72.61,23.62,74.56,22.77,74.72,25.06ZM57.5,87.88c5.12,0,10.23,0,15.35,0,1,0,2.31-.05,2.3-1.5s-1.23-1.55-2.3-1.55q-14.56,0-29.12,0c-1.09,0-2.3.22-2.31,1.57s1.25,1.46,2.31,1.46ZM54.83,107"/><path class="cls-1" d="M76.41,75,75.63,73A28.29,28.29,0,1,0,30,50.56,29.31,29.31,0,0,0,40.24,72.9L39.18,75c-7.2-6-12.13-15.12-12.13-24.46a31.27,31.27,0,0,1,62.54,0C89.6,60.31,84.13,69.05,76.41,75Z"/><path class="cls-1" d="M74.81,81.67h-33a4.79,4.79,0,0,0,0,9.57h33a4.79,4.79,0,0,0,0-9.57Zm-2.07,6.91H43.91a2.13,2.13,0,0,1,0-4.25H72.74a2.13,2.13,0,0,1,0,4.25Z"/><path class="cls-1" d="M68.8,87.79h-22a5.48,5.48,0,0,0-5.48,5.48v6a5.48,5.48,0,0,0,5.48,5.48h22a5.48,5.48,0,0,0,5.48-5.48v-6A5.48,5.48,0,0,0,68.8,87.79ZM69,97.36a3.19,3.19,0,0,1-3.19,3.19h-16a3.19,3.19,0,0,1-3.19-3.19V95.24A3.19,3.19,0,0,1,49.82,92h16A3.19,3.19,0,0,1,69,95.24Z"/><path class="cls-1" d="M63.29,101.62h-11a2.74,2.74,0,0,0-2.74,2.74v3a2.74,2.74,0,0,0,2.74,2.74h11A2.74,2.74,0,0,0,66,107.38v-3A2.74,2.74,0,0,0,63.29,101.62Zm.08,4.79a1.6,1.6,0,0,1-1.6,1.6h-8a1.6,1.6,0,0,1-1.6-1.6v-1.06a1.6,1.6,0,0,1,1.6-1.6h8a1.6,1.6,0,0,1,1.6,1.6Z"/><line class="cls-2" x1="82.79" y1="97.36" x2="83.85" y2="96.3"/><rect class="cls-1" x="48.75" y="59.07" width="3.19" height="24.46" rx="1.6" ry="1.6"/><rect class="cls-1" x="64.71" y="59.07" width="3.19" height="24.46" rx="1.6" ry="1.6"/><rect class="cls-1" x="56.95" y="55.78" width="2.38" height="8.72" rx="0.82" ry="0.82" transform="translate(-2 118.28) rotate(-90)"/><rect class="cls-1" x="61.86" y="55.86" width="0.55" height="8.72" rx="0.28" ry="0.28" transform="translate(1.92 122.36) rotate(-90)"/><rect class="cls-1" x="54.86" y="55.86" width="0.55" height="8.72" rx="0.28" ry="0.28" transform="translate(-5.08 115.36) rotate(-90)"/><circle class="cls-3" cx="11.53" cy="28.23" r="8.51"/><circle class="cls-4" cx="99.87" cy="39.32" r="4.71"/><text class="cls-5" transform="translate(10.42 72.32)">+</text><text class="cls-6" transform="translate(70.03 16.49)">+</text></g></svg>