<svg xmlns="http://www.w3.org/2000/svg" xmlns:xlink="http://www.w3.org/1999/xlink" viewBox="0 0 42 46"><defs><style>.cls-1{fill:none;}.cls-2{clip-path:url(#clip-path);}</style><clipPath id="clip-path"><rect class="cls-1" x="0.58" y="-1" width="40.6" height="46"/></clipPath></defs><title>cup_of_coffee</title><g id="Layer_4" data-name="Layer 4"><path d="M8.75,14.91v4a8.09,8.09,0,1,0,0,16.17h.14a6.75,6.75,0,0,0,6.6,5.39H29a6.75,6.75,0,0,0,6.74-6.74V14.91a1.35,1.35,0,0,0-1.35-1.35H10.1a1.35,1.35,0,0,0-1.35,1.35ZM3.36,27a5.4,5.4,0,0,1,5.39-5.39V32.43A5.4,5.4,0,0,1,3.36,27Zm14.82-4.83,1.35,1.35V27h-2.7V23.56Zm-6.74-5.95h5.39v3.48L14.54,22a1.35,1.35,0,0,0-.39,1v5.39a1.35,1.35,0,0,0,1.35,1.35h5.39a1.35,1.35,0,0,0,1.35-1.35V23a1.35,1.35,0,0,0-.39-1l-2.3-2.3V16.26H33V33.78a4,4,0,0,1-4,4H15.49a4,4,0,0,1-4-4Zm0,0"/><g class="cls-2"><path d="M3.36,43.65A1.35,1.35,0,0,0,4.71,45h35a1.35,1.35,0,1,0,0-2.7h-35a1.35,1.35,0,0,0-1.35,1.35Zm0,0"/><path d="M17.65,3.43A1.35,1.35,0,0,0,16,1.27a3.89,3.89,0,0,0-1.55,3.1A5.54,5.54,0,0,0,16,7.56a1.18,1.18,0,0,1,0,1.89,1.35,1.35,0,1,0,1.62,2.16,3.87,3.87,0,0,0,.17-6.06,4.33,4.33,0,0,1-.64-1.19,1.18,1.18,0,0,1,.47-.92Zm0,0"/><path d="M23,3.43a1.35,1.35,0,1,0-1.62-2.16,3.89,3.89,0,0,0-1.55,3.1,5.54,5.54,0,0,0,1.55,3.19,1.18,1.18,0,0,1,0,1.89A1.35,1.35,0,1,0,23,11.6a3.87,3.87,0,0,0,.17-6.06,4.33,4.33,0,0,1-.64-1.19A1.18,1.18,0,0,1,23,3.43Zm0,0"/><path d="M28.43,3.43a1.35,1.35,0,1,0-1.62-2.16,3.89,3.89,0,0,0-1.55,3.1,5.54,5.54,0,0,0,1.55,3.19,1.18,1.18,0,0,1,0,1.89,1.35,1.35,0,0,0,1.62,2.16,3.87,3.87,0,0,0,.17-6.06A4.32,4.32,0,0,1,28,4.35a1.18,1.18,0,0,1,.47-.92Zm0,0"/></g></g></svg>