<svg xmlns="http://www.w3.org/2000/svg" viewBox="0 0 96.5 112"><defs><style>.cls-1{fill:#2f94ec;}.cls-2{fill:#4abbf8;}.cls-3{fill:#f7d915;}.cls-4{fill:#fefefe;}.cls-5{fill:#cacdce;}.cls-6{font-size:16.95px;}.cls-6,.cls-7{fill:#2a567d;font-family:OdibeeSans-Regular, Odibee Sans;}.cls-7{font-size:8.7px;}</style></defs><title>easy_customize_04</title><g id="Layer_2" data-name="Layer 2"><path class="cls-1" d="M62.42,82.46c-.25.15-1.64.53-1.88.68l0-.18-.14.18-2.14.31c-2.82,0-5.63.08-8.45,0-2.09-.09-4.23.51-6.29-.31H57.63c-1.89-2.8-3.31-5.33-5.14-7.51A11.79,11.79,0,0,1,49.56,66a11.27,11.27,0,0,0-.05-1.85c4.56-.23,5.88-.29,5.74,4.16a10.18,10.18,0,0,0,1.92,6.75C59,77.55,60.69,79.91,62.42,82.46Z"/><path class="cls-1" d="M43.5,83.1c2.32.45,4.2.11,6.29.2,1.76.07,6.95.09,8.54,0,5.81-.16-.25-5.39,4.62.11.28,1,8.6,11.36,8.44,14.56-.21,4.06-3.53,8.56-7.56,8.56-10,0-23.86-.55-33.87-.56-3.09-1.42-5.31-7.81-3.15-11.74A68.09,68.09,0,0,1,33.59,84.2c.56-.7,1.09-.92,1.7-.55s.26,1.08-.06,1.6Q34,87.2,32.78,89.13c-.54.86-.8,1.82.1,2.48s1.72,0,2.29-.79a51.36,51.36,0,0,0,3.49-5.15C39.75,83.6,41.24,82.75,43.5,83.1Zm1.89,5.44c-.2-1.58-.82-2.72-2.85-2.74s-2.73.94-2.72,2.65a2.79,2.79,0,1,0,5.57.09Zm10.2,9.76c.12-1.8-1-2.57-2.49-2.67-1.8-.11-2.65,1-2.64,2.73a2.45,2.45,0,0,0,2.48,2.73C54.7,101.15,55.49,100,55.59,98.31ZM29.19,96c-.18,1.23.25,2.19,1.17,2.09,2.29-.24,1.84-2.49,2.4-3.93a1.17,1.17,0,0,0-1.26-1.67C29.33,92.76,29.77,94.86,29.19,96ZM39.33,93.8c-.91.53-1.86,1.09-1.79,2.34a1.77,1.77,0,0,0,2,1.75c1.17,0,2.07-.37,2.11-1.84S40.43,94.34,39.33,93.8Zm20.85,3.72c-.92,0-1.15.69-1.27,1.34-.15.83.36,1.27,1.16,1.33s1.41-.24,1.44-1.07S60.92,97.81,60.18,97.53Zm-9.87-5.76c-.2-.59-.4-1.18-1.15-1.22s-1,.49-1,1.18.38,1.12,1.14,1A1,1,0,0,0,50.32,91.76Z"/><path class="cls-2" d="M73.9,105.66c3,0,6,0,9,0,1.47,0,3,0,3.06,1.91s-1.49,2-3,2c-6.8,0-13.59,0-20.39,0H3.32a1.92,1.92,0,1,1,.06-3.84c3.09,0,6.18,0,9.27,0h8.21c.35-.85-.22-1.19-.46-1.63-2.2-4.17-2.24-8.29.42-12.26,4.38-6.54,8.83-13,13.23-19.55,1.67-2.48,1.46-7.9-.29-10.33A5.45,5.45,0,0,1,33.25,56,5.13,5.13,0,0,1,38,52.94c5.17,0,10.35.06,15.52,0,2.6-.05,4.77.56,6,3,1.36,2.59.64,4.92-1.16,7a14.59,14.59,0,0,0,0,8.35l.46.64c4,5.87,7.76,11.86,11.92,17.6,3.57,4.93,4.66,9.81,1.26,15.2-.34.54-.56,1,.43,1H73.9ZM53.19,60.07c1.07.31,2.09.36,2.84-.67a1.34,1.34,0,0,0,.06-1.67c-.74-1.08-1.76-1-2.82-.69-4.93-.05-9.86-.11-14.79-.15-1.06,0-1.86.48-1.86,1.6s.88,1.75,2,1.74C43.48,60.16,48.34,60.47,53.19,60.07Zm8.08,22.61c-1.72-2.55-3.36-5.17-5.2-7.63a10,10,0,0,1-2-6.65c.14-4.45,0-4.45-4.53-4.22-2.77,0-5.55.08-8.32-.11-1.9-.13-2.47.54-2.21,2.31.58,4-.79,7.26-3.14,10.47-4,5.52-7.77,11.28-11.59,17-3.34,5-.68,10.9,5.23,11.77,11.25.38,22.51.2,33.75-.1a7.43,7.43,0,0,0,5.58-11.79C66.16,90.12,63.78,86.36,61.28,82.68Z"/><path class="cls-1" d="M42.93,39.91a4.15,4.15,0,0,0,3.29.12,63.73,63.73,0,0,1,2.62,6.31,4.59,4.59,0,0,1-3,5.81c-1.84.69-4.26-.48-5.47-2.6a3.17,3.17,0,0,1-.13-2.88C41.09,44.41,42,42.16,42.93,39.91Z"/><path class="cls-3" d="M26.44,21.12a5,5,0,0,1,4.95-5.06A5.19,5.19,0,0,1,36.56,21c.15,3.13-1.8,5.13-5.21,5.39C28.81,26.58,26.47,23.91,26.44,21.12Zm8.26,0a3.58,3.58,0,0,0-3.2-3.26,3.93,3.93,0,0,0-3.26,3.25,3.1,3.1,0,0,0,3.38,3.22A3.06,3.06,0,0,0,34.71,21.08Z"/><path class="cls-2" d="M49.42,12.52a4.08,4.08,0,0,1-3.66,4,3.65,3.65,0,0,1-3.64-3.4c-.14-2.38,1.14-3.91,3.35-4A3.81,3.81,0,0,1,49.42,12.52Zm-3.54,2.06c.86-.22,1.7-.75,1.69-1.76a1.83,1.83,0,0,0-1.93-1.87,1.67,1.67,0,0,0-1.73,2C44,14.06,44.75,14.44,45.88,14.58Z"/><path class="cls-3" d="M19.31,36.22c2,.07,3.28,1.24,3.28,3.05a3.43,3.43,0,0,1-3.36,3.3A3.07,3.07,0,0,1,16.17,39C16.28,37.08,17.43,36.22,19.31,36.22Zm1.42,3.25c0-1.05-.55-1.39-1.33-1.41S18,38.43,18,39.41a1.27,1.27,0,0,0,1.29,1.31A1.38,1.38,0,0,0,20.73,39.46Z"/><path class="cls-2" d="M90.68,109.54c-1.45.1-3,0-3-1.88s1.45-2,2.93-2,2.94.12,2.91,2C93.48,109.42,92.13,109.66,90.68,109.54Z"/><path class="cls-3" d="M21.51,20.34c0,.78-.48,1-1.14,1s-1.12-.3-1.07-1,.49-.86,1.07-.87S21.49,19.62,21.51,20.34Z"/><polygon class="cls-2" points="73.9 105.66 73.83 105.66 73.87 105.52 73.9 105.66"/><path class="cls-4" d="M29.49,105.58c-5.92-.87-8.57-6.8-5.23-11.77,3.82-5.69,7.54-11.45,11.59-17,2.35-3.21,3.72-6.5,3.14-10.47-.26-1.77.32-2.44,2.21-2.31,2.76.19,5.54.09,8.32.11A11.27,11.27,0,0,1,49.56,66a11.79,11.79,0,0,0,2.94,9.56c1.83,2.19,3.25,4.71,5.14,7.51H43.5c-2.26-.36-3.75.5-4.84,2.57a51.36,51.36,0,0,1-3.49,5.15c-.57.83-1.33,1.5-2.29.79s-.64-1.62-.1-2.48Q34,87.2,35.22,85.26c.33-.52.76-1.18.06-1.6s-1.13-.15-1.7.55A68.09,68.09,0,0,0,26.8,94.28c-2.16,3.93-.44,9.55,2.65,11l-.09.18Z"/><path class="cls-4" d="M53.19,60.07c-4.85.39-9.71.09-14.56.16-1.14,0-2-.5-2-1.74s.8-1.61,1.86-1.6c4.93,0,9.86.1,14.79.15Z"/><path class="cls-1" d="M53.19,60.07l.08-3c1.06-.27,2.08-.39,2.82.69A1.34,1.34,0,0,1,56,59.41C55.29,60.43,54.26,60.39,53.19,60.07Z"/><path class="cls-1" d="M67.33,24.1c-2.42,2.57-14.84,14.13-18.7,14.74-.69.11-1.45.72-2-.24l1.93-6c.08-.12,13.18-13.21,13.18-13.21C63.72,18.74,65.79,22,67.33,24.1Z"/><path class="cls-1" d="M75.75,20.35c-2.42,2.57-2.69,4.07-6.55,4.68-.23,0-3.88-3.31-3.75-4.68l4.68-4.68C72.14,15,74.21,18.3,75.75,20.35Z"/><path class="cls-5" d="M47.22,28.36l.38.53-1.93,6c-.6.09-1-.24-.8-.77C45.49,32.12,45.25,29.78,47.22,28.36Z"/><path class="cls-4" d="M34.71,21.08a3.06,3.06,0,0,1-3.08,3.22,3.1,3.1,0,0,1-3.38-3.22,3.93,3.93,0,0,1,3.26-3.25A3.58,3.58,0,0,1,34.71,21.08Z"/><path class="cls-4" d="M45.88,14.58c-1.13-.14-1.88-.51-2-1.66a1.67,1.67,0,0,1,1.73-2,1.83,1.83,0,0,1,1.93,1.87C47.58,13.83,46.74,14.36,45.88,14.58Z"/><path class="cls-4" d="M20.73,39.46a1.38,1.38,0,0,1-1.43,1.26A1.27,1.27,0,0,1,18,39.41c0-1,.49-1.38,1.4-1.36S20.71,38.41,20.73,39.46Z"/><path class="cls-2" d="M45.4,88.54a2.79,2.79,0,1,1-5.57-.09c0-1.71.8-2.66,2.72-2.65S45.2,87,45.4,88.54Z"/><path class="cls-2" d="M55.59,98.31c-.11,1.66-.89,2.85-2.65,2.79a2.45,2.45,0,0,1-2.48-2.73c0-1.76.84-2.84,2.64-2.73C54.62,95.73,55.71,96.51,55.59,98.31Z"/><path class="cls-4" d="M29.19,96c.59-1.11.15-3.21,2.3-3.51a1.17,1.17,0,0,1,1.26,1.67c-.56,1.44-.11,3.69-2.4,3.93C29.44,98.16,29,97.2,29.19,96Z"/><path class="cls-2" d="M39.33,93.8c1.1.54,2.37.65,2.33,2.26s-.94,1.81-2.11,1.84a1.77,1.77,0,0,1-2-1.75C37.47,94.9,38.42,94.33,39.33,93.8Z"/><path class="cls-2" d="M60.18,97.53c.73.29,1.37.74,1.33,1.6s-.67,1.13-1.44,1.07-1.31-.51-1.16-1.33C59,98.22,59.26,97.52,60.18,97.53Z"/><path class="cls-2" d="M50.32,91.76a1,1,0,0,1-1,1c-.76.08-1.13-.28-1.14-1s.19-1.22,1-1.18S50.12,91.18,50.32,91.76Z"/><text class="cls-6" transform="translate(11.24 30.14)">+</text><text class="cls-7" transform="translate(29.34 40.66)">+</text><path class="cls-2" d="M44.49,40l7.05-1.14a11.6,11.6,0,0,0,6.32-3.24L67.92,25.5,69.37,27a1.67,1.67,0,0,0,2.27-.08l5-5a1.57,1.57,0,0,0,0-2.27l-1.52-1.52L78.26,15A7.45,7.45,0,0,0,67.72,4.42L64.61,7.53,63,6a1.72,1.72,0,0,0-2.27,0l-5,5a1.57,1.57,0,0,0,0,2.27l1.33,1.34L46.92,24.77a11.6,11.6,0,0,0-3.24,6.32l-1.14,6.81A1.77,1.77,0,0,0,44.49,40ZM72.89,15.8l-6-6L70,6.67a4.26,4.26,0,0,1,6,6ZM59,12.13l2.84-2.84L73.26,20.72l-2.84,2.84ZM46.18,36.6,47,31.74a7.49,7.49,0,0,1,2.35-4.54l10-10.29,6.34,6.39L55.59,33.44A8.82,8.82,0,0,1,51,35.79Z"/></g></svg>