<svg xmlns="http://www.w3.org/2000/svg" xmlns:xlink="http://www.w3.org/1999/xlink" viewBox="0 0 42.08 44.25"><defs><style>.cls-1{fill:none;}.cls-2{clip-path:url(#clip-path);}.cls-3{fill:url(#linear-gradient);}.cls-4{fill:#2d93ba;}.cls-5{fill:#9cfdff;}.cls-6{fill:#00f8fe;}</style><clipPath id="clip-path"><rect class="cls-1" x="130" y="-161.58" width="629" height="642"/></clipPath><linearGradient id="linear-gradient" x1="29.89" y1="159.06" x2="746.14" y2="159.06" gradientUnits="userSpaceOnUse"><stop offset="0" stop-color="#3f96ff"/><stop offset="1" stop-color="#0052aa"/></linearGradient></defs><title>elements</title><g id="Layer_4" data-name="Layer 4"><g class="cls-2"><path class="cls-3" d="M54.07-11.69c8.07-17.15,39.17-83.23,113.46-117.55,15.8-7.3,90.09-41.62,153-11C403.74-99.82,378.12,11,455.68,65.91c66.7,47.19,138.37-41.15,218.45,1.87,41.8,22.45,75.34,71.35,76.65,115.27,4.12,137.07-301.24,369.2-527.6,259.06C58.41,361.93-10.94,126.46,54.07-11.69Z"/></g><path class="cls-4" d="M41.8,19.26,20.91,43.9l-.13-.15L0,19.26l9.26-9.11H32.54Zm0,0"/><path class="cls-4" d="M41.8,19.26,20.91,43.9V10.15H32.54Zm0,0"/><path class="cls-5" d="M27.91,19.24h-14l6.87-8.93.13-.16Zm0,0"/><path class="cls-6" d="M32.54,10.15,27.8,19.24h14Zm0,0"/><path class="cls-5" d="M9.28,10.15,14,19.24H0Zm0,0"/><rect class="cls-4" x="19.69" y="2.13" width="2.45" height="5.07"/><path class="cls-4" d="M25.88,7.31l2-4.75,2.26.94-2,4.75Zm0,0"/><path class="cls-4" d="M11.7,3.5,14,2.55l2,4.75-2.26.94Zm0,0"/><path class="cls-6" d="M27.8,19.24,20.91,43.9l-.13-.45L14,19.24Zm0,0"/><rect class="cls-4" x="20.91" y="2.13" width="1.22" height="5.07"/><path class="cls-5" d="M27.91,19.24h-.1L20.91,43.9V10.15Zm0,0"/><path class="cls-6" d="M27.91,19.24h-7V10.15Zm0,0"/></g></svg>