<svg xmlns="http://www.w3.org/2000/svg" xmlns:xlink="http://www.w3.org/1999/xlink" width="1018" height="510.53" viewBox="0 0 1018 510.53"><defs><style>.cls-1,.cls-10,.cls-11,.cls-12,.cls-18,.cls-2,.cls-8,.cls-9{opacity:0.5;}.cls-1{fill:url(#Degradado_sin_nombre_42);}.cls-2{fill:url(#Degradado_sin_nombre_42-2);}.cls-3{fill:#eff2f7;}.cls-4{fill:#5bb59b;}.cls-5{fill:#fff;}.cls-6{fill:#524f63;}.cls-7{fill:#63a590;}.cls-8{fill:url(#Degradado_sin_nombre_42-3);}.cls-9{fill:url(#Degradado_sin_nombre_42-4);}.cls-10{fill:url(#Degradado_sin_nombre_42-5);}.cls-11{fill:url(#Degradado_sin_nombre_42-6);}.cls-12{fill:url(#Degradado_sin_nombre_42-7);}.cls-13{fill:#e0e4ed;}.cls-14{fill:#424051;}.cls-15{fill:#eebcc5;}.cls-16{fill:#9092ec;}.cls-17{fill:#ead18c;}.cls-18{fill:url(#Degradado_sin_nombre_15);}.cls-19{fill:#91616a;}.cls-20{fill:#5b61d3;}.cls-21{fill:#8385e6;}.cls-22{fill:url(#Degradado_sin_nombre_26);}.cls-23{fill:url(#Degradado_sin_nombre_15-2);}.cls-24,.cls-28{fill:#4a4549;}.cls-25{fill:url(#Degradado_sin_nombre_26-2);}.cls-26{fill:#d98e9d;}.cls-27{fill:url(#Nueva_muestra_de_degradado_5);}.cls-28{opacity:0.7;}.cls-29{fill:#75454f;}.cls-30{fill:#8284e5;}.cls-31{fill:#37354c;}.cls-32{fill:url(#Degradado_sin_nombre_26-3);}.cls-33{fill:none;stroke:#524f63;stroke-miterlimit:10;}.cls-34{fill:#bcbace;}.cls-35{fill:url(#Degradado_sin_nombre_11);}</style><linearGradient id="Degradado_sin_nombre_42" x1="129.28" y1="428.25" x2="-29.71" y2="534.24" gradientUnits="userSpaceOnUse"><stop offset="0" stop-color="#4a50c2" stop-opacity="0.02"/><stop offset="1" stop-color="#444bcc" stop-opacity="0.64"/></linearGradient><linearGradient id="Degradado_sin_nombre_42-2" x1="1023.74" y1="430.42" x2="864.75" y2="536.41" xlink:href="#Degradado_sin_nombre_42"/><linearGradient id="Degradado_sin_nombre_42-3" x1="273.64" y1="403.9" x2="-84.56" y2="642.7" xlink:href="#Degradado_sin_nombre_42"/><linearGradient id="Degradado_sin_nombre_42-4" x1="1003.07" y1="414.76" x2="644.87" y2="653.56" xlink:href="#Degradado_sin_nombre_42"/><linearGradient id="Degradado_sin_nombre_42-5" x1="525.47" y1="400.65" x2="167.26" y2="639.45" xlink:href="#Degradado_sin_nombre_42"/><linearGradient id="Degradado_sin_nombre_42-6" x1="814.2" y1="396.3" x2="456" y2="635.11" xlink:href="#Degradado_sin_nombre_42"/><linearGradient id="Degradado_sin_nombre_42-7" x1="592.63" y1="405.25" x2="377.24" y2="548.84" xlink:href="#Degradado_sin_nombre_42"/><linearGradient id="Degradado_sin_nombre_15" x1="326.61" y1="241.52" x2="358.52" y2="241.52" gradientUnits="userSpaceOnUse"><stop offset="0" stop-color="#ead18c" stop-opacity="0"/><stop offset="1" stop-color="#524f63" stop-opacity="0.7"/></linearGradient><linearGradient id="Degradado_sin_nombre_26" x1="240.89" y1="247.12" x2="314.69" y2="247.12" gradientUnits="userSpaceOnUse"><stop offset="0" stop-color="#484ec2" stop-opacity="0"/><stop offset="1" stop-color="#444bcc" stop-opacity="0.5"/></linearGradient><linearGradient id="Degradado_sin_nombre_15-2" x1="343.68" y1="282.24" x2="500.99" y2="220.02" xlink:href="#Degradado_sin_nombre_15"/><linearGradient id="Degradado_sin_nombre_26-2" x1="499.68" y1="182.63" x2="529.16" y2="104.66" xlink:href="#Degradado_sin_nombre_26"/><linearGradient id="Nueva_muestra_de_degradado_5" x1="662.17" y1="245.36" x2="732.09" y2="245.36" gradientUnits="userSpaceOnUse"><stop offset="0" stop-color="#b6567a" stop-opacity="0"/><stop offset="1" stop-color="#c45771"/></linearGradient><linearGradient id="Degradado_sin_nombre_26-3" x1="824.92" y1="241.47" x2="834.82" y2="180.54" xlink:href="#Degradado_sin_nombre_26"/><linearGradient id="Degradado_sin_nombre_11" x1="499.66" y1="333.2" x2="537.29" y2="159.53" gradientUnits="userSpaceOnUse"><stop offset="0" stop-color="#676475" stop-opacity="0"/><stop offset="1" stop-color="#524f63" stop-opacity="0.7"/></linearGradient></defs><title>Asset 2</title><g id="Layer_2" data-name="Layer 2"><g id="OBJECTS"><ellipse class="cls-1" cx="74.92" cy="464.49" rx="48.63" ry="6.79"/><ellipse class="cls-2" cx="969.37" cy="466.67" rx="48.63" ry="6.79"/><polygon class="cls-3" points="925.08 26.71 882.11 26.71 882.11 109.07 829.14 109.07 829.14 132.34 785.93 132.34 785.93 7.06 733.99 7.06 733.99 162.81 684.17 162.81 684.17 27 645.14 27 645.14 138.99 635.38 138.99 635.38 115.72 584.71 115.72 584.71 162.26 565.69 162.26 565.69 0 522.48 0 522.48 132.34 522.4 132.34 522.4 240.61 925.08 240.61 925.08 26.71"/><polygon class="cls-3" points="488.73 26.71 454.43 26.71 454.43 109.07 401.46 109.07 401.46 132.34 358.25 132.34 358.25 7.06 306.32 7.06 306.32 162.81 256.5 162.81 256.5 27 217.47 27 217.47 138.99 207.71 138.99 207.71 115.72 157.03 115.72 157.03 162.26 138.02 162.26 138.02 0 86.04 0 86.04 196.62 86.04 240.61 488.73 240.61 488.73 26.71"/><path class="cls-4" d="M37.19,254.06S22.1,320.72,46,366l23.9,45.28S76.18,298.08,37.19,254.06Z"/><path class="cls-5" d="M38.21,428.08c1.45,8.17,3.31,16.42,7.36,23.67s10.58,13.47,18.65,15.43a42.8,42.8,0,0,0,11.23.77c4.13-.11,8.44-.37,12-2.47,4.64-2.73,7.07-8,9-13a152.16,152.16,0,0,0,7.22-26.32c.93-5.18,1.53-10.79-.88-15.46-3.27-6.33-10.94-8.87-18-10-11.68-1.91-27.77-2.88-39,1.88C36,406.67,36.63,419.15,38.21,428.08Z"/><path class="cls-6" d="M64.7,411.49c9.27.54,19.31-.88,25.15-4,1.17-.63,2.21-1.44,1.65-2.21s-3.12-1.28-5.27-1.51c-11.14-1.15-23.48-1.67-34.39.18C35.87,406.64,56.22,411,64.7,411.49Z"/><path class="cls-7" d="M59.83,237.71s-7.55,127,10.06,173.55C69.89,411.27,81.21,298.08,59.83,237.71Z"/><path class="cls-4" d="M67.66,410.34h4.09c6-25.15,24-106.6,14.49-144.61,0,0-30.18,106.9-22.64,130.79Z"/><path class="cls-4" d="M933.78,258.41s-15.09,66.66,8.8,111.93l23.9,45.28S972.77,302.42,933.78,258.41Z"/><path class="cls-5" d="M934.8,432.42c1.45,8.17,3.31,16.42,7.36,23.67s10.58,13.47,18.65,15.43a42.79,42.79,0,0,0,11.23.77c4.13-.11,8.44-.37,12-2.47,4.64-2.73,7.07-8,9-13a152.16,152.16,0,0,0,7.22-26.32c.93-5.18,1.53-10.79-.88-15.46-3.27-6.33-10.94-8.87-18-10-11.68-1.91-27.77-2.88-39,1.88C932.63,411,933.22,423.5,934.8,432.42Z"/><path class="cls-6" d="M961.3,415.83c9.27.54,19.31-.88,25.15-4,1.17-.63,2.21-1.44,1.65-2.21s-3.12-1.28-5.27-1.51c-11.14-1.15-23.48-1.67-34.39.18C932.46,411,952.82,415.33,961.3,415.83Z"/><path class="cls-7" d="M956.42,242.06s-7.55,127,10.06,173.55C966.48,415.61,977.8,302.42,956.42,242.06Z"/><path class="cls-4" d="M964.26,414.68h4.09c6-25.15,24-106.6,14.49-144.61,0,0-30.18,106.9-22.64,130.79Z"/><ellipse class="cls-8" cx="151.15" cy="485.56" rx="109.63" ry="14.11"/><ellipse class="cls-9" cx="880.58" cy="496.42" rx="109.63" ry="14.11"/><ellipse class="cls-10" cx="402.98" cy="482.31" rx="109.63" ry="14.11"/><ellipse class="cls-11" cx="691.71" cy="477.96" rx="109.63" ry="14.11"/><ellipse class="cls-12" cx="518.98" cy="454.35" rx="65.49" ry="14.11"/><path class="cls-13" d="M170.71,107.5l41.36,6.71-19.68-18,9.41-10.49,35.78,32a8.28,8.28,0,0,1-5.74,14l-50.12,1.57Z"/><polygon class="cls-6" points="187.99 213.52 187.16 483.54 172.96 484.55 163.09 255.47 149.9 256.48 136.43 482.52 122.22 481.51 124.01 208.63 187.99 213.52"/><path class="cls-13" d="M170.71,107.5l-47.77-2a16,16,0,0,0-12.89,5.65l14,109.39,65.29,1.31-6-100.26S172.45,107.58,170.71,107.5Z"/><path class="cls-5" d="M192.24,86.55c-2.62,2.08-6,4-6.49,7.32-.46,2.86,1.65,5.71,4.36,6.75a11.2,11.2,0,0,0,8.44-.65c4.26-1.91,7.78-5.77,8.56-10.37.58-3.37-.93-9.86-4.85-11C197.82,77.21,195.46,84,192.24,86.55Z"/><polygon class="cls-14" points="122.22 481.51 94.57 489.76 95.59 492.13 135.8 487.74 136.43 482.52 122.22 481.51"/><path class="cls-15" d="M32.87,108.35l-4.38-7.45L33.3,90.82s2.63-7,2.63-9.2-2.19-5.26-4.38-1.31a81.83,81.83,0,0,1-4.38,7L14.18,68a2,2,0,0,0-1.65-.88h0a2,2,0,0,0-1.75,2.93l3,5.53a2,2,0,0,1-2.88,2.58l-.6-.41A7.28,7.28,0,0,0,.22,79.55L0,79.87l.22,6.56A14.61,14.61,0,0,0,5.55,97.23c7.67,6.3,21.31,17.32,21.62,16.38C27.61,112.29,32.87,108.35,32.87,108.35Z"/><path class="cls-15" d="M181.1,65.32a4.33,4.33,0,0,0-5.26,1.63,6.52,6.52,0,0,0-.5,5.76,8.38,8.38,0,0,0,8.77,5.47,7.42,7.42,0,0,0,6.14-8,7.79,7.79,0,0,0-4.92-5.88,10.5,10.5,0,0,0-7.83.31"/><path class="cls-15" d="M180.15,69.47l21.5,16.89s.51,9.21-4.61,10.24c-1.54,1-21.5-20-21.5-20Z"/><path class="cls-14" d="M173,484.55l.7,4.54,34.81,5.75s1.69-2.7.68-3-22-8.25-22-8.25Z"/><path class="cls-15" d="M139,84.4l1.1,29.76A7,7,0,0,0,146,121.1h0a7,7,0,0,0,8.06-6l1.51-25.74Z"/><rect class="cls-6" x="164.92" y="57.98" width="15.35" height="32.37" transform="translate(16.47 -30.31) rotate(10.54)"/><rect class="cls-6" x="164.94" y="57.82" width="13.65" height="32.37" transform="translate(16.43 -30.16) rotate(10.54)"/><path class="cls-5" d="M137.26,109.8s-2.18,1.87-2.33,2.49,8.4,14,8.4,14l5.76-9.18,7.16,9.18,3-16.65-4.82-1.09-5.44,6.22L139.29,107Z"/><polygon class="cls-16" points="149.09 117.11 145.51 123.02 148 127.53 146.6 130.95 148 174.82 152.97 180.42 157.49 175.13 152.82 130.8 150.18 127.22 153.44 122.71 149.09 117.11"/><path class="cls-15" d="M126.58,52.56c-3,7-2.68,15-1.09,22.41,1.73,8.08,5.11,16.18,11.51,21.4s16.32,6.71,22.92,1.73c3.93-3,6.14-7.66,7.64-12.35,3-9.32,3.58-19.74-.29-28.73C160.15,40.54,135.06,33,126.58,52.56Z"/><polygon class="cls-13" points="115.9 142.58 64.61 159.13 27.34 118.53 36.63 110.86 70.99 139.02 110.05 111.14 116.71 122.79 115.9 142.58"/><polygon class="cls-5" points="21.47 115.8 25.42 121.93 42.94 111.86 35.93 104.84 21.47 115.8"/><path class="cls-15" d="M117.8,65.78c-2.21,1-3.3,3.65-3.06,6.05a13.1,13.1,0,0,0,3,6.48,11.26,11.26,0,0,0,2.86,2.79,9.3,9.3,0,0,0,3.68,1.2c1.58.21,3.45,0,4.38-1.26a5.12,5.12,0,0,0,.71-2.4c.48-4-.54-5.54-2.83-8.41C124.48,67.6,121.72,64.05,117.8,65.78Z"/><path class="cls-6" d="M132.47,66c-.33,4.14-2.29,8.38-5.92,10.39a24,24,0,0,1-4.62-12.2c-.6-5.41.29-11.16,3.45-15.59,3.61-5.06,9.84-7.83,16-8.27s12.38,1.19,18.13,3.55c2.49,1,5.69,2.06,7.59.15a13.18,13.18,0,0,1,1.53,6.1,8.29,8.29,0,0,1-1.21,4.65c-1.52,2.28-4,4.83-6.66,5.43-20.23,4.52-29.63-6.46-29.72-6.16-.33,1.08.32,2.43.57,3.53A28,28,0,0,1,132.47,66Z"/><path class="cls-17" d="M430.06,293l-5.75-112s-28.78-1.73-37.35-1.73c-4.67,0-12.64,2.21-18.93,4.23-5.91,1.9-10.82,1.73-13.7,7.23l-47.21,90.48,29,2.76,9.67-11-4.92-7.46,17.63-41.59-.29,70.45Z"/><path class="cls-18" d="M357.9,207.42,326.61,264l9.74,11.41a17.22,17.22,0,0,0,7.73-.42l1.73-2-4.92-7.46,17.63-41.59Z"/><path class="cls-19" d="M382.85,270.35c-1.21-.4-10.9-6.06-18.17-6.06S348.53,272,348.53,272s-1.21,4,3.63,3.23,8.07-1.21,8.07-1.21-8.48,4.44-2.83,5.25,29.47,0,29.47,0Z"/><path class="cls-20" d="M381.06,286.78H287.8v-6.84h93.27a3.42,3.42,0,0,1,3.42,3.42h0A3.42,3.42,0,0,1,381.06,286.78Z"/><path class="cls-21" d="M355.47,286.78H265.54a8.77,8.77,0,0,1-8.48-6.52l-15.87-59.81a8.77,8.77,0,0,1,8.48-11H328.2a8.77,8.77,0,0,1,8.48,6.52Z"/><path class="cls-22" d="M249.66,209.43a8.77,8.77,0,0,0-8.48,11l15.87,59.81a8.74,8.74,0,0,0,3,4.55l54.67-75.38Z"/><path class="cls-5" d="M302.51,253.4a5.39,5.39,0,0,1-5.48,7.06A9.82,9.82,0,0,1,288,253.4a5.39,5.39,0,0,1,5.48-7.06A9.82,9.82,0,0,1,302.51,253.4Z"/><path class="cls-19" d="M384.06,165.39c.81,1.61,6.46,23.82,6.46,23.82a7.16,7.16,0,0,0,6.86,3.23c4.84-.4,6.86-7.27,6.86-7.27l-8.48-27.86Z"/><path class="cls-19" d="M413.94,151.71c0,15.3-16.24,32.22-31.53,32.22S358.55,167,358.55,151.71a27.69,27.69,0,1,1,55.39,0Z"/><path class="cls-5" d="M388.5,182.34l-3.23,8.48,2,8.88,6.46-9.29,6.46,10.5L407.47,188l-4.84-8.48s-2.42,5.65-7.67,6.86S388.5,182.34,388.5,182.34Z"/><polygon class="cls-21" points="393.75 190.42 388.9 196.47 391.33 200.11 387.69 207.78 388.5 258.24 393.35 268.33 400.21 257.03 398.59 208.99 394.96 199.7 397.79 195.67 393.75 190.42"/><polygon class="cls-23" points="427.72 204.39 429.48 292.91 387.85 292.47 427.72 204.39"/><path class="cls-17" d="M424.31,181l3.84,83.43-38.56,7.85,5.26,10.08L450,285.6l-7.54-82.52a24.54,24.54,0,0,0-13.58-19.77Z"/><polygon class="cls-5" points="382.85 270.35 390.52 271.16 397.38 282.46 384.48 283.36 382.85 270.35"/><path class="cls-6" d="M344.41,308.12l-68.24,17.36L310.89,462l12-6L312.68,338.64l61.06-19.15-35.32,20.35.6,111.34h10.77s29.93-108.94,32.92-108.94S436,308.71,436,308.71Z"/><polygon class="cls-6" points="274.17 472.7 321.62 469.32 322.93 454.37 272.2 465.92 274.17 472.7"/><polygon class="cls-6" points="312.68 481.11 322.26 482.3 349.2 472.13 349.8 451.18 339.02 451.18 334.23 464.35 319.71 473.12 312.68 481.11"/><path class="cls-24" d="M357.59,141.87c-1.08,2-2.19,4.31-1.39,6.43,1,2.59,4.2,3.38,7,3.7a110.24,110.24,0,0,0,14.31.74,44,44,0,0,0,9.44-.95c5-1.18,9.64-3.76,14.16-6.31,3.22-1.82,6.78-4.1,7.36-7.75s-2-6.89-4.49-9.61a30.59,30.59,0,0,0-4.47-4.34c-4.1-3-9.53-3.8-14.56-3C372.43,122.79,363.41,131.19,357.59,141.87Z"/><path class="cls-24" d="M402.9,150.83a3,3,0,0,1,3.7-1.74,4.24,4.24,0,0,1,2.65,3.43,7.67,7.67,0,0,1-.86,4.41,10.37,10.37,0,0,0-.88,2,7.42,7.42,0,0,0-.13,1.86l.13,8.12c2.23-.85,3.54-3.12,4.66-5.23,2.47-4.63,5-9.57,4.72-14.81-.24-4.34-2.4-8.32-4.58-12.07a6.53,6.53,0,0,0-1.73-2.17,4.45,4.45,0,0,0-3.82-.41,13.17,13.17,0,0,0-3.48,1.89l-3.23,2.2a7.52,7.52,0,0,0-2.7,2.61c-1,2,.4,2.91,1.6,4.15C399.57,145.74,398.5,159.19,402.9,150.83Z"/><path class="cls-3" d="M362.19,174c-3.66,0-7.75-3.11-9.11-6.94a5.88,5.88,0,0,1,.41-5.4,4.73,4.73,0,0,1,4-1.91c3.66,0,7.75,3.11,9.11,6.94a5.88,5.88,0,0,1-.41,5.4A4.74,4.74,0,0,1,362.19,174Zm-4.68-13.16a3.69,3.69,0,0,0-3.14,1.45,4.83,4.83,0,0,0-.27,4.41c1.22,3.43,4.85,6.22,8.09,6.22a3.69,3.69,0,0,0,3.14-1.45,4.82,4.82,0,0,0,.27-4.41C364.37,163.64,360.75,160.85,357.51,160.85Z"/><path class="cls-3" d="M380.55,174c-3.66,0-7.75-3.11-9.11-6.94a5.88,5.88,0,0,1,.41-5.4,4.73,4.73,0,0,1,4-1.91c3.66,0,7.75,3.11,9.11,6.94a5.88,5.88,0,0,1-.41,5.4A4.74,4.74,0,0,1,380.55,174Zm-4.68-13.16a3.69,3.69,0,0,0-3.14,1.45,4.82,4.82,0,0,0-.27,4.41c1.22,3.43,4.85,6.22,8.09,6.22a3.69,3.69,0,0,0,3.14-1.45,4.82,4.82,0,0,0,.27-4.41C382.74,163.64,379.12,160.85,375.88,160.85Z"/><path class="cls-6" d="M481.75,108.45c.29,4.35,2.67,8.67,1.47,12.86-1,3.43-4.19,5.89-5.17,9.32-1.12,3.9.86,7.94,2.77,11.51,1.6,3,3.85,6.38,7.24,6.4a9.54,9.54,0,0,0,4.2-1.34l9.68-4.86a15.69,15.69,0,0,0,3.94-2.49,15.28,15.28,0,0,0,3.34-6c2.48-6.84,4.71-14,4.13-21.25s-4.54-14.66-11.3-17.35c-3.78-1.51-14.85-2.85-18.1.39-1.45,1.44-.72,3-.91,4.81C482.77,103.18,481.56,105.6,481.75,108.45Z"/><path class="cls-15" d="M489.59,130.18l-3.3.9c-13.71,8.92-21.73,21.32-23.45,37.58l-7,113.15,10.51-4.7Z"/><path class="cls-21" d="M558.9,129.32l-56-2.28c-4.73-.19-13.06,1.49-17.59,2.85l-7.13,3.33,12.56,60h0a119.12,119.12,0,0,0-16.47,64.1L480.94,339h62.73l8-86.23a119.12,119.12,0,0,0-9.54-51.48l-3.41-8Z"/><path class="cls-25" d="M491.67,153.37a16.1,16.1,0,0,0,19,8.73A40.42,40.42,0,0,0,522.61,157c6.74-4,13.15-8.66,18.06-14.75,3.45-4.28,6.12-10.37,3.32-15.09-1.79-3-5.34-4.53-8.74-5.44C517.08,116.85,477.79,127.2,491.67,153.37Z"/><path class="cls-15" d="M534.81,100.11c0,14.88-15.86,35.07-30.74,35.07s-23.13-20.2-23.13-35.07a26.93,26.93,0,0,1,53.87,0Z"/><path class="cls-15" d="M558.9,129.32l38.82,50.6a11.25,11.25,0,0,1-3.06,16.45l-45.38,27.77-5.6-8.75,31.13-25a5.53,5.53,0,0,0,1.09-7.46l-23.61-33.46Z"/><path class="cls-15" d="M434.38,286.8h24.37a7.43,7.43,0,0,0,7.41-6.91l.19-2.78Z"/><path class="cls-15" d="M500.62,118.22c-.36-.9,6.44,17.77,6.44,17.77s1.53,7.66,8,5.82,2.45-29.11,1.53-29.42S501.23,119.76,500.62,118.22Z"/><path class="cls-6" d="M516.6,96.57C504.13,104.16,491,112,476.44,112.85c3.28-4.07,2.62-9.88,3.22-15.07a28.59,28.59,0,0,1,37.9-23.68,15.81,15.81,0,0,1,7.79,5.3C530.72,86.9,522.39,93,516.6,96.57Z"/><path class="cls-6" d="M515.47,126.47c.83,4,3.37,7.55,3.83,11.61a23.36,23.36,0,0,1-.92,7.86l-2.19,9.36a28,28,0,0,0,11.75-5.88,45.63,45.63,0,0,0,16.18-42.63,73.23,73.23,0,0,0-3.84-13.08,32.73,32.73,0,0,0-4.8-9.32c-2.21-2.72-5.43-4.83-8.94-4.92-4.19-.11-8,2.66-10.46,6.06a13.4,13.4,0,0,0-2.85,7.94c.06,2.86,1.05,12.59,3.68,13.74a6.84,6.84,0,0,1,9.57,3.43c2,5.78-3.14,6.88-6.59,8.86C515.59,122,514.54,122,515.47,126.47Z"/><path class="cls-6" d="M544.08,108.91c2.64,2,5.66,3.51,8,5.85s3.87,5.91,2.64,9c-.78,1.93-2.48,3.3-3.95,4.77s-2.83,3.37-2.59,5.44a8.84,8.84,0,0,0,1.75,3.7c2,3,3.69,6.52,3.11,10.06a9.77,9.77,0,0,1-5,6.75,13.54,13.54,0,0,1-8.44,1.34,27,27,0,0,0-5-.67c-4.43.19-7.92,4.2-12.33,4.72a8.13,8.13,0,0,1-9-9.45c.7-4.06,4.25-6.91,7.52-9.42s6.76-5.49,7.25-9.58c.36-3.05-1.08-6.11-.7-9.16.54-4.37,4.6-7.58,5.58-11.87.56-2.44-.33-8.62,3.5-8.54C539.36,101.9,541.91,107.28,544.08,108.91Z"/><path class="cls-6" d="M511.92,104a33.17,33.17,0,0,1-2.8,4.17l-4.24,5.68a30.69,30.69,0,0,0,1-11.22,5.15,5.15,0,0,1,0-1.72,4.47,4.47,0,0,1,2.11-2.4c1.3-.86,4.64-3.64,6-1.85C515,98.09,512.61,102.73,511.92,104Z"/><polygon class="cls-6" points="544.75 207.15 542.19 209.43 551.1 219.84 544.75 207.15"/><path class="cls-26" d="M734,293l-5.75-112S699.46,175,690.89,175c-4.67,0-12.64,2.21-18.93,4.23a23.59,23.59,0,0,0-13.7,11.57l-47.21,90.48,29,2.76,9.67-11-4.92-7.46,17.63-41.59-.29,70.45Z"/><path class="cls-15" d="M730.14,148.63a27.69,27.69,0,0,1-27.69,27.69c-8.47,0-14.34-8.79-19.42-14.77-4.1-4.83-7.33-6.2-7.33-13,0-15.3,11.45-27.59,26.74-27.59A27.69,27.69,0,0,1,730.14,148.63Z"/><polygon class="cls-6" points="659.4 286.78 562.72 286.78 542.19 209.43 638.87 209.43 659.4 286.78"/><polygon class="cls-5" points="659.4 286.78 565.74 286.78 544.75 207.15 639.51 209.43 659.4 286.78"/><rect class="cls-6" x="563.5" y="281.17" width="66.29" height="5.61"/><path class="cls-27" d="M695,273.75l37-17.7L729,196.34l-6.41.39-48,50.39s-7.16,18.7-12.38,33.42l-.06,13.83,49.79-1Z"/><polygon class="cls-21" points="633.65 268.89 582.06 268.89 570.5 225.03 622.7 226.29 633.65 268.89"/><path class="cls-16" d="M648.34,308.12,580.1,325.47,614.82,462l12-6L616.61,338.64l61.06-19.15-35.32,20.35.6,111.34h10.77s29.93-108.94,32.92-108.94,53.27-33.52,53.27-33.52Z"/><polygon class="cls-6" points="578.1 472.7 625.55 469.32 626.86 454.37 576.13 465.92 578.1 472.7"/><path class="cls-3" d="M685,186.66a75.31,75.31,0,0,0,3,15.84,5.86,5.86,0,0,0,1.7,3.06c1.92,1.5,4.7.24,6.7-1.15a47.13,47.13,0,0,0,9.43-8.51,16.66,16.66,0,0,0,3.82-7.14,7.91,7.91,0,0,0-2.18-7.5c-3.19-2.76-10.06-2.66-14.08-2.75C687.73,178.38,684.54,180.72,685,186.66Z"/><polygon class="cls-6" points="616.61 481.11 626.19 482.3 653.13 472.13 653.73 451.18 642.95 451.18 638.16 464.35 623.64 473.12 616.61 481.11"/><path class="cls-15" d="M692,162.59l-2,23.34s1.64,9.83,7.37,8.19S703.9,188,703.9,188l2.46-27.85Z"/><path class="cls-24" d="M712.75,139.65c4.36-.17,8.85-.48,12.78-2.37s7.22-5.76,7.15-10.12-4.57-8.47-8.72-7.13c-.95.31-1.81.85-2.78,1.08a9.07,9.07,0,0,1-4.56-.54c-11.2-3.3-23.73-5.5-34.18-.3a10.6,10.6,0,0,0-4.86,4.16,12.77,12.77,0,0,0-1.14,4.91q-.62,6.78-.82,13.6c3-1.64,6-3.59,9.18-5s5,0,8.32.66C699.56,140,706.21,139.92,712.75,139.65Z"/><path class="cls-28" d="M686.75,132.25a10,10,0,0,0-8.09,2.25,27.48,27.48,0,0,0-3.79,11.75,23,23,0,0,1,.56,4.45,11.79,11.79,0,0,0,.94,3.86c1.59,2.4,4.14,4,6.66,7l.31.37c2.68-4.63,7-15.2,7.87-16.26,1.25-1.63,5.28-6.51,4.55-8.67S688.73,132.61,686.75,132.25Z"/><path class="cls-15" d="M686.78,143.53a2.55,2.55,0,0,0-.78-.83,2.71,2.71,0,0,0-1.37-.24c-1.82,0-3.92.13-5,1.59a5.14,5.14,0,0,0-.82,2.14,18.86,18.86,0,0,0-.25,5.5c.29,2.82,1.64,6,4.4,6.62a5.33,5.33,0,0,0,4.65-1.42C691.93,152.94,689.62,147.71,686.78,143.53Z"/><path class="cls-24" d="M721.79,158a9.57,9.57,0,0,1,4.32-.29,3.53,3.53,0,0,1,2.85,2.92,9.3,9.3,0,0,1-.32,2.1c-.36,2.18.51,4.35,1.27,6.42,1.66,4.53,2.75,9.94,0,13.91-2.59,3.73-7.67,4.77-12.21,4.56a34.16,34.16,0,0,1-30.17-23.06,22.65,22.65,0,0,1-.44-13.85c.44-1.36,1.6-2.91,2.94-2.44a16.94,16.94,0,0,0,8.85,12.34C707.14,164.88,713.83,159.86,721.79,158Z"/><path class="cls-6" d="M546.06,208.18l92.68,2.23,19.38,75.37H566.51l-20.45-77.59m-1.31-1,21,79.62H659.4l-19.89-77.35-94.76-2.28Z"/><path class="cls-5" d="M696.46,286.78h-133v-5.61h133a2.8,2.8,0,0,1,2.8,2.8h0A2.8,2.8,0,0,1,696.46,286.78Z"/><path class="cls-20" d="M629.16,286.78H563.5v-5.61h65.66A2.8,2.8,0,0,1,632,284h0A2.8,2.8,0,0,1,629.16,286.78Z"/><path class="cls-26" d="M728.24,181,704.06,245l-61.67,8.21,2.43,12.33,78.92-2.58,21.32-56.21a13.36,13.36,0,0,0,.39-8.66,24.54,24.54,0,0,0-12.58-14.75Z"/><path class="cls-15" d="M642.39,253.17l-33.26-17.77a3.6,3.6,0,0,0,.84,4.84c2.63,2.19,11,8.42,11,8.42v4.84c2.78,9.08,11.35,13.37,20.79,12.33l3-.33Z"/><path class="cls-29" d="M777.9,286.64H738.18s-1.15-2.88,5.18-4,24.18-1.73,24.18-1.73l4.61-5.18,6.33,1.73Z"/><path class="cls-30" d="M810.51,165.23,768.18,279.45l10.45,2.61,65-111.31s-1.87-7.21-12.92-14.12S810.51,165.23,810.51,165.23Z"/><path class="cls-19" d="M811.67,112.88a27.71,27.71,0,0,0-38.28-8.38,29,29,0,0,0-12.68,21.36c-.42,4.29-.44,5.79,1.3,9.76s6.63,9.53,3.84,17.52c-.65,1.87-.11,4.73,2.07,5.61s4.08-1.49,6.19-1.59c4-.18,11.84,5.94,14.7,8.35a8.46,8.46,0,0,0,4.13,2.31,6.84,6.84,0,0,0,3.93-1c6.08-3.16,9.79-9.46,12.82-15.6,2.84-5.74,5.41-11.83,5.83-18.19A27.59,27.59,0,0,0,811.67,112.88Z"/><path class="cls-19" d="M810.63,166.43c1.17,1.2,2.63,2.47,4.29,2.22a5,5,0,0,0,2.07-1,31.65,31.65,0,0,0,4.7-4,5.09,5.09,0,0,0,1.75-3.22,4.87,4.87,0,0,0-.53-2c-2.8-6.31-8.55-11.12-10.58-17.72-.92-3-1-6.2-2-9.15s-3.41-5.81-6.54-5.93a8.23,8.23,0,0,0-5.08,1.93,18.17,18.17,0,0,0-7.1,15.78,18.56,18.56,0,0,0,8.05,13.51A69.74,69.74,0,0,1,810.63,166.43Z"/><path class="cls-24" d="M773.39,104.5a28.17,28.17,0,0,0-11,14.18c5.31,2.62,18.86-3.21,22.54-5.43a26.45,26.45,0,0,0,12.67,23.4c4.87,2.88,10.61,4.14,15.48,6.94a37.33,37.33,0,0,0,2.46-10.52,27.68,27.68,0,0,0-42.14-28.56Z"/><path class="cls-19" d="M788.25,132.6c-1.56-2.87,0-6.83,2.92-8.28a8.15,8.15,0,0,1,9,1.73,11.5,11.5,0,0,1,3.09,9c-.29,4.12-3.29,8.57-7.41,8.35a7.48,7.48,0,0,1-5.55-3.53,22.13,22.13,0,0,1-2.56-6.29"/><polygon class="cls-5" points="825.83 152.13 817.93 142.96 805.45 165.88 810.04 180.4 826.6 161.81 825.83 152.13"/><path class="cls-16" d="M834.86,153.38,909,235.87l-45.38,39.86L808,190.34c-5.68-8.18,3-26.22,8.68-34.4h0A12.5,12.5,0,0,1,834.86,153.38Z"/><polygon class="cls-31" points="906.4 488.83 886.48 376.56 863.59 275.73 908.97 235.87 906.37 375.29 917.45 483.3 906.4 488.83"/><polygon class="cls-6" points="908.97 235.87 871.61 492.4 860.27 490.56 863.59 275.73 908.97 235.87"/><polygon class="cls-6" points="839.5 500.56 869.43 499.41 871.16 490.2 862.52 489.05 833.74 497.11 834.31 501.14 839.5 500.56"/><polygon class="cls-31" points="917.45 483.3 918.31 491.97 883.68 494.11 883.38 491.36 914.02 481.55 917.45 483.3"/><path class="cls-19" d="M763.1,286.64H723.37s-1.15-2.88,5.18-4S754.1,281,754.1,281l3.24-5.32L766,279Z"/><path class="cls-16" d="M819.65,160.75l-30.14,56.89-36.13,63.12,11.75.44,32.21-44.4L840,182.27A14.87,14.87,0,0,0,844,164h0A14.87,14.87,0,0,0,819.65,160.75Z"/><path class="cls-32" d="M836.85,234.65c-.83-11.55-4.9-47.5-4.9-47.5L819.53,208Z"/><path class="cls-15" d="M508.34,329.28c-2,0-18.25,6.76-18.25,6.76l12.68,104.07c-2.87,1.35-6.86,2.15-9.56,2.92-6.22,1.78-11.8,2.42-17.3,6.09-.45.32-.58,1.9-.66,2.44-.18,1.19,1.44,1.72,2.65,1.78q11.26.49,22.54.1c4.79-.17,8.7-2.61,13-4.8,2.48-1.27,3.42-5,3.28-6.8C516.64,441.29,510.26,329.28,508.34,329.28Z"/><path class="cls-6" d="M494.41,449.52c7.23-.66,17-3.9,22.61-8.48.5,4.8-.91,9.41-10,11.75-10.55,2.71-21.85,5.7-32.29,2.61-1.12-.33-2.4-1-2.37-2.2a2.57,2.57,0,0,1,.63-1.42c1.86-2.48,7.35-6.9,10.62-5.82,1.7.56,2.91,2.52,4.85,3.12A15.82,15.82,0,0,0,494.41,449.52Z"/><path class="cls-15" d="M508.29,453.33"/><path class="cls-15" d="M547.08,441.83c0-.54-6.42-112.55-8.34-112.55S520.49,336,520.49,336l12.68,104.07c2.13,5.61,4,11,7.07,16.1s7.27,9.78,12.6,12.56a1.84,1.84,0,0,0,1.83.2,1.66,1.66,0,0,0,.56-.94c.9-3.09-.42-6.34-1.71-9.28C551.16,453.37,547.54,447.68,547.08,441.83Z"/><path class="cls-6" d="M536.48,455.58c3.23,6,7.21,12.11,13.42,14.91a5.6,5.6,0,0,0,3.37.62,4.3,4.3,0,0,0,3.05-3.24,9.33,9.33,0,0,0-.25-4.64,23.5,23.5,0,0,0-2.8-6.48,2,2,0,0,0-1.23-1.07c-.71-.11-1.3.5-1.88.93a5.35,5.35,0,0,1-5.63,0,13.91,13.91,0,0,1-4.16-4.17c-2.36-3.24-4.45-9.19-7.72-11.05C531.64,446.21,534.21,451.36,536.48,455.58Z"/><circle class="cls-6" cx="358.6" cy="472.44" r="7.74"/><circle class="cls-6" cx="451.82" cy="472.44" r="7.74"/><circle class="cls-6" cx="403.24" cy="472.44" r="7.74"/><path class="cls-33" d="M358.6,472.44v-4a16.23,16.23,0,0,1,16.23-16.23H405.3V373.3"/><path class="cls-33" d="M451,472.44v-4a16.23,16.23,0,0,0-16.23-16.23H404.26V373.3"/><line class="cls-33" x1="403.24" y1="472.44" x2="403.24" y2="452.19"/><rect class="cls-6" x="394.99" y="412.33" width="17.18" height="39.18"/><rect class="cls-6" x="397.74" y="373.98" width="11" height="44.53"/><circle class="cls-6" cx="655.69" cy="472.44" r="7.74"/><circle class="cls-6" cx="748.9" cy="472.44" r="7.74"/><circle class="cls-6" cx="700.32" cy="472.44" r="7.74"/><path class="cls-33" d="M655.69,472.44v-4a16.23,16.23,0,0,1,16.23-16.23h30.46V373.3"/><path class="cls-33" d="M748,472.44v-4a16.23,16.23,0,0,0-16.23-16.23H701.35V373.3"/><line class="cls-33" x1="700.32" y1="472.44" x2="700.32" y2="452.19"/><rect class="cls-6" x="692.07" y="412.33" width="17.18" height="39.18"/><rect class="cls-6" x="694.82" y="373.98" width="11" height="44.53"/><rect class="cls-34" x="233.93" y="295.06" width="531.77" height="84.25"/><rect class="cls-6" x="234.69" y="295.73" width="8.95" height="214.81"/><rect class="cls-6" x="762.76" y="295.73" width="8.95" height="214.81"/><polygon class="cls-35" points="771.67 344.81 233.28 295.61 771.67 295.61 771.67 344.81"/><rect class="cls-13" x="213.21" y="286.78" width="578.19" height="14.32"/></g></g></svg>