<svg xmlns="http://www.w3.org/2000/svg" viewBox="0 0 116.17 36.19"><defs><style>.cls-1{font-size:16.64px;}.cls-1,.cls-2,.cls-3,.cls-4{fill:#828282;}.cls-1,.cls-3{font-family:Arial-BoldMT, Arial;font-weight:700;}.cls-2,.cls-3{font-size:15.01px;}.cls-2{font-family:ArialMT, Arial;}</style></defs><title>illustrator_logo</title><g id="Layer_2" data-name="Layer 2"><text class="cls-1" transform="translate(-65.32 16.7)">Android </text><text class="cls-2" transform="translate(37.69 17.98)">Adobe</text><text class="cls-3" transform="translate(37.67 30.55)">illustrator</text><path class="cls-4" d="M12.28,22.79h4.53L18,26.85h3.85L17,11h-4.7L7.43,26.85h3.72Zm2.18-9.11h0c.23.95,1.79,6.42,1.79,6.42H12.79s1.43-5.47,1.67-6.42Zm0,0"/><rect class="cls-4" x="23.29" y="15.36" width="3.58" height="11.49"/><path class="cls-4" d="M25.06,13.94a1.8,1.8,0,1,0,0-3.6,1.8,1.8,0,1,0,0,3.6Zm0,0"/><path class="cls-4" d="M1.08,2.47V34.72H33.33V2.47ZM31.34,32.73H3.08V4.47H31.34Zm0,0"/></g></svg>