<svg xmlns="http://www.w3.org/2000/svg" viewBox="0 0 103.83 32.88"><defs><style>.cls-1{fill:#45bdfe;}</style></defs><title>Website Workflow</title><g id="Layer_4" data-name="Layer 4"><g id="Layer_2-2" data-name="Layer 2"><path class="cls-1" d="M47.33,15.48l-4.64-5.8a12.84,12.84,0,0,0-1.08-1.25,1.17,1.17,0,0,0-1.08-.33l-5.8,1a7.32,7.32,0,0,0-1.31.26c-.4.15-.48.41-.25.76l.15.24,4.31,6.17.22.31-.18.05L23.91,20.13a.23.23,0,0,1-.28-.11l-2.69-4.51L12.47,1.36a1.62,1.62,0,0,0-1-.92h-.94a.39.39,0,0,1-.2,0H9L6.68.63,4.65.8l-2.22.26a4.18,4.18,0,0,0-1.21.12.62.62,0,0,0-.6.53v.47c.11.27.18.54.3.8C1.54,4.37,2.17,5.74,2.79,7.1L9.46,21.52l1.08,2.36A1.83,1.83,0,0,0,12,25a2.66,2.66,0,0,0,1.08-.09c3.23-.8,6.36-1.63,9.52-2.47a.24.24,0,0,1,.32.1l0,0c1.51,2.81,3,5.52,4.61,8.2a5.85,5.85,0,0,0,.94,1.34,1.21,1.21,0,0,0,.89.37,4.62,4.62,0,0,0,1.4-.33q2.53-.87,5-1.78l9.88-3.57a3.23,3.23,0,0,0,.66-.3.43.43,0,0,0,.22-.57l0-.07a2.94,2.94,0,0,0-.27-.41l-5.52-7.41c-.1-.13-.12-.18.08-.24l4.57-1.21c.58-.15,1.17-.3,1.76-.47S47.62,15.8,47.33,15.48Zm-26,5.29-8.14,1.94c-.55.13-.55.13-.79-.37L4.78,6.68,2.92,2.87a1,1,0,0,1-.06-.16c-.05-.19,0-.25.18-.26l6.07-.53,1.59-.15c.18-.05.26.1.34.25l4.73,8.17,5.77,10C21.81,20.61,21.78,20.66,21.3,20.77Zm22.62,4.12h0c.2.3.18.38-.16.5l-2.23.76L30.24,30a1.56,1.56,0,0,1-.41.13.44.44,0,0,1-.32-.15,2.37,2.37,0,0,1-.39-.54c-1.45-2.43-2.87-4.9-4.31-7.35-.09-.15,0-.18.11-.23l12.71-3.31,1.08-.3a.36.36,0,0,1,.42.14c1.59,2.19,3.21,4.32,4.77,6.5ZM45.08,15c-.48.14-1,.25-1.48.38l-4,1a.24.24,0,0,1-.29-.11l-4-5.53v-.06c-.14-.22-.12-.29.14-.33l2-.36,3.23-.59h.12a.54.54,0,0,1,.43.26l3,3.78,1,1.2c.14.22.12.31-.13.39Z"/><path class="cls-1" d="M85.8,21.56c.4-.88.7-1.76,1-2.63.47-1.34.89-2.68,1.24-4.05,0-.19.12-.28.33-.26a9,9,0,0,0,1.08,0c.31,0,.31.1.25.34A46.12,46.12,0,0,1,88.2,19.5c-.48,1.24-1,2.47-1.54,3.68a.43.43,0,0,1-.51.31,1,1,0,0,0-.31,0c-.59.11-.87-.14-1.08-.7A61.06,61.06,0,0,1,81.92,15c-.12-.41-.12-.41.26-.41h1c.33,0,.32.06.39.29a51.39,51.39,0,0,0,2.15,6.46A1.09,1.09,0,0,0,85.8,21.56Z"/><path class="cls-1" d="M100.63,16.14V11c0-.32,0-.5.42-.51a5.77,5.77,0,0,0,1-.17c.16,0,.22,0,.2.17a1.77,1.77,0,0,0,0,.25V20.79a4.42,4.42,0,0,0,0,.46.92.92,0,0,0,.86,1h0c.32.05.5.14.36.51a2.22,2.22,0,0,0-.08.45c-.08.51-.08.51-.58.44l-.42-.05a2,2,0,0,1-1.78-2.23h0C100.63,19.6,100.63,17.87,100.63,16.14Z"/><path class="cls-1" d="M54.13,16.19V10.88c0-.27.08-.38.34-.4a5.68,5.68,0,0,0,1-.17c.26-.08.28,0,.28.25q0,4.13,0,8.24V21c0,.71.23,1.08,1.08,1.3.19,0,.28.09.22.32a4.15,4.15,0,0,0-.14.84c0,.24-.13.27-.32.24s-.64-.08-.94-.15a1.86,1.86,0,0,1-1.45-1.86c-.09-1.66,0-3.33,0-5A1.71,1.71,0,0,1,54.13,16.19Z"/><path class="cls-1" d="M67.68,19.23v-4a.32.32,0,0,1,.26-.38h0a8.88,8.88,0,0,1,4.43-.25c.27.05.4.12.29.43a3.88,3.88,0,0,0-.15.8c0,.22-.1.26-.31.2a5.24,5.24,0,0,0-2.66,0c-.25.05-.29.16-.29.38v6.77c0,.3-.09.39-.38.37s-.92.16-1.15-.08-.05-.74-.06-1.08C67.67,21.26,67.68,20.25,67.68,19.23Z"/><path class="cls-1" d="M98.29,17.5a3.89,3.89,0,0,0-1.13-2.29,3.94,3.94,0,0,0-6,1.49,5.88,5.88,0,0,0-.08,4.58,3.38,3.38,0,0,0,2,2,6.46,6.46,0,0,0,4.57,0,.2.2,0,0,0,.16-.29,8.69,8.69,0,0,1-.16-.94c0-.16-.06-.2-.23-.14a5.17,5.17,0,0,1-1.86.36c-1.75,0-2.83-.51-3.16-2.45,0-.26,0-.34.29-.34h5.45c.24,0,.3-.06.3-.3A10.77,10.77,0,0,0,98.29,17.5Zm-1.75.7H92.37a2.94,2.94,0,0,1,.82-1.85,2.15,2.15,0,0,1,2.39-.41A2.35,2.35,0,0,1,96.74,18c0,.14-.05.17-.18.17Z"/><path class="cls-1" d="M80.51,17.68a5.32,5.32,0,0,0-.08-.88A2.5,2.5,0,0,0,79,14.73a6.46,6.46,0,0,0-4.31,0c-.17,0-.14.16-.12.28a6,6,0,0,0,.16,1.08,6.87,6.87,0,0,1,2.56-.31,1.64,1.64,0,0,1,1.61,1.42,7.22,7.22,0,0,1,.08.81c0,.27-.1.28-.3.23a6.13,6.13,0,0,0-2.88,0A2.54,2.54,0,0,0,73.6,20.6,2.53,2.53,0,0,0,75,23.26a4.05,4.05,0,0,0,1.61.38,18.45,18.45,0,0,0,3.59-.27c.25,0,.33-.1.33-.37C80.5,21.24,80.51,19.46,80.51,17.68ZM79,20.91V22c0,.15,0,.24-.2.25a7.8,7.8,0,0,1-2.36,0,1.28,1.28,0,0,1-1.19-1.33,1.3,1.3,0,0,1,1.08-1.37,5.17,5.17,0,0,1,2.48,0c.17,0,.23.12.22.29a8.86,8.86,0,0,0,0,1.08Z"/><path class="cls-1" d="M65.06,20.21V17.51a2.76,2.76,0,0,0-2-3,7.23,7.23,0,0,0-3.74.14.2.2,0,0,0-.17.28,8.12,8.12,0,0,0,.13.87c0,.29.09.24.28.17a6.65,6.65,0,0,1,2.27-.25,1.65,1.65,0,0,1,1.69,1.45,6.94,6.94,0,0,1,.06.7c0,.29,0,.38-.36.31a5.53,5.53,0,0,0-3.53.29A2.71,2.71,0,0,0,59,22.85a3.34,3.34,0,0,0,2.15.76,18.48,18.48,0,0,0,3.77-.28c.22,0,.19-.15.19-.3Q65.06,21.64,65.06,20.21ZM63.49,22c0,.13,0,.22-.18.24a7.86,7.86,0,0,1-2.36,0,1.37,1.37,0,0,1-.15-2.69,5.11,5.11,0,0,1,2.48,0,.23.23,0,0,1,.21.24v1.1C63.48,21.22,63.49,21.64,63.49,22Z"/></g></g></svg>