<svg xmlns="http://www.w3.org/2000/svg" viewBox="0 0 98.83 31.75"><defs><style>.cls-1{fill:#fefefe;}.cls-2{fill:#828282;}</style></defs><title>laravel_logo</title><g id="Layer_2" data-name="Layer 2"><path class="cls-1" d="M11.56-.7a11,11,0,0,1-1.19.11L3,0,2.22.07A.83.83,0,0,0,1.4.62c0-.39,0-.77,0-1.16,0-.13,0-.17.16-.17h10Z"/><path class="cls-2" d="M45,14.78,40.69,9.4a11.92,11.92,0,0,0-1-1.16,1.09,1.09,0,0,0-1-.31l-5.38.9a6.79,6.79,0,0,0-1.22.24c-.37.14-.45.38-.23.71L32,10l4,5.73.2.29-.17.05L23.26,19.1A.21.21,0,0,1,23,19l-2.5-4.19L12.64,1.68c-.22-.37-.44-.74-.91-.85h-.87a.36.36,0,0,1-.19,0c-.41,0-.82,0-1.23,0l-2.17.17-1.89.16L3.32,1.4c-.37,0-.75,0-1.12.11A.58.58,0,0,0,1.64,2v.44c.1.25.17.5.28.74C2.5,4.47,3.08,5.74,3.66,7L9.85,20.39l1,2.19a1.7,1.7,0,0,0,1.33,1.05,2.47,2.47,0,0,0,1-.08c3-.74,5.9-1.51,8.84-2.29a.22.22,0,0,1,.31.13C23.73,24,25.13,26.51,26.61,29a5.43,5.43,0,0,0,.87,1.24,1.12,1.12,0,0,0,.83.34,4.29,4.29,0,0,0,1.3-.31q2.35-.81,4.68-1.65l9.17-3.31a3,3,0,0,0,.61-.28.4.4,0,0,0,.17-.59,2.73,2.73,0,0,0-.25-.38l-5.12-6.88c-.09-.12-.11-.17.07-.22l4.24-1.12c.54-.14,1.09-.28,1.63-.44S45.27,15.08,45,14.78ZM20.84,19.69l-7.56,1.8c-.51.12-.51.12-.73-.34L5.5,6.61,3.78,3.08a.93.93,0,0,1-.06-.15c-.05-.18,0-.23.17-.24l5.63-.49L11,2.06c.17-.05.24.09.32.23l4.39,7.58,5.36,9.26C21.31,19.54,21.28,19.59,20.84,19.69Zm21,3.82v0c.19.28.17.35-.15.46l-2.07.71L29.14,28.25a1.45,1.45,0,0,1-.38.12.41.41,0,0,1-.3-.14,2.2,2.2,0,0,1-.36-.5c-1.35-2.26-2.66-4.55-4-6.82-.08-.14,0-.17.1-.21L36,17.63l1-.28a.33.33,0,0,1,.39.13C38.87,19.51,40.37,21.49,41.82,23.51Zm1.07-9.15c-.45.13-.91.23-1.37.35l-3.68.91a.22.22,0,0,1-.27-.1l-3.74-5.13,0-.06c-.13-.2-.11-.27.13-.31l1.86-.33,3-.55.11,0a.5.5,0,0,1,.4.24l2.75,3.51L43,14C43.13,14.2,43.11,14.29,42.88,14.36Z"/><path class="cls-2" d="M80.71,20.43c.37-.82.65-1.63.94-2.44.44-1.24.83-2.49,1.15-3.76,0-.18.11-.26.31-.24a8.33,8.33,0,0,0,1,0c.29,0,.29.09.23.32a42.81,42.81,0,0,1-1.4,4.2c-.45,1.15-.93,2.29-1.43,3.42-.1.23-.22.32-.47.29a.91.91,0,0,0-.29,0c-.55.1-.81-.13-1-.65a56.68,56.68,0,0,1-2.64-7.19C77,14,77,14,77.35,14s.61,0,.92,0,.3.06.36.27a47.7,47.7,0,0,0,2,6C80.63,20.28,80.66,20.34,80.71,20.43Z"/><path class="cls-2" d="M94.47,15.39c0-1.6,0-3.2,0-4.8,0-.3,0-.46.39-.47a5.36,5.36,0,0,0,.9-.16c.15,0,.2,0,.19.16s0,.15,0,.23q0,4.68,0,9.36a4.1,4.1,0,0,0,0,.43.85.85,0,0,0,.82.9c.3.05.46.13.33.47a2.06,2.06,0,0,0-.07.42c-.07.47-.07.47-.54.41l-.39-.05a1.87,1.87,0,0,1-1.65-2.07C94.47,18.61,94.47,17,94.47,15.39Z"/><path class="cls-2" d="M51.31,15.44c0-1.64,0-3.29,0-4.93,0-.25.07-.35.32-.37a5.27,5.27,0,0,0,.9-.16c.24-.07.26,0,.26.23q0,3.83,0,7.65c0,.67,0,1.34,0,2s.21,1,1,1.21c.18,0,.26.08.2.3a3.85,3.85,0,0,0-.13.78c0,.22-.12.25-.3.22s-.59-.07-.87-.14a1.73,1.73,0,0,1-1.35-1.73c-.08-1.54,0-3.09,0-4.63C51.3,15.72,51.31,15.58,51.31,15.44Z"/><path class="cls-2" d="M63.89,18.26c0-1.23,0-2.45,0-3.68a.3.3,0,0,1,.25-.35A8.24,8.24,0,0,1,68.25,14c.25.05.37.11.27.4a3.6,3.6,0,0,0-.14.74c0,.2-.09.24-.29.19a4.86,4.86,0,0,0-2.47,0c-.23.05-.27.15-.27.35,0,2.09,0,4.19,0,6.28,0,.28-.08.36-.35.34s-.85.15-1.07-.07-.05-.69-.06-1C63.88,20.15,63.89,19.21,63.89,18.26Z"/><path class="cls-2" d="M92.3,16.66a3.61,3.61,0,0,0-1.05-2.13,3.66,3.66,0,0,0-5.59,1.38,5.46,5.46,0,0,0-.07,4.25A3.14,3.14,0,0,0,87.41,22a6,6,0,0,0,4.24,0,.19.19,0,0,0,.15-.27,8.07,8.07,0,0,1-.15-.87c0-.15-.06-.19-.21-.13a4.8,4.8,0,0,1-1.73.33c-1.62,0-2.63-.47-2.93-2.27,0-.24,0-.32.27-.32.83,0,1.67,0,2.5,0s1.71,0,2.56,0c.22,0,.28-.06.28-.28A10,10,0,0,0,92.3,16.66Zm-1.62.65H86.81a2.73,2.73,0,0,1,.76-1.72,2,2,0,0,1,2.22-.38,2.18,2.18,0,0,1,1.07,1.94C90.85,17.28,90.81,17.31,90.69,17.31Z"/><path class="cls-2" d="M75.8,16.82a4.94,4.94,0,0,0-.07-.82,2.32,2.32,0,0,0-1.38-1.91,6,6,0,0,0-4,0c-.16,0-.13.15-.11.26,0,.34.09.67.15,1a6.38,6.38,0,0,1,2.38-.29,1.52,1.52,0,0,1,1.49,1.32,6.7,6.7,0,0,1,.07.75c0,.25-.09.26-.28.21a5.69,5.69,0,0,0-2.67,0,2.36,2.36,0,0,0-2,2.19A2.35,2.35,0,0,0,70.67,22a3.76,3.76,0,0,0,1.49.35,17.13,17.13,0,0,0,3.33-.25c.23,0,.31-.09.31-.34C75.79,20.13,75.8,18.48,75.8,16.82Zm-1.44,3c0,.34,0,.68,0,1,0,.14,0,.22-.19.23a7.24,7.24,0,0,1-2.19,0,1.19,1.19,0,0,1-1.1-1.23,1.21,1.21,0,0,1,1-1.27,4.8,4.8,0,0,1,2.3,0c.16,0,.21.11.2.27C74.34,19.14,74.35,19.48,74.35,19.82Z"/><path class="cls-2" d="M61.46,19.17c0-.83,0-1.66,0-2.5a2.56,2.56,0,0,0-1.89-2.74,6.71,6.71,0,0,0-3.47.13.19.19,0,0,0-.16.26c0,.27.09.54.12.81s.08.22.26.16a6.17,6.17,0,0,1,2.11-.23A1.53,1.53,0,0,1,60,16.41a6.44,6.44,0,0,1,.06.65c0,.27,0,.35-.33.29a5.13,5.13,0,0,0-3.28.27,2.52,2.52,0,0,0-.62,4,3.1,3.1,0,0,0,2,.71,17.15,17.15,0,0,0,3.5-.26c.2,0,.18-.14.18-.28Q61.46,20.5,61.46,19.17ZM60,20.84c0,.12,0,.2-.17.22a7.3,7.3,0,0,1-2.19,0,1.27,1.27,0,0,1-.14-2.5,4.74,4.74,0,0,1,2.3,0,.21.21,0,0,1,.19.25c0,.35,0,.7,0,1S60,20.5,60,20.84Z"/></g></svg>