<svg xmlns="http://www.w3.org/2000/svg" xmlns:xlink="http://www.w3.org/1999/xlink" viewBox="0 0 70 70"><defs><style>.cls-1,.cls-2{fill:none;}.cls-2{stroke:#fff;stroke-miterlimit:10;stroke-width:3px;}.cls-3{clip-path:url(#clip-path);}.cls-4{fill:#fff;}</style><clipPath id="clip-path"><rect class="cls-1" x="18.22" y="22.38" width="34.78" height="26.09"/></clipPath></defs><title>menu</title><g id="Layer_4" data-name="Layer 4"><circle class="cls-2" cx="35" cy="35" r="33"/><g class="cls-3"><path class="cls-4" d="M19.31,25.6H51.92c.6,0,1.09-.73,1.09-1.62s-.49-1.62-1.09-1.62H19.31c-.6,0-1.09.73-1.09,1.62s.49,1.62,1.09,1.62Z"/><path class="cls-4" d="M51.92,33.71H19.31c-.6,0-1.09.73-1.09,1.62S18.71,37,19.31,37H51.92c.6,0,1.09-.73,1.09-1.62s-.49-1.62-1.09-1.62Z"/><path class="cls-4" d="M51.92,45.06H30.18c-.6,0-1.09.73-1.09,1.62s.49,1.62,1.09,1.62H51.92c.6,0,1.09-.73,1.09-1.62s-.49-1.62-1.09-1.62Z"/></g></g></svg>