<svg xmlns="http://www.w3.org/2000/svg" viewBox="0 0 116.17 36.19"><defs><style>.cls-1{font-size:16.64px;}.cls-1,.cls-2,.cls-3,.cls-4{fill:#828282;}.cls-1,.cls-4{font-family:Arial-BoldMT, Arial;font-weight:700;}.cls-3,.cls-4{font-size:15.01px;}.cls-3{font-family:ArialMT, Arial;}</style></defs><title>photoshop_logo</title><g id="Layer_2" data-name="Layer 2"><text class="cls-1" transform="translate(-65.32 16.7)">Android </text><path class="cls-2" d="M22.37,24.23a7.17,7.17,0,0,1-3.14-.89l-.65,2.61a8.25,8.25,0,0,0,3.79.82c3.35,0,5.08-1.61,5.08-3.79,0-1.72-1-2.85-3.19-3.62-1.43-.51-1.88-.8-1.88-1.35s.5-1,1.39-1a5.78,5.78,0,0,1,2.54.67L27,15.21a7.85,7.85,0,0,0-3.31-.67c-2.9,0-4.77,1.66-4.77,3.84,0,1.39.91,2.71,3.34,3.53,1.36.46,1.72.75,1.72,1.34s-.46,1-1.56,1Zm0,0"/><path class="cls-2" d="M10.42,20.75a9.32,9.32,0,0,0,1.24.06,7.48,7.48,0,0,0,5.25-1.7,5.14,5.14,0,0,0,1.49-3.84,4.69,4.69,0,0,0-1.73-3.74,7.69,7.69,0,0,0-4.94-1.3,30.14,30.14,0,0,0-4.93.34V26.53h3.62Zm0-7.6a6,6,0,0,1,1.5-.15c1.83,0,2.85.88,2.86,2.37C14.79,17,13.58,18,11.64,18a5.89,5.89,0,0,1-1.22-.09Zm0,0"/><path class="cls-2" d="M1,2.37V34.65H33.27V2.37ZM31.27,32.65H3V4.36H31.27Zm0,0"/><text class="cls-3" transform="translate(37.69 17.98)">Adobe</text><text class="cls-4" transform="translate(36.54 30.05)">Photoshop</text></g></svg>