<svg xmlns="http://www.w3.org/2000/svg" viewBox="0 0 95 112.67"><defs><style>.cls-1,.cls-7{fill:#2f94ec;}.cls-2{fill:#4abbf8;}.cls-3{fill:#fff;}.cls-4{fill:#2a557f;}.cls-5{fill:none;stroke:#f7d915;stroke-miterlimit:10;stroke-width:2.64px;}.cls-6{fill:#f7d915;}.cls-7{font-size:30.29px;font-family:OdibeeSans-Regular, Odibee Sans;}</style></defs><title>professional_05</title><g id="Layer_2" data-name="Layer 2"><path class="cls-1" d="M31.68,57.09c2.23-.84,1.51,3.86,3.78,6C37.17,64.7,38,66.86,40.21,67c1.19.07,2.72-1.62,3.83-.66.95.83,1.26,1.37,1.54.5A9.77,9.77,0,0,1,47.41,63c1.53-1.64,3.12-3.28,5.66-1.35A3.92,3.92,0,0,0,58,62c3-2,6.32-.21,7,3.47.13.65.11,1.33.27,2,.36,1.44.89.83,2.24-1s3.39-.11,5-.75c3.42-2.5,3.08-2.37,5.81-9.71,0-.56.56,1,.64.45.27.08.59.12.59.18.34,6.31,1.38,12.7-1.16,18.78-1.1,2.64-3.37,4.3-5.76,6C68.21,84.46,63.35,84,58.45,84c-3.9,0-7.8.07-11.7,0a15.69,15.69,0,0,1-15-12.73C30.81,66.56,31.49,61.84,31.68,57.09ZM55.87,66.9a10.9,10.9,0,0,0,4.9-1.44c.68-.42.51-.55,0-1.4s0-.62-.67-.23a7.87,7.87,0,0,1-8.79,0c-.67-.4-.74-.5-1.17.15s-.34.8.19,1.25C52.06,66.67,53.86,66.62,55.87,66.9Zm.05,1.62c-1,0-1.36-.48-1.37.89,0,.79-.57.93.42.47s2.69.94,2.8-.84C57.82,68.08,56.77,68.51,55.92,68.52Z"/><path class="cls-1" d="M78.89,43.12c-1.64.94-1.92-.14-2.64-1.74S74.74,36,73.63,34.63c-.91-1.08-3.66-1.85-2-3.44.38-.36,1.09-1,.63-1.44s.24-1.58-.25-1.06c-3.53,3.8-8.22,5.72-13,7a18.1,18.1,0,0,1-15.83-3c-2.76-2-3.87-.25-5.69,2.55a24.19,24.19,0,0,0-3.56,9.63c-2.12-2.71-3.94-10.33-2.5-12.9a4.83,4.83,0,0,1,4.36-2.69A2.22,2.22,0,0,0,38.21,27c.7-4.75,2.37-7.94,8-9.32,8.87-2.18,17-1.45,25,2.6a9.67,9.67,0,0,1,5.05,7.5c.38,2.86,1.21,5,4.45,5.33a2.15,2.15,0,0,1,1.91,3.11C81.66,38.63,81.14,41.31,78.89,43.12Z"/><path class="cls-1" d="M55.85,108.66c-5.71,0-11.43-.09-17.13,0-2.23.05-2.92-.73-2.76-2.85.26-3.56-.66-7.22.51-10.67,1.35-4,5.32-5.2,8.56-7.09.64-.37,1.36-.6,2-1,.88-.56,2.3-.55,2.67.64,1.62,5.28,6,6.91,10.54,3.67,1-.69,1-2.28,1.63-3.46a1.78,1.78,0,0,1,2.49-.4c2.47,2,5.94,1.92,8.18,4.46,1.87,2.12,3.07,4.3,3,7.14,0,2.42-.09,4.84,0,7.26.08,1.78-.59,2.36-2.35,2.33-5.81-.08-11.62,0-17.42,0Z"/><path class="cls-2" d="M76.44,109.82s-37.47.61-42.94-1c1.57,0,1.56.7,1.52-3.13,0-2,0-4,0-6-.2-5.45,2.2-9.22,7.17-11.41,1.48-.65,2.89-1.44,4.67-2.34A57.1,57.1,0,0,1,41,84.35a17.22,17.22,0,0,1-10.89-16c0-2.1,0-4.2,0-6.3s0-4-1.32-5.94a5.57,5.57,0,0,1,2.66-8.06c2.18-1,2-1.62.7-3.26-2.76-3.53-3.19-7.73-2.45-12a6.81,6.81,0,0,1,5.1-5.54c.74-.22,1.77,0,2-1.42,1-7,5.83-9.69,12.1-10.65,6.69-1,13.31-.82,19.62,1.93,4.79,2.09,8.16,5.44,8.93,10.9.2,1.4.54,2.47,2.59,2.23,2.52-.29,4.05,2.06,3.69,5.17a16.06,16.06,0,0,1-4.25,9c-1.54,1.69-1.74,2.59.66,3.76a5.71,5.71,0,0,1,2.08,8.47A7,7,0,0,0,81,61a73.64,73.64,0,0,1-.15,9.58c-1,8.2-6.29,13-16.45,15.23l5.73,2.95c4,2.07,5.94,5.38,6.1,9.91.11,3,.11,7.52.33,10.55C77.37,109.82,76.44,109.82,76.44,109.82ZM76,52.25h0c0-2.55.14-5.12,0-7.66a21.54,21.54,0,0,0-2.43-7.43c-1.79-3.87-3-4.44-6.53-2.64-1.3.66-2.6,1.32-4,1.86-6.31,2.49-12.52,3.05-18.58-.82-4.24-2.71-4.6-2.55-6.91,2.05-.08.16-.18.32-.25.48C34,45.42,35.26,53.14,35.64,60.73c.11,2.22,2.08,3.8,4.5,4.13,2.27.31,4.44.58,5.54-2.35.61-1.62,2.26-2.55,4-3.17.64-.23,1.56-.15,1.77-1s.41-1.54,1.35-1.3.74,1.14.79,1.85a2.05,2.05,0,0,0,1.64,1.95,2,2,0,0,0,2-.67c.9-.88,0-2.68,1.34-3.09,1.6-.51.94,2,2.59,2.23,2.54.4,4.29,2.26,5.37,4.64a1.6,1.6,0,0,0,1.12,1A6.59,6.59,0,0,0,76,58.54C76.08,56.44,76,54.34,76,52.25ZM32.66,57.62c-.18,4.56-.83,9.08,0,13.61A15.05,15.05,0,0,0,47.11,83.44c3.74.09,7.48,0,11.23,0,4.7,0,9.37.42,13.64-2.56,2.29-1.61,4.47-3.19,5.53-5.73,2.43-5.84,1.43-12,1.11-18,0-.06-.31-.1-.57-.17-.07.55-.18,1.08-.2,1.62-.18,5.07-1.38,6.47-6.12,8.41-1.5.61-3.33-.38-4.54,1.27s-1.89.64-2.23-.74c-.15-.61-.13-1.27-.25-1.89C64,62.1,60.79,60.44,58,62.31A3.77,3.77,0,0,1,53.17,62c-2.44-1.85-4-.28-5.43,1.29A9.37,9.37,0,0,0,46,67c-.27.83-.87,1.65-1.78.86-1.06-.93-2.23-.64-3.37-.71a8.24,8.24,0,0,1-5.51-2.34C33.16,62.73,33.45,60.09,32.66,57.62ZM78,42.61c2.16-1.74,2.66-4.32,3.52-6.63a2.07,2.07,0,0,0-1.84-3c-3.11-.36-3.91-2.38-4.28-5.13a9.3,9.3,0,0,0-4.86-7.21c-7.63-3.9-15.49-4.6-24-2.5-5.39,1.32-7,4.39-7.66,9a2.13,2.13,0,0,1-2.32,2.13,4.64,4.64,0,0,0-4.19,2.59c-1.39,2.48-.83,7.81,1.2,10.41.52-3.43,2.34-6.1,4.09-8.8s3.35-2.87,6-.91a17.41,17.41,0,0,0,15.22,2.91c4.58-1.2,9.09-3,12.49-6.7.47-.5,1.1-.78,1.68-.27A1.09,1.09,0,0,1,73.17,30c-1.6,1.52-.32,2.59.55,3.63a17.65,17.65,0,0,1,2.41,4.23C76.83,39.37,76.74,41.24,78,42.61ZM55.84,108v0c5.47,0,10.95,0,16.42,0,1.65,0,2.29-.52,2.21-2.2-.11-2.28-.05-4.56,0-6.84a9.71,9.71,0,0,0-2.87-6.73c-2.11-2.4-5.38-2.35-7.71-4.2-.73-.58-1.2.34-1.53,1-.55,1.11-.9,2.57-1.81,3.22a7.14,7.14,0,0,1-11.26-3.8c-.34-1.13-.89-1.39-1.72-.86-.62.39-1.3.61-1.9,1-3.05,1.79-6.79,2.91-8.07,6.69-1.1,3.25-.23,6.71-.48,10.06-.15,2,.5,2.74,2.6,2.69C45.07,107.94,50.46,108,55.84,108ZM55.6,85.66c-1.09,0-2.18.05-3.26,0s-1.89,1-1.63,1.62c.82,1.88,1.85,3.78,4.19,4.21a4.4,4.4,0,0,0,4.8-2.3c1.4-2.28.71-3.45-1.93-3.52C57.05,85.64,56.33,85.65,55.6,85.66ZM33.2,49.55c-3.21,1.79-3.7,3.21-2.35,6C34,54.64,33.26,52.11,33.2,49.55Zm45.13,0c-.06.17-.75,3.56.14,4.79.41.57,1.46,1.23,2,1.06,1-.35.7-1.26.07-1.94s.35-.39.34-1C80.92,50.93,79.83,50.32,78.34,49.53Z"/><path class="cls-3" d="M76,52.25c0,2.1,0,4.2,0,6.29A6.59,6.59,0,0,1,67.58,65a1.6,1.6,0,0,1-1.12-1c-1.09-2.37-2.84-4.24-5.37-4.64-1.65-.26-1-2.74-2.59-2.23-1.29.41-.44,2.21-1.34,3.09a2,2,0,0,1-2,.67,2.05,2.05,0,0,1-1.64-1.95c-.05-.71.1-1.62-.79-1.85s-1.16.52-1.35,1.3-1.14.79-1.77,1c-1.69.62-3.35,1.55-4,3.17-1.1,2.94-3.27,2.66-5.54,2.35-2.43-.33-4.39-1.91-4.5-4.13-.38-7.59-1.66-15.31,1.67-22.64.08-.17.17-.32.25-.48,2.31-4.6,2.67-4.76,6.91-2.05,6.06,3.87,12.27,3.31,18.58.82,1.35-.53,2.66-1.2,4-1.86,3.55-1.79,4.74-1.23,6.53,2.64A21.54,21.54,0,0,1,76,44.59c.18,2.54,0,5.1,0,7.66ZM47.58,49.7a3.93,3.93,0,0,0-3.35,2c-.4.63-.75,1.41,0,1.95s1.29-.14,1.7-.76c1-1.54,2.09-1.63,3.15-.07.43.64.63,1.79,1.7,1.13s.36-1.64,0-2.39A3.64,3.64,0,0,0,47.58,49.7Zm16.38,0a3.62,3.62,0,0,0-3.34,2c-.33.62-.8,1.39,0,2s1.29,0,1.68-.73c.82-1.46,1.82-1.71,3-.34.45.54.41,1.83,1.66,1.15s0-1.62-.13-2.29C66.56,50.16,65.16,49.88,64,49.71Z"/><path class="cls-3" d="M55.6,85.66c.72,0,1.45,0,2.17,0,2.64.07,3.32,1.24,1.93,3.52a4.4,4.4,0,0,1-4.8,2.3c-2.33-.43-3.37-2.34-4.19-4.21-.25-.58.41-1.69,1.63-1.62S54.52,85.66,55.6,85.66Z"/><path class="cls-4" d="M47.58,49.7a3.65,3.65,0,0,1,3.13,1.86c.41.75,1.13,1.72,0,2.39s-1.26-.5-1.7-1.13c-1.06-1.56-2.13-1.47-3.15.07-.41.62-.88,1.35-1.7.76s-.39-1.32,0-1.95A3.94,3.94,0,0,1,47.58,49.7Z"/><path class="cls-4" d="M64,49.71c1.21.17,2.6.46,2.81,1.73.11.67,1.51,1.55.13,2.29s-1.2-.61-1.66-1.15c-1.15-1.38-2.15-1.13-3,.34-.39.69-.85,1.33-1.68.73s-.31-1.34,0-2A3.62,3.62,0,0,1,64,49.71Z"/><path class="cls-4" d="M55.86,67c-1.93-.26-4-.15-5.62-1.55-.5-.43-1-.92-.53-1.61a1.11,1.11,0,0,1,1.66-.29,7.53,7.53,0,0,0,8.42,0c.61-.38,1.21-.42,1.63.29a1.27,1.27,0,0,1-.6,1.84A11.5,11.5,0,0,1,55.86,67Z"/><path class="cls-4" d="M57.25,68.2c-.24,0-.51,0-.78,0s-.54,0-.78,0c-.94,0-1.88,0-1.9,1.34,0,.76.14,1.29,1.09.85a4.75,4.75,0,0,1,1.59-.17,4.75,4.75,0,0,1,1.59.17c.95.44,1.1-.09,1.09-.85C59.13,68.23,58.19,68.22,57.25,68.2Z"/><circle class="cls-5" cx="12.3" cy="43.71" r="8.9"/><circle class="cls-6" cx="87.16" cy="77.91" r="4.93"/><text class="cls-7" transform="translate(24.92 16.75)">+</text><rect class="cls-3" x="61.27" y="98.06" width="8.44" height="1.05" rx="0.53" ry="0.53"/><rect class="cls-2" x="23.31" y="108.19" width="65.35" height="2.25" rx="1.12" ry="1.12"/></g></svg>