<svg xmlns="http://www.w3.org/2000/svg" xmlns:xlink="http://www.w3.org/1999/xlink" viewBox="0 0 41.25 42"><defs><style>.cls-1{fill:none;}.cls-2{clip-path:url(#clip-path);}</style><clipPath id="clip-path"><rect class="cls-1" x="1.65" y="1.94" width="38.96" height="39.06"/></clipPath></defs><title>project_icon</title><g id="Layer_4" data-name="Layer 4"><g class="cls-2"><path d="M14.27,11.1H25.76a1.14,1.14,0,1,0,0-2.28H14.27a1.14,1.14,0,0,0,0,2.28Zm0,0"/><path d="M34.74,5.26,31.46,8.54V3.11A1.14,1.14,0,0,0,30.32,2H9.63a1.15,1.15,0,0,0-.81.33L2,9.15a1.15,1.15,0,0,0-.33.81V35.21a5.71,5.71,0,0,0,5.7,5.7h23a5.71,5.71,0,0,0,5.7-5.7V32.92a1.14,1.14,0,0,0-1.14-1.14H31.46V18.22l8.12-8.12a3.42,3.42,0,1,0-4.84-4.84ZM8.49,5.87V8.82H5.54Zm2.28,27.06v2.28a3.42,3.42,0,1,1-6.84,0V11.1h5.7A1.14,1.14,0,0,0,10.77,10V4.26h18.4v6.57l-2.56,2.56H7.35a1.14,1.14,0,0,0,0,2.28h17l-2.28,2.28H7.35a1.14,1.14,0,0,0,0,2.28H19.78l-1.22,1.22a1.14,1.14,0,0,0-.28.45l-.2.61H7.35a1.14,1.14,0,0,0,0,2.28h10l-.56,1.69-.59.59H7.35a1.14,1.14,0,0,0,0,2.28h9.12a1.2,1.2,0,0,0,1-.33l.93-.93,4.58-1.53a1.14,1.14,0,0,0,.45-.28l5.78-5.78V31.78H11.92a1.14,1.14,0,0,0-1.14,1.14Zm12.37-9.61L22,24.48l-2.42.81.81-2.42,1.17-1.17Zm10.6,10.75v1.14a3.43,3.43,0,0,1-3.42,3.42H11.91a5.68,5.68,0,0,0,1.14-3.42V34.06ZM35.55,10.9,24.75,21.7l-1.61-1.61,10.8-10.8ZM38,8.48l-.81.81L35.55,7.68l.81-.81A1.14,1.14,0,1,1,38,8.48Zm0,0"/></g></g></svg>