<svg xmlns="http://www.w3.org/2000/svg" viewBox="0 0 110.66 35.08"><defs><style>.cls-1,.cls-2{fill:#45bdfe;}.cls-2{isolation:isolate;font-size:16.24px;font-family:BaskOldFace, Baskerville Old Face;}</style></defs><title>Website Workflow</title><g id="Layer_4" data-name="Layer 4"><g id="Layer_2-2" data-name="Layer 2"><path class="cls-1" d="M17.05.77a17,17,0,1,0,17,17s0,0,0,0A17,17,0,0,0,17.05.77Zm-15.27,17A15.19,15.19,0,0,1,3.1,11.53l7.28,20A15.27,15.27,0,0,1,1.78,17.75ZM17.05,33a15.29,15.29,0,0,1-4.31-.64l4.58-13.31L22,31.94a1.5,1.5,0,0,0,.11.21A15.25,15.25,0,0,1,17,33Zm2.11-22.45a11.35,11.35,0,0,0,1.75-.15.63.63,0,0,0-.1-1.26s-2.47.2-4.07.2-4.06-.19-4.06-.19a.63.63,0,0,0-.1,1.26s.78.1,1.6.15l2.4,6.52-3.33,10L7.7,10.55a11.35,11.35,0,0,0,1.75-.15.63.63,0,0,0-.1-1.26s-2.47.2-4.07.2h-1a15.27,15.27,0,0,1,23-2.84h-.2a2.64,2.64,0,0,0-2.57,2.71c0,1.26.73,2.32,1.5,3.58A8,8,0,0,1,27.32,17a18.45,18.45,0,0,1-1.16,4.94L24.68,27Zm5.57,20.36L29.4,17.46A14.42,14.42,0,0,0,30.56,12a11.71,11.71,0,0,0-.1-1.57,15.27,15.27,0,0,1-5.73,20.49Z"/><text class="cls-2" transform="translate(38.46 23.98)">Wordpress</text></g></g></svg>