<svg xmlns="http://www.w3.org/2000/svg" viewBox="0 0 116.17 36.19"><defs><style>.cls-1,.cls-2{fill:#828282;}.cls-2{font-size:16.64px;font-family:BaskOldFace, Baskerville Old Face;}</style></defs><title>wordpress_logo</title><g id="Layer_2" data-name="Layer 2"><path class="cls-1" d="M18.48.6A17.41,17.41,0,1,0,35.88,18,17.43,17.43,0,0,0,18.48.6ZM2.83,18a15.57,15.57,0,0,1,1.35-6.37l7.46,20.45A15.65,15.65,0,0,1,2.83,18ZM18.48,33.66A15.67,15.67,0,0,1,14.06,33l4.69-13.64,4.81,13.18a1.54,1.54,0,0,0,.11.22,15.63,15.63,0,0,1-5.2.89Zm2.16-23c.94,0,1.79-.15,1.79-.15a.65.65,0,0,0-.1-1.29s-2.53.2-4.17.2S14,9.23,14,9.23a.65.65,0,0,0-.1,1.29s.8.1,1.64.15L18,17.35,14.59,27.62l-5.7-17c.94,0,1.79-.15,1.79-.15a.65.65,0,0,0-.1-1.29s-2.53.2-4.17.2l-1,0A15.65,15.65,0,0,1,29,6.47h-.2a2.71,2.71,0,0,0-2.63,2.78c0,1.29.75,2.38,1.54,3.67A8.24,8.24,0,0,1,29,17.22a18.91,18.91,0,0,1-1.19,5.06L26.29,27.5Zm5.71,20.86,4.78-13.82a14.78,14.78,0,0,0,1.19-5.6,12,12,0,0,0-.1-1.61,15.65,15.65,0,0,1-5.87,21Zm0,0"/><text class="cls-2" transform="translate(40.42 24.38)">Wordpress</text></g></svg>