<svg xmlns="http://www.w3.org/2000/svg" xmlns:xlink="http://www.w3.org/1999/xlink" viewBox="0 0 42.48 40.25"><defs><style>.cls-1{fill:none;}.cls-2{clip-path:url(#clip-path);}.cls-3{fill:url(#linear-gradient);}.cls-4{fill:#fcd462;}.cls-5{fill:#44c4a1;opacity:0.74;}.cls-6{fill:#21847a;}.cls-7{fill:#e56353;}.cls-8{fill:#e2a437;}.cls-9{fill:#d15241;}</style><clipPath id="clip-path"><rect class="cls-1" x="123.06" y="-89.17" width="629" height="642"/></clipPath><linearGradient id="linear-gradient" x1="22.96" y1="231.47" x2="739.21" y2="231.47" gradientUnits="userSpaceOnUse"><stop offset="0" stop-color="#3f96ff"/><stop offset="1" stop-color="#0052aa"/></linearGradient></defs><title>color</title><g id="Layer_4" data-name="Layer 4"><g class="cls-2"><path class="cls-3" d="M47.13,60.73C55.2,43.58,86.3-22.5,160.59-56.82c15.8-7.3,90.09-41.62,153-11,83.23,40.46,57.6,151.31,135.16,206.19,66.7,47.19,138.37-41.15,218.45,1.87,41.8,22.45,75.34,71.35,76.65,115.27C748,392.54,442.6,624.67,216.24,514.52,51.47,434.35-17.88,198.88,47.13,60.73Z"/></g><path class="cls-4" d="M20.49,18.59a12.18,12.18,0,0,1,12-4.14A12.2,12.2,0,1,0,8.86,16a12.16,12.16,0,0,1,11.64,2.56Z"/><path class="cls-5" d="M17.69,26.37a12.23,12.23,0,0,1,.2-2.16,12.22,12.22,0,0,1-9-8.19A12.21,12.21,0,1,0,21.8,35.49,12.17,12.17,0,0,1,17.69,26.37Z"/><path class="cls-4" d="M17.89,24.22a12.16,12.16,0,0,1,2.6-5.63A12.16,12.16,0,0,0,8.86,16,12.22,12.22,0,0,0,17.89,24.22Z"/><path class="cls-6" d="M17.89,24.22a12.16,12.16,0,0,1,2.6-5.63A12.16,12.16,0,0,0,8.86,16,12.22,12.22,0,0,0,17.89,24.22Z"/><path class="cls-7" d="M32.49,14.45A12.21,12.21,0,0,1,24,24,12.2,12.2,0,0,1,21.8,35.49a12.2,12.2,0,1,0,10.69-21Z"/><path class="cls-8" d="M20.49,18.59A12.2,12.2,0,0,1,24,24a12.21,12.21,0,0,0,8.47-9.53,12.18,12.18,0,0,0-12,4.14Z"/><path class="cls-9" d="M24,24a12.13,12.13,0,0,1-6.13.24A12.08,12.08,0,0,0,21.8,35.49,12.2,12.2,0,0,0,24,24Z"/><path class="cls-9" d="M20.49,18.59a12.16,12.16,0,0,0-2.6,5.63A12.13,12.13,0,0,0,24,24,12.2,12.2,0,0,0,20.49,18.59Z"/></g></svg>