<svg xmlns="http://www.w3.org/2000/svg" xmlns:xlink="http://www.w3.org/1999/xlink" viewBox="0 0 535 284"><defs><style>.cls-1,.cls-10,.cls-11,.cls-12,.cls-18,.cls-2,.cls-8,.cls-9{opacity:0.5;}.cls-1,.cls-10,.cls-11,.cls-12,.cls-18,.cls-2,.cls-28,.cls-8,.cls-9{isolation:isolate;}.cls-1{fill:url(#linear-gradient);}.cls-2{fill:url(#linear-gradient-2);}.cls-3{fill:#eff2f7;}.cls-4{fill:#5bb59b;}.cls-5{fill:#fff;}.cls-6{fill:#524f63;}.cls-7{fill:#63a590;}.cls-8{fill:url(#linear-gradient-3);}.cls-9{fill:url(#linear-gradient-4);}.cls-10{fill:url(#linear-gradient-5);}.cls-11{fill:url(#linear-gradient-6);}.cls-12{fill:url(#linear-gradient-7);}.cls-13{fill:#e0e4ed;}.cls-14{fill:#424051;}.cls-15{fill:#eebcc5;}.cls-16{fill:#9092ec;}.cls-17{fill:#ead18c;}.cls-18{fill:url(#linear-gradient-8);}.cls-19{fill:#91616a;}.cls-20{fill:#5b61d3;}.cls-21{fill:#8385e6;}.cls-22{fill:url(#linear-gradient-9);}.cls-23{fill:url(#linear-gradient-10);}.cls-24,.cls-28{fill:#4a4549;}.cls-25{fill:url(#linear-gradient-11);}.cls-26{fill:#d98e9d;}.cls-27{fill:url(#linear-gradient-12);}.cls-28{opacity:0.7;}.cls-29{fill:#75454f;}.cls-30{fill:#8284e5;}.cls-31{fill:#37354c;}.cls-32{fill:url(#linear-gradient-13);}.cls-33{fill:none;stroke:#524f63;stroke-miterlimit:10;stroke-width:0.52px;}.cls-34{fill:#bcbace;}.cls-35{fill:url(#linear-gradient-14);}</style><linearGradient id="linear-gradient" x1="71.67" y1="-396.72" x2="-10.32" y2="-451.38" gradientTransform="matrix(1, 0, 0, -1, 0, -161.89)" gradientUnits="userSpaceOnUse"><stop offset="0" stop-color="#4a50c2" stop-opacity="0.02"/><stop offset="1" stop-color="#444bcc" stop-opacity="0.64"/></linearGradient><linearGradient id="linear-gradient-2" x1="532.96" y1="-397.84" x2="450.97" y2="-452.5" xlink:href="#linear-gradient"/><linearGradient id="linear-gradient-3" x1="146.12" y1="-384.16" x2="-38.61" y2="-507.31" xlink:href="#linear-gradient"/><linearGradient id="linear-gradient-4" x1="522.3" y1="-389.76" x2="337.57" y2="-512.92" xlink:href="#linear-gradient"/><linearGradient id="linear-gradient-5" x1="275.99" y1="-382.49" x2="91.26" y2="-505.64" xlink:href="#linear-gradient"/><linearGradient id="linear-gradient-6" x1="424.9" y1="-380.24" x2="240.17" y2="-503.4" xlink:href="#linear-gradient"/><linearGradient id="linear-gradient-7" x1="310.63" y1="-384.86" x2="199.55" y2="-458.91" xlink:href="#linear-gradient"/><linearGradient id="linear-gradient-8" x1="173.44" y1="-300.43" x2="189.89" y2="-300.43" gradientTransform="matrix(1, 0, 0, -1, 0, -161.89)" gradientUnits="userSpaceOnUse"><stop offset="0" stop-color="#ead18c" stop-opacity="0"/><stop offset="1" stop-color="#524f63" stop-opacity="0.7"/></linearGradient><linearGradient id="linear-gradient-9" x1="129.23" y1="-303.3" x2="167.31" y2="-303.3" gradientTransform="matrix(1, 0, 0, -1, 0, -161.89)" gradientUnits="userSpaceOnUse"><stop offset="0" stop-color="#484ec2" stop-opacity="0"/><stop offset="1" stop-color="#444bcc" stop-opacity="0.5"/></linearGradient><linearGradient id="linear-gradient-10" x1="182.24" y1="-321.42" x2="263.37" y2="-289.33" xlink:href="#linear-gradient-8"/><linearGradient id="linear-gradient-11" x1="262.69" y1="-270.05" x2="277.9" y2="-229.84" xlink:href="#linear-gradient-9"/><linearGradient id="linear-gradient-12" x1="346.48" y1="-302.4" x2="382.54" y2="-302.4" gradientTransform="matrix(1, 0, 0, -1, 0, -161.89)" gradientUnits="userSpaceOnUse"><stop offset="0" stop-color="#b6567a" stop-opacity="0"/><stop offset="1" stop-color="#c45771"/></linearGradient><linearGradient id="linear-gradient-13" x1="430.42" y1="-300.39" x2="435.53" y2="-268.97" xlink:href="#linear-gradient-9"/><linearGradient id="linear-gradient-14" x1="262.68" y1="-347.7" x2="282.09" y2="-258.14" gradientTransform="matrix(1, 0, 0, -1, 0, -161.89)" gradientUnits="userSpaceOnUse"><stop offset="0" stop-color="#676475" stop-opacity="0"/><stop offset="1" stop-color="#524f63" stop-opacity="0.7"/></linearGradient></defs><title>header_images02</title><g id="Layer_4" data-name="Layer 4"><g id="Layer_2-2" data-name="Layer 2"><g id="OBJECTS"><ellipse class="cls-1" cx="43.64" cy="253.52" rx="25.08" ry="3.5"/><ellipse class="cls-2" cx="504.92" cy="254.64" rx="25.08" ry="3.5"/><polygon class="cls-3" points="482.08 27.75 459.92 27.75 459.92 70.22 432.6 70.22 432.6 82.22 410.32 82.22 410.32 17.61 383.53 17.61 383.53 97.94 357.84 97.94 357.84 27.9 337.71 27.9 337.71 85.65 332.68 85.65 332.68 73.65 306.55 73.65 306.55 97.65 296.74 97.65 296.74 13.97 274.45 13.97 274.45 82.22 274.41 82.22 274.41 138.06 482.08 138.06 482.08 27.75"/><polygon class="cls-3" points="257.05 27.75 239.36 27.75 239.36 70.22 212.04 70.22 212.04 82.22 189.76 82.22 189.76 17.61 162.97 17.61 162.97 97.94 137.28 97.94 137.28 27.9 117.15 27.9 117.15 85.65 112.12 85.65 112.12 73.65 85.98 73.65 85.98 97.65 76.18 97.65 76.18 13.97 49.37 13.97 49.37 115.37 49.37 138.06 257.05 138.06 257.05 27.75"/><path class="cls-4" d="M24.18,145s-7.78,34.38,4.54,57.73L41,226.08S44.29,167.7,24.18,145Z"/><path class="cls-5" d="M24.71,234.74c.75,4.21,1.71,8.47,3.8,12.21s5.46,6.95,9.62,8a22.07,22.07,0,0,0,5.79.4A12.7,12.7,0,0,0,50.1,254c2.39-1.41,3.65-4.13,4.64-6.7a78.47,78.47,0,0,0,3.72-13.57c.48-2.67.79-5.56-.45-8-1.69-3.26-5.64-4.57-9.28-5.16-6-1-14.32-1.49-20.11,1C23.57,223.7,23.89,230.14,24.71,234.74Z"/><path class="cls-6" d="M38.37,226.19c4.78.28,10-.45,13-2.06.6-.32,1.14-.74.85-1.14s-1.61-.66-2.72-.78a68,68,0,0,0-17.74.09C23.5,223.68,34,225.93,38.37,226.19Z"/><path class="cls-7" d="M35.86,136.56S32,202.06,41,226.07C41,226.07,46.88,167.7,35.86,136.56Z"/><path class="cls-4" d="M39.89,225.59H42c3.09-13,12.38-55,7.47-74.58,0,0-15.56,55.13-11.68,67.45Z"/><path class="cls-4" d="M486.57,147.24s-7.78,34.38,4.54,57.72l12.33,23.35S506.67,169.94,486.57,147.24Z"/><path class="cls-5" d="M487.09,237c.75,4.21,1.71,8.47,3.8,12.21s5.46,6.95,9.62,8a22.07,22.07,0,0,0,5.79.4,12.7,12.7,0,0,0,6.19-1.27c2.39-1.41,3.65-4.13,4.64-6.7A78.47,78.47,0,0,0,520.85,236c.48-2.67.79-5.56-.45-8-1.69-3.26-5.64-4.57-9.28-5.16-6-1-14.32-1.49-20.11,1C486,225.93,486.28,232.38,487.09,237Z"/><path class="cls-6" d="M500.76,228.42c4.78.28,10-.45,13-2.06.6-.32,1.14-.74.85-1.14s-1.61-.66-2.72-.78a68,68,0,0,0-17.74.09C485.89,225.93,496.39,228.17,500.76,228.42Z"/><path class="cls-7" d="M498.24,138.81s-3.89,65.5,5.19,89.5C503.43,228.31,509.27,169.94,498.24,138.81Z"/><path class="cls-4" d="M502.29,227.83h2.11c3.09-13,12.38-55,7.47-74.58,0,0-15.56,55.13-11.68,67.45Z"/><ellipse class="cls-8" cx="82.95" cy="264.39" rx="56.54" ry="7.28"/><ellipse class="cls-9" cx="459.13" cy="269.99" rx="56.54" ry="7.28"/><ellipse class="cls-10" cx="212.82" cy="262.71" rx="56.54" ry="7.28"/><ellipse class="cls-11" cx="361.73" cy="260.47" rx="56.54" ry="7.28"/><ellipse class="cls-12" cx="272.65" cy="248.29" rx="33.77" ry="7.28"/><path class="cls-13" d="M93,69.41l21.33,3.46-10.15-9.28,4.85-5.41,18.45,16.5a4.27,4.27,0,0,1-3,7.22l-25.85.81Z"/><polygon class="cls-6" points="101.95 124.09 101.52 263.34 94.2 263.86 89.11 145.72 82.31 146.25 75.36 262.82 68.03 262.3 68.95 121.57 101.95 124.09"/><path class="cls-13" d="M93,69.41l-24.64-1a8.25,8.25,0,0,0-6.65,2.91L69,127.71l33.67.68L99.55,76.68S93.94,69.45,93,69.41Z"/><path class="cls-5" d="M104.14,58.61c-1.35,1.07-3.09,2.06-3.35,3.78A3.39,3.39,0,0,0,103,65.86a5.78,5.78,0,0,0,4.35-.34,7.49,7.49,0,0,0,4.41-5.35c.3-1.74-.48-5.08-2.5-5.67C107,53.79,105.8,57.29,104.14,58.61Z"/><polygon class="cls-14" points="68.03 262.3 53.77 266.55 54.3 267.77 75.03 265.51 75.36 262.82 68.03 262.3"/><path class="cls-15" d="M22,69.85,19.69,66l2.48-5.2a25.37,25.37,0,0,0,1.36-4.74c0-1.13-1.13-2.71-2.26-.68A42.2,42.2,0,0,1,19,59l-6.7-10a1,1,0,0,0-.85-.45h0a1,1,0,0,0-.9,1.51L12.11,53a1,1,0,0,1-1.49,1.33l-.31-.21a3.75,3.75,0,0,0-5.2.93L5,55.16l.11,3.38a7.53,7.53,0,0,0,2.75,5.57c4,3.25,11,8.93,11.15,8.45C19.24,71.88,22,69.85,22,69.85Z"/><path class="cls-15" d="M98.4,47.66a2.23,2.23,0,0,0-2.71.84,3.36,3.36,0,0,0-.26,3,4.32,4.32,0,0,0,4.52,2.82,3.83,3.83,0,0,0,3.17-4.13,4,4,0,0,0-2.54-3,5.42,5.42,0,0,0-4,.16"/><path class="cls-15" d="M97.91,49.8,109,58.51s.26,4.75-2.38,5.28c-.79.52-11.09-10.31-11.09-10.31Z"/><path class="cls-14" d="M94.22,263.86l.36,2.34,18,3s.87-1.39.35-1.55-11.35-4.25-11.35-4.25Z"/><path class="cls-15" d="M76.68,57.5l.57,15.35a3.61,3.61,0,0,0,3,3.58h0a3.61,3.61,0,0,0,4.14-3l0-.11.78-13.27Z"/><rect class="cls-6" x="85.66" y="48.27" width="16.69" height="7.92" transform="translate(25.46 135.09) rotate(-79.46)"/><rect class="cls-6" x="85.23" y="48.62" width="16.69" height="7.04" transform="translate(25.2 134.61) rotate(-79.46)"/><path class="cls-5" d="M75.79,70.6s-1.12,1-1.2,1.28,4.33,7.22,4.33,7.22l3-4.73,3.69,4.73,1.55-8.59L84.64,70l-2.81,3.21-5-4Z"/><polygon class="cls-16" points="81.89 74.37 80.04 77.42 81.33 79.74 80.6 81.51 81.33 104.13 83.89 107.02 86.22 104.29 83.81 81.43 82.45 79.58 84.13 77.26 81.89 74.37"/><path class="cls-15" d="M70.28,41.08c-1.55,3.61-1.38,7.74-.56,11.56.89,4.17,2.64,8.34,5.94,11s8.42,3.46,11.82.89a12.55,12.55,0,0,0,3.94-6.37C93,53.39,93.26,48,91.26,43.38,87.59,34.88,74.65,31,70.28,41.08Z"/><polygon class="cls-13" points="64.77 87.5 38.32 96.04 19.1 75.1 23.89 71.15 41.61 85.67 61.76 71.29 65.19 77.3 64.77 87.5"/><polygon class="cls-5" points="16.07 73.69 18.11 76.86 27.14 71.66 23.53 68.04 16.07 73.69"/><path class="cls-15" d="M65.75,47.9A3.08,3.08,0,0,0,64.17,51a6.76,6.76,0,0,0,1.55,3.34A5.81,5.81,0,0,0,67.2,55.8a4.8,4.8,0,0,0,1.9.62,2.39,2.39,0,0,0,2.26-.65,2.64,2.64,0,0,0,.37-1.24c.25-2.06-.28-2.86-1.46-4.34S67.77,47,65.75,47.9Z"/><path class="cls-6" d="M73.32,48a6.65,6.65,0,0,1-3.05,5.36,12.38,12.38,0,0,1-2.38-6.29,11.66,11.66,0,0,1,1.78-8,11.08,11.08,0,0,1,8.25-4.26,21,21,0,0,1,9.35,1.83c1.28.52,2.93,1.06,3.91.08A6.8,6.8,0,0,1,92,39.83a4.28,4.28,0,0,1-.62,2.4A6.47,6.47,0,0,1,87.91,45c-10.43,2.33-15.28-3.33-15.33-3.18a3.91,3.91,0,0,0,.29,1.82A14.44,14.44,0,0,1,73.32,48Z"/><path class="cls-17" d="M226.79,165.08l-3-57.76s-14.84-.89-19.26-.89c-2.41,0-6.52,1.14-9.76,2.18-3,1-5.58.89-7.07,3.73L163.39,159l15,1.42,5-5.67-2.54-3.85,9.09-21.45-.15,36.33Z"/><path class="cls-18" d="M189.58,120.94l-16.14,29.18,5,5.88a8.88,8.88,0,0,0,4-.22l.89-1-2.54-3.85,9.09-21.45Z"/><path class="cls-19" d="M202.44,153.4c-.62-.21-5.62-3.13-9.37-3.13s-8.33,4-8.33,4-.62,2.06,1.87,1.67,4.16-.62,4.16-.62-4.37,2.29-1.46,2.71,15.2,0,15.2,0Z"/><path class="cls-20" d="M201.52,161.87h-48.1v-3.53h48.1a1.76,1.76,0,0,1,1.76,1.76h0a1.76,1.76,0,0,1-1.76,1.76Z"/><path class="cls-21" d="M188.32,161.87H141.94a4.52,4.52,0,0,1-4.37-3.36l-8.18-30.85a4.52,4.52,0,0,1,4.37-5.67h40.5a4.52,4.52,0,0,1,4.37,3.36Z"/><path class="cls-22" d="M133.75,122a4.52,4.52,0,0,0-4.37,5.67l8.18,30.85a4.51,4.51,0,0,0,1.55,2.35L167.31,122Z"/><path class="cls-5" d="M161,144.66a2.78,2.78,0,0,1-2.83,3.64,5.06,5.06,0,0,1-4.66-3.64,2.78,2.78,0,0,1,2.83-3.64A5.06,5.06,0,0,1,161,144.66Z"/><path class="cls-19" d="M203.07,99.27c.42.83,3.33,12.28,3.33,12.28a3.69,3.69,0,0,0,3.54,1.67c2.5-.21,3.54-3.75,3.54-3.75L209.1,95.1Z"/><path class="cls-19" d="M218.48,92.21c0,7.89-8.38,16.62-16.26,16.62s-12.31-8.73-12.31-16.62a14.28,14.28,0,0,1,28.57,0Z"/><path class="cls-5" d="M205.36,108l-1.67,4.37,1,4.58,3.33-4.79,3.33,5.42,3.75-6.66-2.5-4.37s-1.25,2.91-4,3.54A2.72,2.72,0,0,1,205.36,108Z"/><polygon class="cls-21" points="208.06 112.18 205.56 115.3 206.82 117.17 204.94 121.13 205.36 147.15 207.86 152.36 211.4 146.53 210.56 121.75 208.69 116.96 210.15 114.88 208.06 112.18"/><polygon class="cls-23" points="225.58 119.38 226.49 165.03 205.02 164.81 225.58 119.38"/><path class="cls-17" d="M223.82,107.32l2,43-19.89,4,2.71,5.2,28.44,1.67-3.89-42.56a12.66,12.66,0,0,0-7-10.2Z"/><polygon class="cls-5" points="202.44 153.4 206.4 153.81 209.94 159.64 203.28 160.11 202.44 153.4"/><path class="cls-6" d="M182.62,172.88l-35.19,9,17.91,70.41,6.19-3.09-5.27-60.52,31.49-9.88-18.22,10.49.31,57.42h5.55s15.44-56.18,17-56.18,27.48-17.29,27.48-17.29Z"/><polygon class="cls-6" points="146.39 257.75 170.87 256.01 171.54 248.3 145.38 254.26 146.39 257.75"/><polygon class="cls-6" points="166.25 262.09 171.19 262.7 185.09 257.46 185.4 246.66 179.84 246.66 177.37 253.45 169.88 257.97 166.25 262.09"/><path class="cls-24" d="M189.42,87.14c-.56,1-1.13,2.22-.72,3.32.52,1.34,2.17,1.74,3.61,1.91a56.85,56.85,0,0,0,7.38.38,22.69,22.69,0,0,0,4.87-.49,28.69,28.69,0,0,0,7.3-3.25c1.66-.94,3.5-2.11,3.8-4s-1-3.55-2.32-5A15.78,15.78,0,0,0,211,77.81a10.09,10.09,0,0,0-7.51-1.55C197.07,77.3,192.42,81.63,189.42,87.14Z"/><path class="cls-24" d="M212.78,91.76a1.55,1.55,0,0,1,1.91-.9,2.19,2.19,0,0,1,1.37,1.77,4,4,0,0,1-.44,2.27,5.35,5.35,0,0,0-.45,1,3.83,3.83,0,0,0-.07,1l.07,4.19a5.22,5.22,0,0,0,2.4-2.7c1.27-2.39,2.58-4.94,2.43-7.64a14.36,14.36,0,0,0-2.36-6.22,3.37,3.37,0,0,0-.89-1.12,2.29,2.29,0,0,0-2-.21,6.79,6.79,0,0,0-1.79,1l-1.67,1.13a3.88,3.88,0,0,0-1.39,1.35c-.52,1,.21,1.5.83,2.14C211.07,89.13,210.51,96.07,212.78,91.76Z"/><path class="cls-3" d="M191.79,103.71a5.5,5.5,0,0,1-4.7-3.58,3,3,0,0,1,.21-2.78,2.44,2.44,0,0,1,2.06-1,5.5,5.5,0,0,1,4.7,3.58,3,3,0,0,1-.21,2.78A2.44,2.44,0,0,1,191.79,103.71Zm-2.41-6.79a1.9,1.9,0,0,0-1.62.75,2.49,2.49,0,0,0-.14,2.27,4.91,4.91,0,0,0,4.17,3.21,1.9,1.9,0,0,0,1.62-.75,2.49,2.49,0,0,0,.14-2.27,4.92,4.92,0,0,0-4.17-3.2Z"/><path class="cls-3" d="M201.26,103.71a5.5,5.5,0,0,1-4.7-3.58,3,3,0,0,1,.21-2.78,2.44,2.44,0,0,1,2.06-1,5.5,5.5,0,0,1,4.7,3.58,3,3,0,0,1-.21,2.78A2.44,2.44,0,0,1,201.26,103.71Zm-2.41-6.79a1.9,1.9,0,0,0-1.62.75,2.49,2.49,0,0,0-.14,2.27,4.91,4.91,0,0,0,4.17,3.21,1.9,1.9,0,0,0,1.62-.75,2.49,2.49,0,0,0,.14-2.27,4.9,4.9,0,0,0-4.17-3.2Z"/><path class="cls-6" d="M253.45,69.9c.15,2.24,1.38,4.47.76,6.63-.52,1.77-2.16,3-2.67,4.81-.58,2,.44,4.09,1.43,5.94.83,1.55,2,3.29,3.73,3.3a4.92,4.92,0,0,0,2.17-.69l5-2.51a8.09,8.09,0,0,0,2-1.28A7.88,7.88,0,0,0,267.61,83c1.28-3.53,2.43-7.22,2.13-11s-2.34-7.56-5.83-8.95c-1.95-.78-7.66-1.47-9.33.2-.75.74-.37,1.55-.47,2.48C254,67.19,253.35,68.43,253.45,69.9Z"/><path class="cls-15" d="M257.49,81.11l-1.7.46c-7.07,4.6-11.21,11-12.09,19.38l-3.61,58.35,5.42-2.42Z"/><path class="cls-21" d="M293.23,80.67l-28.88-1.18A35.1,35.1,0,0,0,255.28,81l-3.68,1.72,6.48,30.94h0a61.43,61.43,0,0,0-8.49,33.06L253,188.8h32.35l4.13-44.47a61.43,61.43,0,0,0-4.92-26.55l-1.76-4.13Z"/><path class="cls-25" d="M258.56,93.07a8.3,8.3,0,0,0,9.8,4.5,20.85,20.85,0,0,0,6.16-2.63,33.93,33.93,0,0,0,9.31-7.61c1.78-2.21,3.16-5.35,1.71-7.78-.92-1.55-2.75-2.34-4.51-2.81C271.67,74.24,251.4,79.57,258.56,93.07Z"/><path class="cls-15" d="M280.81,65.6c0,7.67-8.18,18.09-15.85,18.09S253,73.27,253,65.6a13.89,13.89,0,1,1,27.78,0Z"/><path class="cls-15" d="M293.23,80.67l20,26.1a5.8,5.8,0,0,1-1.58,8.48l-23.4,14.32-2.89-4.51,16.05-12.89a2.85,2.85,0,0,0,.56-3.85L289.83,91.06Z"/><path class="cls-15" d="M229,161.88h12.57a3.83,3.83,0,0,0,3.82-3.56l.1-1.43Z"/><path class="cls-15" d="M263.18,74.94c-.19-.46,3.32,9.16,3.32,9.16s.79,4,4.13,3,1.26-15,.79-15.17S263.49,75.74,263.18,74.94Z"/><path class="cls-6" d="M271.42,63.78c-6.43,3.91-13.2,8-20.71,8.4,1.69-2.1,1.35-5.1,1.66-7.77a14.74,14.74,0,0,1,19.55-12.21,8.15,8.15,0,0,1,4,2.73C278.7,58.79,274.41,61.94,271.42,63.78Z"/><path class="cls-6" d="M270.84,79.2c.43,2.06,1.74,3.89,2,6a12,12,0,0,1-.47,4.05l-1.13,4.83a14.44,14.44,0,0,0,6.06-3,23.53,23.53,0,0,0,8.34-22,37.77,37.77,0,0,0-2-6.75,16.88,16.88,0,0,0-2.48-4.81A6.39,6.39,0,0,0,276.55,55a6.81,6.81,0,0,0-5.39,3.13,6.91,6.91,0,0,0-1.47,4.09c0,1.47.54,6.49,1.9,7.09A3.53,3.53,0,0,1,276.51,71c1,3-1.62,3.55-3.4,4.57C270.9,76.89,270.36,76.89,270.84,79.2Z"/><path class="cls-6" d="M285.59,70.14a37.44,37.44,0,0,1,4.13,3,4.51,4.51,0,0,1,1.36,4.64,8.07,8.07,0,0,1-2,2.46,3.64,3.64,0,0,0-1.34,2.81,4.56,4.56,0,0,0,.9,1.91c1,1.55,1.9,3.36,1.6,5.19a5,5,0,0,1-2.58,3.48,7,7,0,0,1-4.35.69A13.92,13.92,0,0,0,280.7,94c-2.28.1-4.08,2.17-6.36,2.43a4.19,4.19,0,0,1-4.64-4.87c.36-2.09,2.19-3.56,3.88-4.86s3.49-2.83,3.74-4.94c.19-1.57-.56-3.15-.36-4.72.28-2.25,2.37-3.91,2.88-6.12.29-1.26-.17-4.45,1.81-4.4C283.16,66.53,284.47,69.3,285.59,70.14Z"/><path class="cls-6" d="M269,67.61a17.11,17.11,0,0,1-1.44,2.15l-2.19,2.93a15.83,15.83,0,0,0,.52-5.79,2.66,2.66,0,0,1,0-.89A2.31,2.31,0,0,1,267,64.78c.67-.44,2.39-1.88,3.09-1C270.59,64.56,269.36,67,269,67.61Z"/><polygon class="cls-6" points="285.94 120.8 284.62 121.98 289.21 127.35 285.94 120.8"/><path class="cls-26" d="M383.54,165.08l-3-57.76s-14.85-3.09-19.27-3.09c-2.41,0-6.52,1.14-9.76,2.18a12.17,12.17,0,0,0-7.07,6L320.13,159l15,1.42,5-5.67-2.54-3.85,9.09-21.45-.15,36.33Z"/><path class="cls-15" d="M381.55,90.62a14.28,14.28,0,0,1-14.28,14.28h0c-4.37,0-7.4-4.53-10-7.62-2.11-2.49-3.78-3.2-3.78-6.7,0-7.89,5.9-14.23,13.79-14.23A14.28,14.28,0,0,1,381.55,90.62Z"/><polygon class="cls-6" points="345.06 161.87 295.2 161.87 284.62 121.98 334.48 121.98 345.06 161.87"/><polygon class="cls-5" points="345.06 161.87 296.76 161.87 285.94 120.8 334.81 121.98 345.06 161.87"/><rect class="cls-6" x="295.61" y="158.98" width="34.19" height="2.89"/><path class="cls-27" d="M363.42,155.15,382.5,146,381,115.23l-3.31.2-24.75,26s-3.69,9.64-6.38,17.24l0,7.13,25.68-.52Z"/><polygon class="cls-21" points="331.78 152.65 305.18 152.65 299.22 130.03 326.14 130.68 331.78 152.65"/><path class="cls-16" d="M339.36,172.88l-35.19,8.95,17.91,70.41,6.19-3.09L323,188.62l31.49-9.88-18.22,10.49.31,57.42h5.55s15.44-56.18,17-56.18,27.47-17.29,27.47-17.29Z"/><polygon class="cls-6" points="303.14 257.75 327.61 256.01 328.28 248.3 302.12 254.26 303.14 257.75"/><path class="cls-3" d="M358.27,110.24a38.84,38.84,0,0,0,1.55,8.17,3,3,0,0,0,.88,1.58c1,.77,2.42.12,3.46-.59A24.31,24.31,0,0,0,369,115a8.59,8.59,0,0,0,2-3.68,4.08,4.08,0,0,0-1.12-3.87c-1.65-1.42-5.19-1.37-7.26-1.42C359.67,106,358,107.17,358.27,110.24Z"/><polygon class="cls-6" points="323 262.09 327.94 262.7 341.83 257.46 342.14 246.66 336.58 246.66 334.11 253.45 326.62 257.97 323 262.09"/><path class="cls-15" d="M361.88,97.82l-1,12s.85,5.07,3.8,4.22a4.44,4.44,0,0,0,3.37-3.16l1.27-14.36Z"/><path class="cls-24" d="M372.58,86a16.58,16.58,0,0,0,6.59-1.22c2-1,3.72-3,3.69-5.22s-2.36-4.37-4.5-3.68c-.49.16-.93.44-1.43.56a4.68,4.68,0,0,1-2.35-.28c-5.78-1.7-12.24-2.84-17.63-.15a5.47,5.47,0,0,0-2.51,2.15,6.59,6.59,0,0,0-.59,2.53q-.32,3.5-.42,7c1.55-.85,3.09-1.85,4.73-2.58s2.58,0,4.29.34A39.87,39.87,0,0,0,372.58,86Z"/><path class="cls-28" d="M359.17,82.18A5.16,5.16,0,0,0,355,83.34a14.17,14.17,0,0,0-2,6.06,11.86,11.86,0,0,1,.29,2.29,6.08,6.08,0,0,0,.48,2c.82,1.24,2.14,2.06,3.43,3.61l.16.19c1.38-2.39,3.61-7.84,4.06-8.39.64-.84,2.72-3.36,2.35-4.47S360.19,82.36,359.17,82.18Z"/><path class="cls-15" d="M359.18,88a1.31,1.31,0,0,0-.4-.43,1.4,1.4,0,0,0-.71-.12,3.08,3.08,0,0,0-2.58.82,2.65,2.65,0,0,0-.42,1.1,9.73,9.73,0,0,0-.13,2.84c.15,1.45.85,3.09,2.27,3.41a2.75,2.75,0,0,0,2.4-.73C361.84,92.85,360.65,90.15,359.18,88Z"/><path class="cls-24" d="M377.24,95.46a4.94,4.94,0,0,1,2.23-.15,1.82,1.82,0,0,1,1.47,1.51,4.8,4.8,0,0,1-.17,1.08,6.68,6.68,0,0,0,.65,3.31c.86,2.34,1.42,5.13,0,7.17s-4,2.46-6.3,2.35a17.62,17.62,0,0,1-15.56-11.89,11.68,11.68,0,0,1-.23-7.14c.23-.7.83-1.5,1.52-1.26a8.74,8.74,0,0,0,4.56,6.36C369.68,99,373.13,96.42,377.24,95.46Z"/><path class="cls-6" d="M286.61,121.34l47.8,1.15,10,38.87H297.16l-10.55-40m-.68-.52,10.83,41.06h48.3L334.81,122l-48.87-1.18Z"/><path class="cls-5" d="M364.18,161.87H295.59V159h68.59a1.44,1.44,0,0,1,1.44,1.44h0a1.44,1.44,0,0,1-1.44,1.45Z"/><path class="cls-20" d="M329.47,161.87H295.61V159h33.86a1.44,1.44,0,0,1,1.46,1.42s0,0,0,0h0a1.44,1.44,0,0,1-1.45,1.43Z"/><path class="cls-26" d="M380.57,107.32l-12.47,33-31.8,4.23,1.25,6.36,40.7-1.33,11-29a6.89,6.89,0,0,0,.2-4.47,12.66,12.66,0,0,0-6.49-7.61Z"/><path class="cls-15" d="M336.29,144.54l-17.15-9.16a1.86,1.86,0,0,0,.43,2.5c1.36,1.13,5.67,4.34,5.67,4.34v2.5c1.43,4.68,5.85,6.9,10.72,6.36l1.55-.17Z"/><path class="cls-29" d="M406.18,161.8H385.69s-.59-1.49,2.67-2.06,12.47-.89,12.47-.89l2.38-2.67,3.26.89Z"/><path class="cls-30" d="M423,99.19l-21.83,58.91,5.39,1.35L440.07,102s-1-3.72-6.66-7.28S423,99.19,423,99.19Z"/><path class="cls-19" d="M423.59,72.19a14.29,14.29,0,0,0-19.74-4.32,15,15,0,0,0-6.54,11,7.84,7.84,0,0,0,.67,5c.9,2,3.42,4.91,2,9A2.34,2.34,0,0,0,401,95.84c1.12.45,2.1-.77,3.19-.82,2.06-.09,6.11,3.06,7.58,4.31a4.36,4.36,0,0,0,2.13,1.19,3.53,3.53,0,0,0,2-.52c3.14-1.63,5-4.88,6.61-8a25.39,25.39,0,0,0,3-9.38A14.23,14.23,0,0,0,423.59,72.19Z"/><path class="cls-19" d="M423.06,99.8a2.79,2.79,0,0,0,2.21,1.14,2.58,2.58,0,0,0,1.07-.52,16.32,16.32,0,0,0,2.42-2.06,2.62,2.62,0,0,0,.9-1.66,2.51,2.51,0,0,0-.27-1c-1.44-3.25-4.41-5.73-5.46-9.14-.47-1.55-.52-3.2-1-4.72s-1.76-3-3.37-3.06a4.24,4.24,0,0,0-2.62,1,9.37,9.37,0,0,0-3.66,8.14,9.57,9.57,0,0,0,4.15,7A36,36,0,0,1,423.06,99.8Z"/><path class="cls-24" d="M403.85,67.87a14.53,14.53,0,0,0-5.67,7.31c2.74,1.35,9.73-1.66,11.62-2.8a13.64,13.64,0,0,0,6.53,12.07c2.51,1.49,5.47,2.14,8,3.58a19.25,19.25,0,0,0,1.27-5.43,14.28,14.28,0,0,0-21.73-14.73Z"/><path class="cls-19" d="M411.51,82.36A3.27,3.27,0,0,1,413,78.09a4.2,4.2,0,0,1,4.64.89,5.93,5.93,0,0,1,1.59,4.64c-.15,2.12-1.7,4.42-3.82,4.31a3.86,3.86,0,0,1-2.86-1.82,11.41,11.41,0,0,1-1.32-3.24"/><polygon class="cls-5" points="430.89 92.43 426.82 87.7 420.38 99.52 422.75 107.01 431.29 97.42 430.89 92.43"/><path class="cls-16" d="M435.55,93.07l38.24,42.54-23.4,20.56-28.68-44c-2.93-4.22,1.55-13.52,4.48-17.74h0a6.45,6.45,0,0,1,9-1.63Z"/><polygon class="cls-31" points="472.45 266.07 462.17 208.17 450.37 156.17 473.77 135.62 472.43 207.52 478.14 263.22 472.45 266.07"/><polygon class="cls-6" points="473.77 135.62 454.5 267.91 448.66 266.96 450.37 156.17 473.77 135.62"/><polygon class="cls-6" points="437.94 272.12 453.38 271.53 454.27 266.78 449.82 266.19 434.97 270.34 435.27 272.42 437.94 272.12"/><polygon class="cls-31" points="478.14 263.22 478.59 267.69 460.73 268.79 460.57 267.38 476.38 262.32 478.14 263.22"/><path class="cls-19" d="M398.54,161.8H378.05s-.59-1.49,2.67-2.06,13.18-.85,13.18-.85l1.67-2.74,4.47,1.71Z"/><path class="cls-16" d="M427.71,96.88l-15.54,29.34-18.63,32.55,6.06.23,16.61-22.9,22-28.12a7.67,7.67,0,0,0,2.06-9.42h0a7.67,7.67,0,0,0-12.56-1.68Z"/><path class="cls-32" d="M436.58,135c-.43-6-2.53-24.5-2.53-24.5l-6.41,10.75Z"/><path class="cls-15" d="M267.16,183.79c-1,0-9.41,3.49-9.41,3.49l6.54,53.67a34,34,0,0,1-4.93,1.51c-3.21.92-6.09,1.25-8.92,3.14-.23.17-.3,1-.34,1.26-.09.61.74.89,1.37.92q5.81.25,11.62.05c2.47-.09,4.49-1.35,6.7-2.48a4,4,0,0,0,1.69-3.51C271.44,241.55,268.15,183.79,267.16,183.79Z"/><path class="cls-6" d="M260,245.8c3.73-.34,8.77-2,11.66-4.37.26,2.48-.47,4.85-5.16,6.06-5.44,1.4-11.27,2.94-16.65,1.35-.58-.17-1.24-.52-1.22-1.13a1.33,1.33,0,0,1,.32-.73c1-1.28,3.79-3.56,5.48-3,.88.29,1.5,1.3,2.5,1.61A8.16,8.16,0,0,0,260,245.8Z"/><path class="cls-15" d="M287.14,241.83c0-.28-3.31-58-4.3-58s-9.41,3.47-9.41,3.47L280,240.93a50,50,0,0,0,3.65,8.3,17.11,17.11,0,0,0,6.5,6.48,1,1,0,0,0,.94.1.86.86,0,0,0,.29-.48c.46-1.59-.22-3.27-.88-4.79C289.24,247.78,287.38,244.85,287.14,241.83Z"/><path class="cls-6" d="M281.67,248.92c1.67,3.09,3.72,6.25,6.92,7.69a2.89,2.89,0,0,0,1.74.32,2.22,2.22,0,0,0,1.57-1.67,4.81,4.81,0,0,0-.13-2.39,12.12,12.12,0,0,0-1.44-3.34,1,1,0,0,0-.63-.55c-.37-.06-.67.26-1,.48a2.76,2.76,0,0,1-2.9,0,7.17,7.17,0,0,1-2.15-2.15c-1.22-1.67-2.29-4.74-4-5.7C279.18,244.09,280.5,246.75,281.67,248.92Z"/><circle class="cls-6" cx="189.94" cy="257.62" r="3.99"/><circle class="cls-6" cx="238.01" cy="257.62" r="3.99"/><circle class="cls-6" cx="212.96" cy="257.62" r="3.99"/><path class="cls-33" d="M189.94,257.62v-2.06a8.37,8.37,0,0,1,8.37-8.37H214v-40.7"/><path class="cls-33" d="M237.59,257.62v-2.06a8.37,8.37,0,0,0-8.37-8.37H213.48v-40.7"/><line class="cls-33" x1="212.96" y1="257.62" x2="212.96" y2="247.18"/><rect class="cls-6" x="208.7" y="226.62" width="8.86" height="20.21"/><rect class="cls-6" x="210.12" y="206.84" width="5.67" height="22.96"/><circle class="cls-6" cx="343.15" cy="257.62" r="3.99"/><circle class="cls-6" cx="391.22" cy="257.62" r="3.99"/><circle class="cls-6" cx="366.17" cy="257.62" r="3.99"/><path class="cls-33" d="M343.15,257.62v-2.06a8.37,8.37,0,0,1,8.37-8.37h15.71v-40.7"/><path class="cls-33" d="M390.76,257.62v-2.06a8.37,8.37,0,0,0-8.37-8.37H366.7v-40.7"/><line class="cls-33" x1="366.17" y1="257.62" x2="366.17" y2="247.18"/><rect class="cls-6" x="361.91" y="226.62" width="8.86" height="20.21"/><rect class="cls-6" x="363.33" y="206.84" width="5.67" height="22.96"/><rect class="cls-34" x="125.64" y="166.14" width="274.24" height="43.45"/><rect class="cls-6" x="126.03" y="166.49" width="4.62" height="110.78"/><rect class="cls-6" x="398.37" y="166.49" width="4.62" height="110.78"/><polygon class="cls-35" points="402.96 191.8 125.31 166.43 402.96 166.43 402.96 191.8"/><rect class="cls-13" x="114.96" y="161.87" width="298.18" height="7.39"/></g></g></g></svg>