<svg id="Layer_1" data-name="Layer 1" xmlns="http://www.w3.org/2000/svg" xmlns:xlink="http://www.w3.org/1999/xlink" viewBox="0 0 1366 705"><defs><style>.cls-1,.cls-38,.cls-41,.cls-48{fill:none;}.cls-2{fill:#fff8f8;}.cls-3{clip-path:url(#clip-path);}.cls-4{fill:url(#linear-gradient);}.cls-5{opacity:0.21;fill:url(#linear-gradient-2);}.cls-13,.cls-14,.cls-15,.cls-16,.cls-17,.cls-23,.cls-33,.cls-46,.cls-47,.cls-48,.cls-49,.cls-5,.cls-50,.cls-51,.cls-52,.cls-6,.cls-7{isolation:isolate;}.cls-13,.cls-14,.cls-15,.cls-16,.cls-17,.cls-23,.cls-48,.cls-6,.cls-7{opacity:0.5;}.cls-6{fill:url(#linear-gradient-3);}.cls-7{fill:url(#linear-gradient-4);}.cls-8{fill:#eff2f7;}.cls-9{fill:#5bb59b;}.cls-10{fill:#fff;}.cls-11{fill:#524f63;}.cls-12{fill:#63a590;}.cls-13{fill:url(#linear-gradient-5);}.cls-14{fill:url(#linear-gradient-6);}.cls-15{fill:url(#linear-gradient-7);}.cls-16{fill:url(#linear-gradient-8);}.cls-17{fill:url(#linear-gradient-9);}.cls-18{fill:#e0e4ed;}.cls-19{fill:#424051;}.cls-20{fill:#eebcc5;}.cls-21{fill:#9092ec;}.cls-22{fill:#ead18c;}.cls-23{fill:url(#linear-gradient-10);}.cls-24{fill:#91616a;}.cls-25{fill:#5b61d3;}.cls-26{fill:#8385e6;}.cls-27{fill:url(#linear-gradient-11);}.cls-28{fill:url(#linear-gradient-12);}.cls-29,.cls-33{fill:#4a4549;}.cls-30{fill:url(#linear-gradient-13);}.cls-31{fill:#d98e9d;}.cls-32{fill:url(#linear-gradient-14);}.cls-33{opacity:0.7;}.cls-34{fill:#75454f;}.cls-35{fill:#8284e5;}.cls-36{fill:#37354c;}.cls-37{fill:url(#linear-gradient-15);}.cls-38{stroke:#524f63;stroke-width:0.5px;}.cls-38,.cls-41,.cls-48{stroke-miterlimit:10;}.cls-39{fill:#bcbace;}.cls-40{fill:url(#linear-gradient-16);}.cls-41{stroke:#fff;}.cls-42,.cls-46,.cls-47{opacity:0.4;}.cls-43{fill:url(#linear-gradient-17);}.cls-44{fill:url(#linear-gradient-18);}.cls-45{fill:url(#linear-gradient-19);}.cls-46{fill:url(#linear-gradient-20);}.cls-47{fill:url(#linear-gradient-21);}.cls-48{stroke:#ffd350;stroke-width:2.24px;}.cls-49{opacity:0.38;fill:url(#linear-gradient-22);}.cls-50,.cls-51{opacity:0.25;}.cls-50{fill:url(#linear-gradient-23);}.cls-51{fill:url(#linear-gradient-24);}.cls-52{opacity:0.18;fill:url(#linear-gradient-25);}</style><clipPath id="clip-path"><rect class="cls-1" x="-0.2" y="-24.4" width="918.7" height="728.96"/></clipPath><linearGradient id="linear-gradient" x1="-129.19" y1="392.55" x2="894.98" y2="392.55" gradientTransform="matrix(1, 0, 0, -1, 0, 706)" gradientUnits="userSpaceOnUse"><stop offset="0" stop-color="#3f96ff"/><stop offset="1" stop-color="#0052aa"/></linearGradient><linearGradient id="linear-gradient-2" x1="1039.1" y1="-1415.36" x2="1524.38" y2="-1854.9" gradientTransform="matrix(-0.86, -0.51, -0.51, 0.86, 631.89, 2198.3)" xlink:href="#linear-gradient"/><linearGradient id="linear-gradient-3" x1="861.24" y1="-1492.32" x2="781.01" y2="-1438.84" gradientTransform="translate(0 2096.1)" gradientUnits="userSpaceOnUse"><stop offset="0" stop-color="#4a50c2" stop-opacity="0.02"/><stop offset="1" stop-color="#444bcc" stop-opacity="0.64"/></linearGradient><linearGradient id="linear-gradient-4" x1="1312.59" y1="-1491.23" x2="1232.36" y2="-1437.74" xlink:href="#linear-gradient-3"/><linearGradient id="linear-gradient-5" x1="934.08" y1="-1504.61" x2="753.33" y2="-1384.11" xlink:href="#linear-gradient-3"/><linearGradient id="linear-gradient-6" x1="1302.16" y1="-1499.13" x2="1121.41" y2="-1378.63" xlink:href="#linear-gradient-3"/><linearGradient id="linear-gradient-7" x1="1061.16" y1="-1506.25" x2="880.4" y2="-1385.75" xlink:href="#linear-gradient-3"/><linearGradient id="linear-gradient-8" x1="1206.85" y1="-1508.45" x2="1026.1" y2="-1387.94" xlink:href="#linear-gradient-3"/><linearGradient id="linear-gradient-9" x1="1095.05" y1="-1503.93" x2="986.36" y2="-1431.47" xlink:href="#linear-gradient-3"/><linearGradient id="linear-gradient-10" x1="960.81" y1="-1586.54" x2="976.91" y2="-1586.54" gradientTransform="translate(0 2096.1)" gradientUnits="userSpaceOnUse"><stop offset="0" stop-color="#ead18c" stop-opacity="0"/><stop offset="1" stop-color="#524f63" stop-opacity="0.7"/></linearGradient><linearGradient id="linear-gradient-11" x1="917.56" y1="-1583.74" x2="954.81" y2="-1583.74" gradientTransform="translate(0 2096.1)" gradientUnits="userSpaceOnUse"><stop offset="0" stop-color="#484ec2" stop-opacity="0"/><stop offset="1" stop-color="#444bcc" stop-opacity="0.5"/></linearGradient><linearGradient id="linear-gradient-12" x1="969.42" y1="-1566" x2="1048.81" y2="-1597.4" xlink:href="#linear-gradient-10"/><linearGradient id="linear-gradient-13" x1="1048.14" y1="-1616.27" x2="1063.02" y2="-1655.61" xlink:href="#linear-gradient-11"/><linearGradient id="linear-gradient-14" x1="1130.13" y1="-1584.62" x2="1165.41" y2="-1584.62" gradientTransform="translate(0 2096.1)" gradientUnits="userSpaceOnUse"><stop offset="0" stop-color="#b6567a" stop-opacity="0"/><stop offset="1" stop-color="#c45771"/></linearGradient><linearGradient id="linear-gradient-15" x1="1212.26" y1="-1586.58" x2="1217.26" y2="-1617.32" xlink:href="#linear-gradient-11"/><linearGradient id="linear-gradient-16" x1="1048.13" y1="-1540.29" x2="1067.12" y2="-1627.92" gradientTransform="translate(0 2096.1)" gradientUnits="userSpaceOnUse"><stop offset="0" stop-color="#676475" stop-opacity="0"/><stop offset="1" stop-color="#524f63" stop-opacity="0.7"/></linearGradient><linearGradient id="linear-gradient-17" x1="1048.11" y1="503.15" x2="1077.67" y2="503.15" xlink:href="#linear-gradient"/><linearGradient id="linear-gradient-18" x1="1052.44" y1="499.54" x2="1082.01" y2="499.54" xlink:href="#linear-gradient"/><linearGradient id="linear-gradient-19" x1="1056.05" y1="494.19" x2="1085.62" y2="494.19" xlink:href="#linear-gradient"/><linearGradient id="linear-gradient-20" x1="2042.03" y1="90.77" x2="2075.56" y2="90.77" gradientTransform="matrix(0.54, -0.84, -0.84, -0.54, 197.39, 1977.49)" xlink:href="#linear-gradient"/><linearGradient id="linear-gradient-21" x1="1857.68" y1="124.67" x2="1883.02" y2="124.67" gradientTransform="matrix(0.54, -0.84, -0.84, -0.54, 197.39, 1977.49)" xlink:href="#linear-gradient"/><linearGradient id="linear-gradient-22" x1="942.17" y1="697.63" x2="976.58" y2="697.63" xlink:href="#linear-gradient"/><linearGradient id="linear-gradient-23" x1="1271.29" y1="697.18" x2="1308" y2="697.18" xlink:href="#linear-gradient"/><linearGradient id="linear-gradient-24" x1="1291.74" y1="281.55" x2="1327" y2="281.55" xlink:href="#linear-gradient"/><linearGradient id="linear-gradient-25" x1="694.35" y1="90.18" x2="724.94" y2="90.18" xlink:href="#linear-gradient"/></defs><title>header_img_01</title><g id="Layer_2" data-name="Layer 2"><rect class="cls-2" width="1366" height="705"/></g><g class="cls-3"><path class="cls-4" d="M866,220.1c18.5-27.3,29-58.7,29-92.1s-9.1-66.4-29.4-92.6C858.4,26.2,843.2,8.6,834.9.4,794-40.4,730.1-62.8,661-62.8h-3.5L627.5-73.4H-129.2l55.4,489.2,356,240.9h.6c40.5,27.4,92.5,43.8,149.2,43.8,94.2,0,175.3-45.4,212.4-110.8h.2Z"/><path class="cls-5" d="M638,120.3s-59.6-53.7-178.7,28.2C357.5,218.4,223,340.4,62.5,285c0,0-119.5-32.4,261.5,221.1,0,0,94.8,66.5,144,62.5,0,0,102.1,8.1,124.6-147.4,0,0,10.3-102.4,96.6-130.1C689.3,291.1,865.1,245.2,638,120.3Z"/></g><ellipse class="cls-6" cx="833.8" cy="622.1" rx="24.5" ry="3.4"/><ellipse class="cls-7" cx="1285.2" cy="623.2" rx="24.5" ry="3.4"/><polygon class="cls-8" points="1262.8 401.2 1241.1 401.2 1241.1 442.7 1214.4 442.7 1214.4 454.5 1192.6 454.5 1192.6 391.2 1166.4 391.2 1166.4 469.8 1141.2 469.8 1141.2 401.3 1121.5 401.3 1121.5 457.8 1116.6 457.8 1116.6 446.1 1091.1 446.1 1091.1 469.6 1081.5 469.6 1081.5 387.7 1059.6 387.7 1059.6 454.5 1059.6 454.5 1059.6 509.1 1262.8 509.1 1262.8 401.2"/><polygon class="cls-8" points="1042.6 401.2 1025.3 401.2 1025.3 442.7 998.6 442.7 998.6 454.5 976.8 454.5 976.8 391.2 950.6 391.2 950.6 469.8 925.4 469.8 925.4 401.3 905.7 401.3 905.7 457.8 900.8 457.8 900.8 446.1 875.2 446.1 875.2 469.6 865.6 469.6 865.6 387.7 839.4 387.7 839.4 486.9 839.4 509.1 1042.6 509.1 1042.6 401.2"/><path class="cls-9" d="M814.8,515.9s-7.6,33.6,4.4,56.5l12.1,22.8S834.4,538.1,814.8,515.9Z"/><path class="cls-10" d="M815.3,603.7c.7,4.1,1.7,8.3,3.7,11.9s5.3,6.8,9.4,7.8a21.6,21.6,0,0,0,5.7.4,12.4,12.4,0,0,0,6.1-1.2c2.3-1.4,3.6-4,4.5-6.6a76.8,76.8,0,0,0,3.6-13.3c.5-2.6.8-5.4-.4-7.8s-5.5-4.5-9.1-5c-5.9-1-14-1.5-19.7.9S814.5,599.2,815.3,603.7Z"/><path class="cls-11" d="M828.6,595.3c4.7.3,9.7-.4,12.7-2,.6-.3,1.1-.7.8-1.1s-1.6-.6-2.7-.8a66.6,66.6,0,0,0-17.4.1C814.1,592.9,824.4,595.1,828.6,595.3Z"/><path class="cls-12" d="M826.2,507.6s-3.8,64.1,5.1,87.6C831.3,595.2,837,538.1,826.2,507.6Z"/><path class="cls-9" d="M830.1,594.7h2.1c3-12.7,12.1-53.8,7.3-73,0,0-15.2,53.9-11.4,66Z"/><path class="cls-9" d="M1267.2,518.1s-7.6,33.6,4.4,56.5l12.1,22.8S1286.9,540.3,1267.2,518.1Z"/><path class="cls-10" d="M1267.7,605.9c.7,4.1,1.7,8.3,3.7,11.9s5.3,6.8,9.4,7.8a21.6,21.6,0,0,0,5.7.4,12.4,12.4,0,0,0,6.1-1.2c2.3-1.4,3.6-4,4.5-6.6a76.8,76.8,0,0,0,3.6-13.3c.5-2.6.8-5.4-.4-7.8s-5.5-4.5-9.1-5c-5.9-1-14-1.5-19.7.9S1266.9,601.4,1267.7,605.9Z"/><path class="cls-11" d="M1281.1,597.5c4.7.3,9.7-.4,12.7-2,.6-.3,1.1-.7.8-1.1s-1.6-.6-2.7-.8a66.6,66.6,0,0,0-17.4.1C1266.5,595.1,1276.8,597.3,1281.1,597.5Z"/><path class="cls-12" d="M1278.6,509.8s-3.8,64.1,5.1,87.6C1283.7,597.4,1289.4,540.3,1278.6,509.8Z"/><path class="cls-9" d="M1282.6,596.9h2.1c3-12.7,12.1-53.8,7.3-73,0,0-15.2,53.9-11.4,66Z"/><ellipse class="cls-13" cx="872.3" cy="632.7" rx="55.3" ry="7.1"/><ellipse class="cls-14" cx="1240.4" cy="638.2" rx="55.3" ry="7.1"/><ellipse class="cls-15" cx="999.3" cy="631.1" rx="55.3" ry="7.1"/><ellipse class="cls-16" cx="1145" cy="628.9" rx="55.3" ry="7.1"/><ellipse class="cls-17" cx="1057.9" cy="617" rx="33" ry="7.1"/><path class="cls-18" d="M882.1,441.9l20.9,3.4-9.9-9.1,4.7-5.3,18.1,16.1a4.2,4.2,0,0,1-2.9,7.1l-25.3.8Z"/><polygon class="cls-11" points="890.9 495.4 890.4 631.7 883.3 632.2 878.3 516.6 871.6 517.1 864.8 631.2 857.7 630.7 858.6 493 890.9 495.4"/><path class="cls-18" d="M882.1,441.9l-24.1-1a8.1,8.1,0,0,0-6.5,2.9l7.1,55.2,32.9.7-3-50.6S883,442,882.1,441.9Z"/><path class="cls-10" d="M893,431.4c-1.3,1-3,2-3.3,3.7a3.3,3.3,0,0,0,2.2,3.4,5.7,5.7,0,0,0,4.3-.3,7.3,7.3,0,0,0,4.3-5.2c.3-1.7-.5-5-2.4-5.6S894.6,430.1,893,431.4Z"/><polygon class="cls-19" points="857.7 630.7 843.7 634.8 844.2 636 864.5 633.8 864.8 631.2 857.7 630.7"/><path class="cls-20" d="M812.6,442.4l-2.2-3.8,2.4-5.1a24.8,24.8,0,0,0,1.3-4.6c0-1.1-1.1-2.7-2.2-.7a41.3,41.3,0,0,1-2.2,3.5l-6.6-9.7a1,1,0,0,0-.8-.4h0a1,1,0,0,0-.9,1.5l1.5,2.8a1,1,0,0,1-1.5,1.3l-.3-.2a3.7,3.7,0,0,0-5.1.9v3.5a7.4,7.4,0,0,0,2.7,5.4c3.9,3.2,10.8,8.7,10.9,8.3S812.6,442.4,812.6,442.4Z"/><path class="cls-20" d="M887.4,420.6a2.2,2.2,0,0,0-2.7.8,3.3,3.3,0,0,0-.3,2.9,4.2,4.2,0,0,0,4.4,2.8,3.7,3.7,0,0,0,3.1-4,3.9,3.9,0,0,0-2.5-3,5.3,5.3,0,0,0-4,.2"/><path class="cls-20" d="M886.9,422.7l10.8,8.5s.3,4.6-2.3,5.2c-.8.5-10.8-10.1-10.8-10.1Z"/><path class="cls-19" d="M883.3,632.2l.4,2.3,17.6,2.9s.9-1.4.3-1.5l-11.1-4.2Z"/><path class="cls-20" d="M866.1,430.3l.6,15a3.5,3.5,0,0,0,3,3.5h0a3.5,3.5,0,0,0,4.1-2.9h0l.8-13Z"/><rect class="cls-11" x="874.9" y="421.2" width="16.3" height="7.75" transform="translate(303.6 1215.5) rotate(-79.5)"/><rect class="cls-11" x="874.5" y="421.6" width="16.3" height="6.89" transform="translate(303.3 1215.1) rotate(-79.5)"/><path class="cls-10" d="M865.3,443.1s-1.1.9-1.2,1.3,4.2,7.1,4.2,7.1l2.9-4.6,3.6,4.6,1.5-8.4-2.4-.6-2.7,3.1-4.9-3.9Z"/><polygon class="cls-21" points="871.2 446.8 869.4 449.8 870.7 452 870 453.8 870.7 475.9 873.2 478.7 875.5 476.1 873.1 453.7 871.8 451.9 873.4 449.6 871.2 446.8"/><path class="cls-20" d="M859.9,414.2c-1.5,3.5-1.4,7.6-.6,11.3s2.6,8.2,5.8,10.8,8.2,3.4,11.6.9a12.3,12.3,0,0,0,3.9-6.2c1.5-4.7,1.8-10-.1-14.5C876.8,408.1,864.2,404.3,859.9,414.2Z"/><polygon class="cls-18" points="854.5 459.6 828.6 468 809.8 447.5 814.5 443.6 831.8 457.8 851.5 443.8 854.9 449.6 854.5 459.6"/><polygon class="cls-10" points="806.8 446.1 808.8 449.2 817.7 444.1 814.1 440.6 806.8 446.1"/><path class="cls-20" d="M855.4,420.9a3,3,0,0,0-1.5,3.1,6.6,6.6,0,0,0,1.5,3.3,5.7,5.7,0,0,0,1.4,1.4,4.7,4.7,0,0,0,1.9.6,2.3,2.3,0,0,0,2.2-.6,2.6,2.6,0,0,0,.4-1.2c.2-2-.3-2.8-1.4-4.2S857.4,420,855.4,420.9Z"/><path class="cls-11" d="M862.8,421a6.5,6.5,0,0,1-3,5.2,12.1,12.1,0,0,1-2.3-6.2,11.4,11.4,0,0,1,1.7-7.9,10.8,10.8,0,0,1,8.1-4.2,20.6,20.6,0,0,1,9.1,1.8c1.3.5,2.9,1,3.8.1a6.7,6.7,0,0,1,.8,3.1,4.2,4.2,0,0,1-.6,2.3,6.3,6.3,0,0,1-3.4,2.7c-10.2,2.3-15-3.3-15-3.1a3.8,3.8,0,0,0,.3,1.8A14.1,14.1,0,0,1,862.8,421Z"/><path class="cls-22" d="M1013,535.5l-2.9-56.5s-14.5-.9-18.8-.9c-2.4,0-6.4,1.1-9.6,2.1s-5.5.9-6.9,3.6L951,529.6l14.6,1.4,4.9-5.6-2.5-3.8,8.9-21v35.5Z"/><path class="cls-23" d="M976.6,492.4l-15.8,28.6,4.9,5.8a8.7,8.7,0,0,0,3.9-.2l.9-1-2.5-3.8,8.9-21Z"/><path class="cls-24" d="M989.2,524.1c-.6-.2-5.5-3.1-9.2-3.1s-8.1,3.9-8.1,3.9-.6,2,1.8,1.6l4.1-.6s-4.3,2.2-1.4,2.6,14.9,0,14.9,0Z"/><path class="cls-25" d="M988.3,532.4H941.2v-3.5h47.1a1.7,1.7,0,0,1,1.7,1.7h0a1.7,1.7,0,0,1-1.7,1.7h0Z"/><path class="cls-26" d="M975.4,532.4H930a4.4,4.4,0,0,1-4.3-3.3l-8-30.2a4.4,4.4,0,0,1,3.2-5.4h40.8a4.4,4.4,0,0,1,4.3,3.3Z"/><path class="cls-27" d="M922,493.4a4.4,4.4,0,0,0-4.3,5.6l8,30.2a4.4,4.4,0,0,0,1.5,2.3l27.6-38Z"/><path class="cls-10" d="M948.7,515.6a2.7,2.7,0,0,1-1.7,3.4h-1a5,5,0,0,1-4.6-3.6,2.7,2.7,0,0,1,1.7-3.4h1A5,5,0,0,1,948.7,515.6Z"/><path class="cls-24" d="M989.8,471.1c.4.8,3.3,12,3.3,12a3.6,3.6,0,0,0,3.5,1.6c2.4-.2,3.5-3.7,3.5-3.7l-4.3-14.1Z"/><path class="cls-24" d="M1004.9,464.2c0,7.7-8.2,16.3-15.9,16.3s-12-8.5-12-16.3a14,14,0,0,1,28,0Z"/><path class="cls-10" d="M992,479.7l-1.6,4.3,1,4.5,3.3-4.7,3.3,5.3,3.7-6.5-2.4-4.3s-1.2,2.9-3.9,3.5a2.7,2.7,0,0,1-3.2-1.9Z"/><polygon class="cls-26" points="994.7 483.8 992.2 486.8 993.5 488.7 991.6 492.5 992 518 994.5 523.1 998 517.4 997.1 493.1 995.3 488.5 996.7 486.4 994.7 483.8"/><polygon class="cls-28" points="1011.8 490.8 1012.7 535.5 991.7 535.3 1011.8 490.8"/><path class="cls-22" d="M1010.1,479l1.9,42.1-19.5,4,2.7,5.1,27.8,1.6-3.8-41.6a12.4,12.4,0,0,0-6.9-10Z"/><polygon class="cls-10" points="989.2 524.1 993.1 524.5 996.5 530.2 990 530.7 989.2 524.1"/><path class="cls-11" d="M969.8,543.2l-34.4,8.8,17.5,68.9,6.1-3-5.2-59.2,30.8-9.7-17.8,10.3.3,56.2h5.4s15.1-55,16.6-55,26.9-16.9,26.9-16.9Z"/><polygon class="cls-11" points="934.4 626.2 958.3 624.5 959 617 933.4 622.8 934.4 626.2"/><polygon class="cls-11" points="953.8 630.5 958.6 631.1 972.2 625.9 972.5 615.4 967.1 615.4 964.7 622 957.3 626.4 953.8 630.5"/><path class="cls-29" d="M976.4,459.3c-.5,1-1.1,2.2-.7,3.2s2.1,1.7,3.5,1.9a55.6,55.6,0,0,0,7.2.4,22.2,22.2,0,0,0,4.8-.5,28.1,28.1,0,0,0,7.1-3.2c1.6-.9,3.4-2.1,3.7-3.9s-1-3.5-2.3-4.8a15.4,15.4,0,0,0-2.3-2.2,9.9,9.9,0,0,0-7.3-1.5C983.9,449.6,979.4,453.9,976.4,459.3Z"/><path class="cls-29" d="M999.3,463.8a1.5,1.5,0,0,1,1.9-.9,2.1,2.1,0,0,1,1.3,1.7,3.9,3.9,0,0,1-.4,2.2l-.4,1a3.7,3.7,0,0,0-.1.9v4.1a5.1,5.1,0,0,0,2.4-2.6c1.2-2.3,2.5-4.8,2.4-7.5a14,14,0,0,0-2.3-6.1,3.3,3.3,0,0,0-.9-1.1,2.2,2.2,0,0,0-1.9-.2,6.6,6.6,0,0,0-1.8,1l-1.6,1.1a3.8,3.8,0,0,0-1.4,1.3c-.5,1,.2,1.5.8,2.1S997.1,468,999.3,463.8Z"/><path class="cls-8" d="M978.8,475.5a5.4,5.4,0,0,1-4.6-3.5,3,3,0,0,1,.2-2.7,2.4,2.4,0,0,1,2-1,5.4,5.4,0,0,1,4.6,3.5,3,3,0,0,1-.2,2.7A2.4,2.4,0,0,1,978.8,475.5Zm-2.4-6.6a1.9,1.9,0,0,0-1.6.7,2.4,2.4,0,0,0-.1,2.2,4.8,4.8,0,0,0,4.1,3.1,1.9,1.9,0,0,0,1.6-.7,2.4,2.4,0,0,0,.1-2.2,4.8,4.8,0,0,0-4.1-3.1Z"/><path class="cls-8" d="M988,475.5a5.4,5.4,0,0,1-4.6-3.5,3,3,0,0,1,.2-2.7,2.4,2.4,0,0,1,2-1,5.4,5.4,0,0,1,4.6,3.5,3,3,0,0,1-.2,2.7A2.4,2.4,0,0,1,988,475.5Zm-2.4-6.6a1.9,1.9,0,0,0-1.6.7,2.4,2.4,0,0,0-.1,2.2,4.8,4.8,0,0,0,4.1,3.1,1.9,1.9,0,0,0,1.6-.7,2.4,2.4,0,0,0,.1-2.2,4.8,4.8,0,0,0-4.1-3.1Z"/><path class="cls-11" d="M1039.1,442.4c.1,2.2,1.3,4.4.7,6.5s-2.1,3-2.6,4.7.4,4,1.4,5.8,1.9,3.2,3.7,3.2a4.8,4.8,0,0,0,2.1-.7l4.9-2.5a7.9,7.9,0,0,0,2-1.3,7.7,7.7,0,0,0,1.7-3c1.3-3.5,2.4-7.1,2.1-10.7s-2.3-7.4-5.7-8.8c-1.9-.8-7.5-1.4-9.1.2s-.4,1.5-.5,2.4S1039,441,1039.1,442.4Z"/><path class="cls-20" d="M1043.1,453.4l-1.7.5c-6.9,4.5-11,10.8-11.8,19l-3.5,57.1,5.3-2.4Z"/><path class="cls-26" d="M1078,452.9l-28.3-1.2a34.3,34.3,0,0,0-8.9,1.4l-3.6,1.7,6.3,30.3h0a60.1,60.1,0,0,0-8.3,32.3l3.4,41.2h31.7l4-43.5a60.1,60.1,0,0,0-4.8-26l-1.7-4Z"/><path class="cls-30" d="M1044.1,465.1a8.1,8.1,0,0,0,9.6,4.4,20.4,20.4,0,0,0,6-2.6,33.2,33.2,0,0,0,9.1-7.4c1.7-2.2,3.1-5.2,1.7-7.6s-2.7-2.3-4.4-2.7C1056.9,446.6,1037.1,451.9,1044.1,465.1Z"/><path class="cls-20" d="M1065.9,438.2c0,7.5-8,17.7-15.5,17.7s-11.7-10.2-11.7-17.7a13.6,13.6,0,1,1,27.2,0Z"/><path class="cls-20" d="M1078,452.9l19.6,25.5a5.7,5.7,0,0,1-1,8l-.5.3-22.9,14-2.8-4.4,15.7-12.6a2.8,2.8,0,0,0,.6-3.8l-11.9-16.9Z"/><path class="cls-20" d="M1015.2,532.4h12.3a3.7,3.7,0,0,0,3.7-3.5v-1.4Z"/><path class="cls-20" d="M1048.6,447.3l3.2,9s.8,3.9,4,2.9,1.2-14.7.8-14.8S1048.9,448.1,1048.6,447.3Z"/><path class="cls-11" d="M1056.7,436.4c-6.3,3.8-12.9,7.8-20.3,8.2,1.7-2.1,1.3-5,1.6-7.6a14.4,14.4,0,0,1,19.1-11.9,8,8,0,0,1,3.9,2.7C1063.8,431.5,1059.6,434.6,1056.7,436.4Z"/><path class="cls-11" d="M1056.1,451.5c.4,2,1.7,3.8,1.9,5.9a11.8,11.8,0,0,1-.5,4l-1.1,4.7a14.1,14.1,0,0,0,5.9-3,23,23,0,0,0,8.2-21.5,37,37,0,0,0-1.9-6.6,16.5,16.5,0,0,0-2.4-4.7,6.3,6.3,0,0,0-4.5-2.5,6.7,6.7,0,0,0-5.3,3.1,6.8,6.8,0,0,0-1.4,4c0,1.4.5,6.4,1.9,6.9a3.5,3.5,0,0,1,4.7,1.4l.2.3c1,2.9-1.6,3.5-3.3,4.5S1055.6,449.2,1056.1,451.5Z"/><path class="cls-11" d="M1070.5,442.6a36.6,36.6,0,0,1,4,3,4.4,4.4,0,0,1,1.3,4.5,7.9,7.9,0,0,1-2,2.4,3.6,3.6,0,0,0-1.3,2.7,4.5,4.5,0,0,0,.9,1.9,7.4,7.4,0,0,1,1.6,5.1,4.9,4.9,0,0,1-2.5,3.4,6.8,6.8,0,0,1-4.3.7l-2.5-.3c-2.2.1-4,2.1-6.2,2.4a4.1,4.1,0,0,1-4.5-4.8c.4-2,2.1-3.5,3.8-4.8s3.4-2.8,3.7-4.8-.5-3.1-.4-4.6,2.3-3.8,2.8-6-.2-4.3,1.8-4.3S1069.5,441.8,1070.5,442.6Z"/><path class="cls-11" d="M1054.3,440.2a16.7,16.7,0,0,1-1.4,2.1l-2.1,2.9a15.5,15.5,0,0,0,.5-5.7,2.6,2.6,0,0,1,0-.9,2.3,2.3,0,0,1,1.1-1.2c.7-.4,2.3-1.8,3-.9S1054.7,439.5,1054.3,440.2Z"/><polygon class="cls-11" points="1070.9 492.2 1069.6 493.4 1074.1 498.6 1070.9 492.2"/><path class="cls-31" d="M1166.4,535.5l-2.9-56.5s-14.5-3-18.9-3c-2.4,0-6.4,1.1-9.6,2.1a11.9,11.9,0,0,0-6.9,5.8l-23.8,45.7L1119,531l4.9-5.6-2.5-3.8,8.9-21v35.5Z"/><path class="cls-20" d="M1164.4,462.7a14,14,0,0,1-14,14h0c-4.3,0-7.2-4.4-9.8-7.5s-3.7-3.1-3.7-6.6c0-7.7,5.8-13.9,13.5-13.9A14,14,0,0,1,1164.4,462.7Z"/><polygon class="cls-11" points="1128.7 532.4 1080 532.4 1069.6 493.4 1118.4 493.4 1128.7 532.4"/><polygon class="cls-10" points="1128.7 532.4 1081.5 532.4 1070.9 492.2 1118.7 493.4 1128.7 532.4"/><rect class="cls-11" x="1080.3" y="529.6" width="33.5" height="2.83"/><path class="cls-32" d="M1146.7,525.8l18.7-8.9-1.5-30.1-3.2.2-24.2,25.4s-3.6,9.4-6.2,16.9v7l25.1-.5Z"/><polygon class="cls-26" points="1115.7 523.4 1089.7 523.4 1083.9 501.2 1110.2 501.9 1115.7 523.4"/><path class="cls-21" d="M1123.2,543.2l-34.4,8.8,17.5,68.9,6.1-3-5.2-59.2,30.8-9.7-17.8,10.3.3,56.2h5.4s15.1-55,16.6-55,26.9-16.9,26.9-16.9Z"/><polygon class="cls-11" points="1087.7 626.2 1111.7 624.5 1112.3 617 1086.7 622.8 1087.7 626.2"/><path class="cls-8" d="M1141.7,481.9a38,38,0,0,0,1.5,8,3,3,0,0,0,.9,1.5c1,.8,2.4.1,3.4-.6a23.8,23.8,0,0,0,4.8-4.3,8.4,8.4,0,0,0,1.9-3.6,4,4,0,0,0-1.1-3.8c-1.6-1.4-5.1-1.3-7.1-1.4S1141.4,478.9,1141.7,481.9Z"/><polygon class="cls-11" points="1107.1 630.5 1112 631.1 1125.6 625.9 1125.9 615.4 1120.4 615.4 1118 622 1110.7 626.4 1107.1 630.5"/><path class="cls-20" d="M1145.2,469.7l-1,11.8s.8,5,3.7,4.1a4.3,4.3,0,0,0,3.3-3.1l1.2-14.1Z"/><path class="cls-29" d="M1155.7,458.2a16.2,16.2,0,0,0,6.4-1.2,5.9,5.9,0,0,0,3.6-5.1c0-2.2-2.3-4.3-4.4-3.6l-1.4.5a4.6,4.6,0,0,1-2.3-.3c-5.7-1.7-12-2.8-17.2-.2a5.3,5.3,0,0,0-2.5,2.1,6.4,6.4,0,0,0-.6,2.5q-.3,3.4-.4,6.9c1.5-.8,3-1.8,4.6-2.5s2.5,0,4.2.3A39,39,0,0,0,1155.7,458.2Z"/><path class="cls-33" d="M1142.5,454.4a5,5,0,0,0-4.1,1.1,13.9,13.9,0,0,0-1.9,5.9,11.6,11.6,0,0,1,.3,2.2,5.9,5.9,0,0,0,.5,1.9c.8,1.2,2.1,2,3.4,3.5l.2.2c1.4-2.3,3.5-7.7,4-8.2s2.7-3.3,2.3-4.4S1143.5,454.6,1142.5,454.4Z"/><path class="cls-20" d="M1142.6,460.1l-.4-.4h-.7a3,3,0,0,0-2.5.8,2.6,2.6,0,0,0-.4,1.1,9.5,9.5,0,0,0-.1,2.8c.1,1.4.8,3,2.2,3.3a2.7,2.7,0,0,0,2.3-.7C1145.2,464.9,1144,462.2,1142.6,460.1Z"/><path class="cls-29" d="M1160.2,467.4a4.8,4.8,0,0,1,2.2-.1,1.8,1.8,0,0,1,1.4,1.5,4.7,4.7,0,0,1-.2,1.1,6.5,6.5,0,0,0,.6,3.2c.8,2.3,1.4,5,0,7s-3.9,2.4-6.2,2.3a17.2,17.2,0,0,1-15.2-11.6,11.4,11.4,0,0,1-.2-7c.2-.7.8-1.5,1.5-1.2a8.5,8.5,0,0,0,4.5,6.2C1152.8,470.9,1156.2,468.4,1160.2,467.4Z"/><path class="cls-11" d="M1071.5,492.7l46.8,1.1,9.8,38h-46.2l-10.3-39.2m-.7-.5,10.6,40.2h47.3l-10-39-47.8-1.2Z"/><path class="cls-10" d="M1147.4,532.4h-67.1v-2.8h67.1a1.4,1.4,0,0,1,1.4,1.4h0a1.4,1.4,0,0,1-1.4,1.4h0Z"/><path class="cls-25" d="M1113.5,532.4h-33.1v-2.8h33.1a1.4,1.4,0,0,1,1.4,1.4h0a1.4,1.4,0,0,1-1.4,1.4Z"/><path class="cls-31" d="M1163.5,479l-12.2,32.3-31.1,4.1,1.2,6.2,39.8-1.3L1172,492a6.7,6.7,0,0,0,.2-4.4,12.4,12.4,0,0,0-6.3-7.4Z"/><path class="cls-20" d="M1120.2,515.4l-16.8-9a1.8,1.8,0,0,0,.4,2.4l5.6,4.2v2.4c1.4,4.6,5.7,6.7,10.5,6.2l1.5-.2Z"/><path class="cls-34" d="M1188.5,532.3h-20s-.6-1.5,2.6-2,12.2-.9,12.2-.9l2.3-2.6,3.2.9Z"/><path class="cls-35" d="M1205,471.1l-21.4,57.6,5.3,1.3,32.8-56.2s-.9-3.6-6.5-7.1S1205,471.1,1205,471.1Z"/><path class="cls-24" d="M1205.6,444.6a14,14,0,0,0-19.3-4.2,14.6,14.6,0,0,0-6.4,10.8,7.7,7.7,0,0,0,.7,4.9c.9,2,3.3,4.8,1.9,8.8a2.3,2.3,0,0,0,1,2.8c1.1.4,2.1-.8,3.1-.8s6,3,7.4,4.2a4.3,4.3,0,0,0,2.1,1.2,3.5,3.5,0,0,0,2-.5c3.1-1.6,4.9-4.8,6.5-7.9a24.8,24.8,0,0,0,2.9-9.2A13.9,13.9,0,0,0,1205.6,444.6Z"/><path class="cls-24" d="M1205.1,471.7a2.7,2.7,0,0,0,2.2,1.1,2.5,2.5,0,0,0,1-.5,16,16,0,0,0,2.4-2,2.6,2.6,0,0,0,.9-1.6,2.5,2.5,0,0,0-.3-1c-1.4-3.2-4.3-5.6-5.3-8.9-.5-1.5-.5-3.1-1-4.6s-1.7-2.9-3.3-3a4.2,4.2,0,0,0-2.6,1,9.2,9.2,0,0,0-3.6,8,9.4,9.4,0,0,0,4.1,6.8A35.2,35.2,0,0,1,1205.1,471.7Z"/><path class="cls-29" d="M1186.3,440.4a14.2,14.2,0,0,0-5.6,7.2c2.7,1.3,9.5-1.6,11.4-2.7a13.3,13.3,0,0,0,6.4,11.8c2.5,1.5,5.4,2.1,7.8,3.5a18.8,18.8,0,0,0,1.2-5.3,14,14,0,0,0-21.3-14.4Z"/><path class="cls-24" d="M1193.8,454.6a3.2,3.2,0,0,1,1.5-4.2,4.1,4.1,0,0,1,4.5.9,5.8,5.8,0,0,1,1.6,4.5c-.1,2.1-1.7,4.3-3.7,4.2a3.8,3.8,0,0,1-2.8-1.8,11.2,11.2,0,0,1-1.3-3.2"/><polygon class="cls-10" points="1212.7 464.5 1208.7 459.8 1202.4 471.4 1204.8 478.7 1213.1 469.3 1212.7 464.5"/><path class="cls-21" d="M1217.3,465.1l37.4,41.6-22.9,20.1-28.1-43.1c-2.9-4.1,1.5-13.2,4.4-17.4h0a6.3,6.3,0,0,1,8.8-1.6Z"/><polygon class="cls-36" points="1253.4 634.4 1243.3 577.7 1231.8 526.8 1254.7 506.7 1253.4 577.1 1259 631.6 1253.4 634.4"/><polygon class="cls-11" points="1254.7 506.7 1235.8 636.2 1230.1 635.2 1231.8 526.8 1254.7 506.7"/><polygon class="cls-11" points="1219.6 640.3 1234.7 639.7 1235.6 635 1231.2 634.5 1216.7 638.5 1217 640.6 1219.6 640.3"/><polygon class="cls-36" points="1259 631.6 1259.4 635.9 1241.9 637 1241.8 635.6 1257.2 630.7 1259 631.6"/><path class="cls-24" d="M1181.1,532.3h-20s-.6-1.5,2.6-2,12.9-.8,12.9-.8l1.6-2.7,4.4,1.7Z"/><path class="cls-21" d="M1209.6,468.8l-15.2,28.7-18.2,31.9,5.9.2,16.3-22.4,21.5-27.5a7.5,7.5,0,0,0,2-9.2h0a7.5,7.5,0,0,0-12.3-1.6Z"/><path class="cls-37" d="M1218.3,506.1c-.4-5.8-2.5-24-2.5-24l-6.3,10.5Z"/><path class="cls-20" d="M1052.5,553.8c-1,0-9.2,3.4-9.2,3.4l6.4,52.5a33.3,33.3,0,0,1-4.8,1.5c-3.1.9-6,1.2-8.7,3.1-.2.2-.3,1-.3,1.2s.7.9,1.3.9q5.7.2,11.4.1c2.4-.1,4.4-1.3,6.6-2.4a3.9,3.9,0,0,0,1.7-3.4C1056.7,610.4,1053.5,553.8,1052.5,553.8Z"/><path class="cls-11" d="M1045.5,614.5c3.6-.3,8.6-2,11.4-4.3.3,2.4-.5,4.7-5,5.9s-11,2.9-16.3,1.3c-.6-.2-1.2-.5-1.2-1.1a1.3,1.3,0,0,1,.3-.7c.9-1.3,3.7-3.5,5.4-2.9s1.5,1.3,2.4,1.6A8,8,0,0,0,1045.5,614.5Z"/><path class="cls-20" d="M1072.1,610.6c0-.3-3.2-56.8-4.2-56.8s-9.2,3.4-9.2,3.4l6.4,52.5a48.9,48.9,0,0,0,3.6,8.1,16.7,16.7,0,0,0,6.4,6.3.9.9,0,0,0,.9.1.8.8,0,0,0,.3-.5c.5-1.6-.2-3.2-.9-4.7S1072.3,613.6,1072.1,610.6Z"/><path class="cls-11" d="M1066.7,617.6c1.6,3,3.6,6.1,6.8,7.5a2.8,2.8,0,0,0,1.7.3,2.2,2.2,0,0,0,1.5-1.6,4.7,4.7,0,0,0-.1-2.3,11.9,11.9,0,0,0-1.4-3.3,1,1,0,0,0-.6-.5c-.4-.1-.7.3-.9.5a2.7,2.7,0,0,1-2.8,0,7,7,0,0,1-2.1-2.1c-1.2-1.6-2.2-4.6-3.9-5.6C1064.3,612.8,1065.6,615.4,1066.7,617.6Z"/><circle class="cls-11" cx="977" cy="626.1" r="3.9"/><circle class="cls-11" cx="1024" cy="626.1" r="3.9"/><circle class="cls-11" cx="999.5" cy="626.1" r="3.9"/><path class="cls-38" d="M977,626.1v-2a8.2,8.2,0,0,1,8.2-8.2h15.4V576.1"/><path class="cls-38" d="M1023.6,626.1v-2a8.2,8.2,0,0,0-8.2-8.2H1000V576.1"/><line class="cls-38" x1="999.5" y1="626.1" x2="999.5" y2="615.9"/><rect class="cls-11" x="995.3" y="595.8" width="8.7" height="19.77"/><rect class="cls-11" x="996.7" y="576.4" width="5.6" height="22.47"/><circle class="cls-11" cx="1126.9" cy="626.1" r="3.9"/><circle class="cls-11" cx="1173.9" cy="626.1" r="3.9"/><circle class="cls-11" cx="1149.4" cy="626.1" r="3.9"/><path class="cls-38" d="M1126.9,626.1v-2a8.2,8.2,0,0,1,8.2-8.2h15.4V576.1"/><path class="cls-38" d="M1173.4,626.1v-2a8.2,8.2,0,0,0-8.2-8.2h-15.4V576.1"/><line class="cls-38" x1="1149.4" y1="626.1" x2="1149.4" y2="615.9"/><rect class="cls-11" x="1145.2" y="595.8" width="8.7" height="19.77"/><rect class="cls-11" x="1146.6" y="576.4" width="5.6" height="22.47"/><rect class="cls-39" x="914" y="536.6" width="268.3" height="42.51"/><rect class="cls-11" x="914.4" y="536.9" width="4.5" height="108.4"/><rect class="cls-11" x="1180.9" y="536.9" width="4.5" height="108.4"/><polygon class="cls-40" points="1185.4 561.7 913.7 536.9 1185.4 536.9 1185.4 561.7"/><rect class="cls-18" x="903.6" y="532.4" width="291.8" height="7.23"/><line class="cls-41" x1="1081" y1="45" x2="1081" y2="102"/><g class="cls-42"><path class="cls-43" d="M1076,188.9a4.9,4.9,0,0,1-4.6,5.2,13.8,13.8,0,0,0-4,.7c-3.6,1.5-2.3,6.5-3.7,9.3s-6.1,1.5-8.2,2.8a5,5,0,0,0-1.9,2.8,21.8,21.8,0,0,0-.5,3.6c-.2,1.3-2.5,3.7-4,2.8s-1.4.5-.8,1.1,5.4-.2,6.3-2.5.2-6.1,3.8-6.9c1.8-.4,3.6-.3,5.4-1.2a4.7,4.7,0,0,0,2.3-3.5c.2-1.8.1-3.5.9-5.2s2.7-2,4.5-2.1a6.4,6.4,0,0,0,6.3-6.7.9.9,0,0,0-1.7,0Z"/><path class="cls-44" d="M1080.3,192.5a4.9,4.9,0,0,1-4.6,5.2,13.8,13.8,0,0,0-4,.7c-3.6,1.5-2.3,6.5-3.7,9.3s-6.1,1.5-8.2,2.8a5,5,0,0,0-1.9,2.8,21.8,21.8,0,0,0-.5,3.6c-.2,1.3-2.5,3.7-4,2.8s-1.4.5-.8,1.1,5.4-.2,6.3-2.5.2-6.1,3.8-6.9c1.8-.4,3.6-.3,5.4-1.2a4.7,4.7,0,0,0,2.3-3.5c.2-1.8.1-3.5.9-5.2s2.7-2,4.5-2.1a6.4,6.4,0,0,0,6.3-6.7.9.9,0,0,0-1.7,0Z"/><path class="cls-45" d="M1083.9,197.8a4.9,4.9,0,0,1-4.6,5.2,13.8,13.8,0,0,0-4,.7c-3.6,1.5-2.3,6.5-3.7,9.3s-6.1,1.5-8.2,2.8a5,5,0,0,0-1.9,2.8,21.8,21.8,0,0,0-.5,3.6c-.2,1.3-2.5,3.7-4,2.8s-1.4.5-.8,1.1,5.4-.2,6.3-2.5.2-6.1,3.8-6.9c1.8-.4,3.6-.3,5.4-1.2a4.7,4.7,0,0,0,2.3-3.5c.2-1.8.1-3.5.9-5.2s2.7-2,4.5-2.1a6.4,6.4,0,0,0,6.3-6.7.9.9,0,0,0-1.7,0Z"/></g><path class="cls-46" d="M1257.6,191.7h-.2c-4.4-.8-9.5-.4-14-.6s-10.1-.4-15-.1l-.4.2a.6.6,0,0,0-.9.7c2.4,3.9,2.9,8.8,4.9,13s3.4,9.5,6.1,13.8a.6.6,0,0,0,.5.3.4.4,0,0,0,.6,0h0c3.9-4.3,7.8-8.8,11.5-13.3,1.5-1.8,2.8-3.7,4.1-5.7s2.4-4.7,3.8-6.9C1259.1,192.3,1258.2,191.5,1257.6,191.7Zm-3,5.1a82.9,82.9,0,0,1-6.2,8.6c-3.1,4-6.7,7.7-9.3,12-.6-2-1.8-3.9-2.5-5.9a41,41,0,0,0-2.6-6.2,44.1,44.1,0,0,1-3.3-7.9,20.5,20.5,0,0,0-2.1-5.3,7.4,7.4,0,0,0,3.6.4c2.9,0,5.7.4,8.6.3,5-.1,10.6,1.3,15.6.4C1255.7,194.3,1255.3,195.5,1254.6,196.7Z"/><path class="cls-47" d="M1122.2,333.4h-.1c-3.3-.6-7.2-.3-10.6-.4s-7.6-.3-11.4-.1l-.3.2a.4.4,0,0,0-.7.6c1.8,2.9,2.2,6.7,3.7,9.8s2.5,7.1,4.6,10.4l.4.2a.3.3,0,0,0,.4,0h0c3-3.3,5.9-6.6,8.7-10,1.1-1.4,2.1-2.8,3.1-4.3s1.8-3.5,2.8-5.2S1122.7,333.2,1122.2,333.4Zm-2.3,3.8a62.7,62.7,0,0,1-4.7,6.5c-2.4,3-5.1,5.8-7,9.1-.5-1.5-1.4-2.9-1.9-4.5a31,31,0,0,0-2-4.7,33.3,33.3,0,0,1-2.5-5.9,15.5,15.5,0,0,0-1.6-4,5.6,5.6,0,0,0,2.7.3c2.2,0,4.3.3,6.5.2,3.8-.1,8,1,11.8.3C1120.8,335.3,1120.5,336.3,1119.9,337.2Z"/><circle class="cls-48" cx="901.8" cy="293.5" r="15.4"/><path class="cls-49" d="M974.6-1.7a10.7,10.7,0,0,0-8.4-5.7c-3.4-.3-6.2,1.4-8.9,3.3a9.9,9.9,0,0,0-3.1,2.9c-.2.4-1.6,5-1.1,5a12,12,0,0,0-6.9,2.4c-3,1.4-4.3,5.1-4,8.6.5,5,4.1,9.2,9.3,9.5a10.9,10.9,0,0,0,11-7.9,13,13,0,0,0,8-.9C977.6,12.1,977.8,4.6,974.6-1.7ZM960.9,14a9.4,9.4,0,0,1-4.5-3.9,12.9,12.9,0,0,1-1.6-4.2c2.9.4,4.8,2.7,5.7,5.7A7.2,7.2,0,0,1,960.9,14Zm-10.6,8c-3.5-.7-5.6-4.4-5.9-7.7s1.4-6.2,5-7a.8.8,0,0,0,.5-.4,14.2,14.2,0,0,1,3.4-.9h.1a18.5,18.5,0,0,0,1.3,4.3,10.4,10.4,0,0,0,6,5.6A9.4,9.4,0,0,1,950.3,21.9ZM968.9,14a10.7,10.7,0,0,1-6.1.5,10.6,10.6,0,0,0-.2-3.5,9,9,0,0,0-8-7.2,7.5,7.5,0,0,1,2.6-6.1h.5c5.9-4.1,11.9-4.4,15.5,2.6C976,5.7,974.8,11.7,968.9,14Z"/><polygon class="cls-50" points="1308 -9.5 1271.3 0.3 1298.2 27.2 1308 -9.5"/><polygon class="cls-51" points="1327 406.8 1291.7 416.3 1317.6 442.1 1327 406.8"/><polygon class="cls-52" points="724.9 600.5 694.4 608.7 716.7 631.1 724.9 600.5"/></svg>