<svg xmlns="http://www.w3.org/2000/svg" xmlns:xlink="http://www.w3.org/1999/xlink" viewBox="0 0 877 676"><defs><style>.cls-1{fill:none;}.cls-2{clip-path:url(#clip-path);}.cls-3{fill:#2f91fc;}.cls-4{opacity:0.15;fill:url(#linear-gradient);}</style><clipPath id="clip-path"><rect class="cls-1" width="874" height="676"/></clipPath><linearGradient id="linear-gradient" x1="438.42" y1="20.87" x2="604.2" y2="589.23" gradientUnits="userSpaceOnUse"><stop offset="0" stop-color="#2ae4ff"/><stop offset="1" stop-color="#3fc1ff"/></linearGradient></defs><title>header_image_01</title><g id="Layer_4" data-name="Layer 4"><g class="cls-2"><path class="cls-3" d="M-43,378,295,630s108,80,235,11c0,0,84-50,128-130L829,226S919,98,838-3H-60V378Z"/></g><path class="cls-4" d="M423.22,568.19s37.77,13.76,87.33-91S599,318.86,697.13,289.43c0,0,52.21-7.31-12-63.31,0,0-40.28-42-95.66-60.89,0,0-32.44-17.57-97.28-58.65,0,0-62.17-55.34-131.92,3.19,0,0-100.56,57.5-44.29,193.83,0,0,43.33,95.4,53.82,173.78C369.74,477.37,383.49,570.06,423.22,568.19Z"/></g></svg>