<svg xmlns="http://www.w3.org/2000/svg" xmlns:xlink="http://www.w3.org/1999/xlink" viewBox="0 0 224 452"><defs><style>.cls-1{fill:none;}.cls-2{fill:#5d5e5e;}.cls-3{clip-path:url(#clip-path);}.cls-4{clip-path:url(#clip-path-2);}</style><clipPath id="clip-path"><rect class="cls-1" x="0.4" y="-0.1" width="223.1" height="452.15" rx="35.7" ry="35.7"/></clipPath><clipPath id="clip-path-2"><path class="cls-1" d="M210.9,35.5a22.4,22.4,0,0,0-22.6-22.1H153c0,.2,0,.5,0,.7A10.9,10.9,0,0,1,142,25H83A10.9,10.9,0,0,1,72,14.2c0-.1,0-.3,0-.4H34.2A22.4,22.4,0,0,0,11.7,36.1L13,416.4a22.4,22.4,0,0,0,22.6,22.1l154.1-.5a22.4,22.4,0,0,0,22.5-22.2Z"/></clipPath></defs><title>mobileview_01</title><g id="Layer_7" data-name="Layer 7"><rect class="cls-2" x="-12094" y="-12453" width="18084" height="17828"/></g><g id="Layer_4" data-name="Layer 4"><g class="cls-3"><image width="2000" height="1500" transform="translate(-266.3 -54.4) scale(0.4)" xlink:href="E:\DigiKart IT\New folder\simpleiphone.png"/></g><g class="cls-4"><image width="1032" height="1835" transform="translate(-13 11.2) scale(0.24 0.23)" xlink:href="D:\Sony Backup\Submission\Product\Hymn tune\Hymn tune screens\Splash-screen.png"/></g></g></svg>