<svg xmlns="http://www.w3.org/2000/svg" xmlns:xlink="http://www.w3.org/1999/xlink" viewBox="0 0 164 331"><defs><style>.cls-1{fill:none;}.cls-2{fill:#5d5e5e;}.cls-3{clip-path:url(#clip-path);}.cls-4{clip-path:url(#clip-path-2);}</style><clipPath id="clip-path"><rect class="cls-1" x="0.1" width="163.3" height="331.01" rx="26.1" ry="26.1"/></clipPath><clipPath id="clip-path-2"><path class="cls-1" d="M154.7,25.3A16.3,16.3,0,0,0,138.3,9H112.8c0,.2,0,.3,0,.5a8,8,0,0,1-8,8H62a8,8,0,0,1-8-8c0-.1,0-.2,0-.3H26.7A16.3,16.3,0,0,0,10.4,25.8l1,280.2a16.3,16.3,0,0,0,16.4,16.3l111.6-.4a16.3,16.3,0,0,0,16.3-16.4Z"/></clipPath></defs><title>mobileview</title><g id="Layer_7" data-name="Layer 7"><rect class="cls-2" x="-12099" y="-12447" width="18084" height="17828"/></g><g id="Layer_4" data-name="Layer 4"><g class="cls-3"><image width="2000" height="1500" transform="translate(-195.1 -39.8) scale(0.29)" xlink:href="E:\DigiKart IT\New folder\simpleiphone.png"/></g><g class="cls-4"><image width="1080" height="1835" transform="translate(-14.7 5.8) scale(0.17)" xlink:href="D:\Sony Backup\Submission\Product\Hymn tune\Hymn tune screens\Payment.png"/></g></g></svg>